<svg xmlns="http://www.w3.org/2000/svg" xmlns:xlink="http://www.w3.org/1999/xlink" fill="none" version="1.1" width="640" height="168" viewBox="0 0 640 168"><g style="mix-blend-mode:passthrough"><g><g style="mix-blend-mode:passthrough"><path d="M6.01172,4.74316L7.29492,5.28809Q6.89062,5.78027,6.48633,6.24316L14.5898,6.24316L14.5898,7.35059Q13.1309,9.02637,10.7227,10.2393Q13.6406,11.1006,17.8418,11.1182Q17.3672,11.8389,16.9629,12.6182Q12.2637,12.249,9.1582,10.9424Q5.74805,12.3545,0.808594,12.9932Q0.509766,12.4658,0.0703125,11.9619Q4.51172,11.4287,7.61133,10.1982Q5.92383,9.24902,4.88086,7.93066Q3.5625,9.29004,2.14453,10.3682Q1.75781,9.87012,1.23047,9.33691Q4.3418,7.1748,6.01172,4.74316ZM3.30469,12.9932L14.7656,12.9932L14.7656,18.6182L13.4648,18.6182L13.4648,17.8682L4.60547,17.8682L4.60547,18.6182L3.30469,18.6182L3.30469,12.9932ZM1.19531,3.61816L8.7832,3.61816Q8.30859,2.91504,7.62891,2.12402L8.82422,1.36816Q9.52734,2.15918,10.2832,3.12012L9.47461,3.61816L16.9102,3.61816L16.9102,6.61816L15.6094,6.61816L15.6094,4.74316L2.49609,4.74316L2.49609,6.99316L1.19531,6.99316L1.19531,3.61816ZM13.4648,14.1182L4.60547,14.1182L4.60547,16.7432L13.4648,16.7432L13.4648,14.1182ZM12.7266,7.36816L6.00586,7.36816Q7.18945,8.75098,9.12305,9.62402Q11.3672,8.68066,12.7266,7.36816ZM25.6641,2.12402L26.9297,1.36816Q27.7734,2.33496,28.5996,3.46582L27.7383,3.99316L34.2949,3.99316L34.2949,11.4932L32.8887,11.4932L32.8887,10.7432L21.791,10.7432Q21.5508,15.9111,19.1777,18.9932Q18.7031,18.4775,18.1582,17.9619Q20.4082,15.1846,20.4082,9.63574L20.4082,3.99316L27.1172,3.99316Q26.4727,3.06152,25.6641,2.12402ZM21.8145,5.11816L21.8145,9.61816L32.8887,9.61816L32.8887,5.11816L21.8145,5.11816ZM42.3633,7.74316L53.7363,7.74316L53.7363,8.86816L48.4629,8.86816L47.9824,11.1182L52.9102,11.1182L52.9102,16.7783Q52.9102,18.2432,51.5742,18.2432Q51.1172,18.2432,50.291,18.2256Q50.168,17.5811,49.9395,17.0654Q50.5371,17.1182,51.1523,17.1182Q51.6797,17.1182,51.6797,16.585L51.6797,12.2432L49.8691,12.2432L49.8691,17.4932L48.6914,17.4932L48.6914,12.2432L46.9512,12.2432L46.9512,17.1182L45.7734,17.1182L45.7734,12.2432L44.0156,12.2432L44.0156,18.2432L42.7852,18.2432L42.7852,11.1182L46.7051,11.1182L47.1094,8.86816L42.3633,8.86816L42.3633,7.74316ZM51.2051,6.61816L51.2051,6.24316L43.2598,6.24316L43.2598,2.11816L44.4902,2.11816L44.4902,5.11816L47.2148,5.11816L47.2148,0.993164L48.4805,0.993164L48.4805,5.11816L51.2051,5.11816L51.2051,2.11816L52.4355,2.11816L52.4355,6.61816L51.2051,6.61816ZM41.8711,7.22168Q41.5371,9.95801,40.623,14.9209Q41.5312,14.751,42.293,14.5869Q42.2754,15.2021,42.3105,15.7119Q40.3242,16.1104,36.5098,16.7432L36.2461,15.6182Q38.0156,15.3662,39.4629,15.126Q40.3242,9.58887,40.623,6.99316L41.8711,7.22168ZM36.668,7.63184L37.8633,7.36816Q38.4434,9.9873,39.0234,13.8018L37.8105,14.1182Q37.3359,10.4561,36.668,7.63184ZM36.4395,4.74316L42.4688,4.74316L42.4688,5.86816L36.4395,5.86816L36.4395,4.74316ZM37.8809,1.62598L38.9531,0.993164Q39.9902,2.47559,40.7285,4.04004L39.5684,4.74316Q38.9355,3.3252,37.8809,1.62598Z" fill="#DDDDDD" fill-opacity="1"/></g><g style="mix-blend-mode:passthrough"><path d="M593.92773,2.49316L602.6113,2.49316Q602.5234,3.90527,602.4707,4.71973Q602.3301,7.4209,599.6934,7.36816Q598.9727,7.36816,597.4258,7.36816Q597.3203,6.62988,597.1973,5.86816Q598.498,6.17285,599.5352,6.24316Q601.0469,6.2959,601.1699,4.69629Q601.2227,4.2041,601.2578,3.61816L595.26367,3.61816L595.26367,8.86816L602.6816,8.86816L602.6816,9.8877Q601.9785,13.0107,600.1094,15.3193Q601.627,16.7783,603.877,17.5869Q603.2793,18.1611,602.8574,18.6182Q600.6953,17.6338,599.1953,16.1631Q597.8477,17.5576,596.0371,18.6182Q595.70312,18.1025,595.31641,17.5869Q597.0742,16.585,598.3516,15.1963Q596.6348,13.0342,596.0898,9.99316L595.26367,9.99316L595.26367,18.6182L593.92773,18.6182L593.92773,2.49316ZM587.51172,2.49316L592.46875,2.49316L592.46875,16.5146Q592.46875,18.2432,590.83398,18.2432Q589.9375,18.2432,589.16406,18.1904Q589.09375,17.6807,588.95312,16.9775Q589.84961,17.1182,590.5,17.1182Q591.2207,17.1182,591.2207,16.4385L591.2207,12.6182L588.75977,12.6182Q588.8125,16.5498,587.30078,18.6182Q586.914062,18.085,586.333984,17.5869Q587.51172,15.7998,587.51172,12.5127L587.51172,2.49316ZM601.293,9.99316L597.2969,9.99316Q597.8418,12.5596,599.2363,14.3584Q600.6895,12.4951,601.293,9.99316ZM588.75977,11.4932L591.2207,11.4932L591.2207,8.11816L588.75977,8.11816L588.75977,11.4932ZM591.2207,3.61816L588.75977,3.61816L588.75977,6.99316L591.2207,6.99316L591.2207,3.61816ZM609.3438,0.993164L610.6621,1.55566Q610.2695,2.22949,609.8359,2.86816L619.3457,2.86816L619.3457,4.01074Q617.7109,6.03809,614.875,7.55566Q617.8281,8.61621,621.9121,8.86816Q621.3496,9.6709,620.9277,10.3682Q616.3516,9.75879,613.2461,8.31152Q609.7598,9.85254,604.8086,10.7432Q604.5098,10.2861,604.0879,9.71191Q608.4941,8.93262,611.7344,7.50879Q609.7305,6.26074,608.5293,4.5498Q607.1641,6.27246,605.5117,7.74316Q604.9844,7.18066,604.5449,6.79395Q607.7793,4.12793,609.3438,0.993164ZM605.6523,11.4932L610.7676,11.4932Q610.8906,10.6494,610.9785,9.61816L612.4023,9.61816Q612.291,10.6494,612.168,11.4932L619.2578,11.4932Q619.082,14.5986,618.9238,15.8467Q618.6426,18.2959,615.9707,18.3135Q614.9336,18.6182,612.8594,18.2432Q612.7539,17.5752,612.5957,16.7432Q614.6172,17.083,615.9355,17.1182Q617.4297,17.083,617.5879,15.5479Q617.7461,14.1709,617.8164,12.6182L611.957,12.6182Q611.0254,17.0127,605.4062,18.9932Q605.002,18.4834,604.5449,17.9619Q609.5898,16.1982,610.5215,12.6182L605.6523,12.6182L605.6523,11.4932ZM617.4648,3.99316L609.6191,3.99316Q611.0312,5.7334,613.2578,6.8584Q615.7949,5.63965,617.4648,3.99316ZM622.8438,8.86816L629.9453,8.86816Q630.2207,8.22363,630.2969,7.36816L631.5625,7.53809Q631.457,8.26465,631.2578,8.86816L635.0898,8.86816Q634.3867,8.24707,633.6016,7.64941L634.3223,6.99316Q635.4824,7.70801,636.4141,8.42871L636.0215000000001,8.86816L639.2969,8.86816L639.2969,9.99316L632.5117,9.99316Q634.5449,11.9736,639.7188,11.8682Q639.2969,12.665,638.998,13.3682Q638.5352,13.333,638.1016,13.292L638.1016,18.6182L636.8711,18.6182L636.8711,17.4932L633.1094,17.4932L633.1094,18.6182L631.8789,18.6182L631.8789,12.9932L637.4805,12.9932Q632.4531,12.3311,631.0527,9.99316L630.7363,9.99316Q629.752,12.0322,624.3555,12.9932L629.9805,12.9932L629.9805,18.6182L628.75,18.6182L628.75,17.4932L625.0409999999999,17.4932L625.0409999999999,18.6182L623.8105,18.6182L623.8105,13.0986Q623.3477,13.2334,622.8438,13.3682Q622.5801,12.9346,622.1582,12.3369Q628.0293,11.499,629.207,9.99316L622.8438,9.99316L622.8438,8.86816ZM631.8613,2.49316L638.0840000000001,2.49316L638.0840000000001,7.74316L636.8534999999999,7.74316L636.8534999999999,6.99316L633.0918,6.99316L633.0918,7.74316L631.8613,7.74316L631.8613,2.49316ZM623.793,2.49316L629.9629,2.49316L629.9629,7.74316L628.7324,7.74316L628.7324,6.99316L625.0234,6.99316L625.0234,7.74316L623.793,7.74316L623.793,2.49316ZM636.8534999999999,3.61816L633.0918,3.61816L633.0918,5.86816L636.8534999999999,5.86816L636.8534999999999,3.61816ZM628.7324,3.61816L625.0234,3.61816L625.0234,5.86816L628.7324,5.86816L628.7324,3.61816ZM636.8711,14.1182L633.1094,14.1182L633.1094,16.3682L636.8711,16.3682L636.8711,14.1182ZM628.75,14.1182L625.0409999999999,14.1182L625.0409999999999,16.3682L628.75,16.3682L628.75,14.1182Z" fill="#DDDDDD" fill-opacity="1"/></g><g style="mix-blend-mode:passthrough"><path d="M7.06641,50.86816L16.8398,50.86816Q16.5762,60.1318,16.4355,62.9678Q16.3652,66.2783,13.623,66.2432Q12.7266,66.2432,11.0391,66.1904Q10.916,65.4346,10.7578,64.7432Q12.4453,64.7432,13.4648,64.7432Q14.9062,64.7959,14.9766,62.8857Q15.1523,60.1377,15.3457,52.36816L11.3555,52.36816Q11.25,55.7373,11.0918,57.82324Q10.7051,63.1963,6.32812,66.6182Q5.87109,66.0732,5.20312,65.4932Q9.28125,62.3877,9.61523,57.71777Q9.82031,55.41504,9.87305,52.36816L7.06641,52.36816L7.06641,50.86816ZM0.421875,53.86816L0.421875,52.74316L6.24023,52.74316L6.24023,53.90332Q5.26758,55.59668,4.16602,57.0498L4.16602,57.52441Q4.58789,57.84668,5.02148,58.1748Q5.88867,57.00879,6.64453,55.74316L7.80469,56.48145Q7.04883,57.57715,6.02344,58.8955Q6.90234,59.5635,7.78711,60.2549L6.89062,61.3682Q5.54883,60.2256,4.16602,59.1064L4.16602,66.6182L2.83008,66.6182L2.83008,58.6494Q1.79297,59.9209,0.650391,60.9932Q0.457031,60.3135,0.175781,59.4932Q2.70703,57.40723,4.67578,53.86816L0.421875,53.86816ZM2.0918,49.9834L3.32227,49.36816Q3.97266,50.37012,4.69336,51.7002L3.39258,52.36816Q2.74219,51.00293,2.0918,49.9834ZM25.9805,58.7432L34.4531,58.7432L34.4531,66.6182L33.1172,66.6182L33.1172,65.4932L27.3164,65.4932L27.3164,66.6182L25.9805,66.6182L25.9805,58.7432ZM25.418,64.0869L24.3809,65.1182Q23.4258,64.1221,22.4648,63.1846Q21.1641,65.001,19.0723,66.6182Q18.7031,66.126,18.2637,65.5869Q20.2793,64.1045,21.498,62.2705Q20.2441,61.0811,18.9844,59.9736Q19.6113,57.58301,20.1211,54.61816L18.3164,54.61816L18.3164,53.11816L20.3496,53.11816Q20.6309,51.34277,20.8828,49.36816L22.3066,49.5791Q22.0195,51.48926,21.7266,53.11816L24.9961,53.11816L24.9961,54.47754Q24.5859,59.3994,23.2383,62.0361Q24.4336,63.1084,25.418,64.0869ZM32.6953,51.61816Q34.4883,54.55371,35.7891,57.34277L34.4004,57.99316Q34.0312,57.04395,33.6387,56.11816Q30.8613,56.27051,27,56.59863Q26.5078,56.64551,25.752,56.86816L25.1016,55.83691Q25.7168,55.46777,26.1562,54.85254Q27.5801,52.71973,29.0391,49.36816L30.5156,49.84277Q28.916,52.88379,27.334,55.3623Q30.8496,55.11035,33.0469,54.99316Q32.3379,53.56348,31.5527,52.18066L32.6953,51.61816ZM33.1172,59.8682L27.3164,59.8682L27.3164,64.3682L33.1172,64.3682L33.1172,59.8682ZM23.6426,54.61816L21.4922,54.61816Q20.9355,57.61816,20.3906,59.6045Q21.3516,60.4014,22.2129,61.1455Q23.4082,58.6143,23.6426,54.61816ZM47.7422,49.36816L49.1484,49.5791Q48.7793,51.27246,48.2871,52.74316L53.666,52.74316L53.666,53.86816L52.5586,53.86816Q52.1191,59.1123,50.3086,62.1943Q51.7324,64.26859999999999,53.9297,65.5869Q53.3672,66.3721,52.9805,66.9932Q50.8359,65.499,49.4121,63.4424Q47.7949,65.4873,45.5625,66.9932Q45.1758,66.51859999999999,44.5605,65.9619Q47.0215,64.3096,48.5508,62.2061Q47.127,59.6631,46.6699,56.33496Q46.3008,57.02051,45.8965,57.61816Q45.5449,57.14941,45.0176,56.58691Q47.0566,53.62207,47.7422,49.36816ZM36.4219,59.4932L39.0938,59.4932Q39.4805,58.7607,39.8496,57.99316L41.1152,58.3975Q40.834,58.9541,40.5527,59.4932L44.8594,59.4932L44.8594,60.6006Q44.1914,62.4346,42.8379,63.8174Q43.8047,64.3271,44.8066,64.8369L44.0332,65.8682Q42.9434,65.2354,41.7656,64.60249999999999Q39.7793,66.1143,36.7559,66.9932Q36.4746,66.47749999999999,36.1582,65.8682Q38.7246,65.2002,40.5,63.9463Q38.9883,63.1553,37.3359,62.3291Q37.8984,61.4971,38.4258,60.6182L36.4219,60.6182L36.4219,59.4932ZM36.6152,53.49316L40.6582,53.49316L40.6582,49.36816L41.959,49.36816L41.959,53.49316L45.334,53.49316L45.334,54.61816L41.959,54.61816L41.959,55.50293L42.4863,54.89941Q44.1211,56.06543,45.2285,56.96191L44.3848,57.99316Q43.418,57.0791,41.959,55.93652L41.959,57.99316L40.6582,57.99316L40.6582,55.47949Q39.0586,57.12012,36.9316,58.3682Q36.5977,57.87598,36.1758,57.33691Q38.3906,56.22363,40.2363,54.61816L36.6152,54.61816L36.6152,53.49316ZM51.1523,53.86816L47.8652,53.86816Q47.7773,54.10254,47.6719,54.31934Q47.9883,58.1455,49.4297,60.8701Q50.8359,58.2334,51.1523,53.86816ZM39.0586,61.8838Q40.3066,62.54,41.625,63.2549Q42.8379,62.1357,43.5234,60.6182L39.8672,60.6182Q39.4629,61.2686,39.0586,61.8838ZM44.543,50.11816L45.6328,50.83887Q44.666,51.87012,43.6992,52.74316Q43.2949,52.3916,42.75,52.00488Q43.6641,51.13184,44.543,50.11816ZM37.0723,50.80371L38.0742,50.11816Q38.8652,50.97949,39.709,51.96973L38.6191,52.74316Q37.8457,51.71777,37.0723,50.80371ZM62.1562,60.6182L65.7773,60.6182L65.7773,58.3682L61.6816,58.3682Q61.4883,63.7061,59.1855,66.6182Q58.7637,66.1084,58.2363,65.5869Q60.4336,62.8916,60.4336,57.31348L60.4336,50.49316L70.8047,50.49316L70.8047,55.36816L69.5391,55.36816L69.5391,54.99316L61.6992,54.99316L61.6992,57.24316L65.7773,57.24316L65.7773,55.36816L67.043,55.36816L67.043,57.24316L71.6836,57.24316L71.6836,58.3682L67.043,58.3682L67.043,60.6182L70.6992,60.6182L70.6992,66.6182L69.4336,66.6182L69.4336,65.4932L63.4219,65.4932L63.4219,66.6182L62.1562,66.6182L62.1562,60.6182ZM54.2812,58.7432Q55.5293,58.4268,56.707,58.1045L56.707,53.86816L54.4922,53.86816L54.4922,52.74316L56.707,52.74316L56.707,49.36816L58.0078,49.36816L58.0078,52.74316L59.9238,52.74316L59.9238,53.86816L58.0078,53.86816L58.0078,57.7002Q58.8457,57.47754,59.6426,57.24316Q59.6602,58.1104,59.748,58.7432Q58.8457,58.9893,58.0078,59.2236L58.0078,64.5791Q58.0078,66.583,56.2676,66.6182Q55.7227,66.6357,54.6504,66.6006Q54.5801,65.833,54.4395,65.0127Q55.4062,65.1182,55.916,65.1182Q56.707,65.1182,56.707,64.2334L56.707,59.6514Q55.5059,59.9619,54.457,60.2432L54.2812,58.7432ZM69.5391,51.61816L61.6992,51.61816L61.6992,53.86816L69.5391,53.86816L69.5391,51.61816ZM69.4336,61.7432L63.4219,61.7432L63.4219,64.3682L69.4336,64.3682L69.4336,61.7432ZM76.6758,49.36816L78.1172,49.75488Q77.7305,50.71582,77.3086,51.61816L87.4336,51.61816Q87.3633,57.91699,87.1523,60.3311Q86.9414,63.2607,84.252,63.2432Q83.5488,63.2432,81.7559,63.2432Q81.6504,62.5576,81.4746,61.7432Q82.9336,61.7432,84.0586,61.7432Q85.6582,61.7607,85.7812,60.0967Q85.9746,57.94043,86.0273,53.11816L76.6582,53.11816Q76.043,54.09668,75.3398,54.99316L82.6523,54.99316L82.6523,59.8682L76.2891,59.8682L76.2891,63.3018Q76.2891,64.7432,77.748,64.7432L85.9395,64.7432Q87.6094,64.7432,87.8906,63.6416Q88.1543,62.6514,88.3125,60.9932Q89.0684,61.292,89.7188,61.5029Q89.5078,63.1494,89.2617,64.1865Q88.8223,66.2432,86.2734,66.2432L77.4492,66.2432Q74.8828,66.2432,74.8828,63.7295L74.8828,55.67871Q74.0215,56.89746,73.0547,57.99316Q72.6504,57.40137,72.1758,56.96191Q75.2344,53.49316,76.6758,49.36816ZM81.2812,56.11816L76.2891,56.11816L76.2891,58.7432L81.2812,58.7432L81.2812,56.11816ZM99,53.86816Q99.4629,53.86816,99.791,54.19629Q100.125,54.52441,100.125,54.9873Q100.125,55.4502,99.8027,55.78418Q99.4805,56.11816,99,56.11816Q98.5195,56.11816,98.1973,55.78418Q97.875,55.4502,97.875,54.9873Q97.875,54.52441,98.2031,54.19629Q98.5371,53.86816,99,53.86816ZM99,62.4932Q99.4629,62.4932,99.791,62.8213Q100.125,63.1494,100.125,63.6182Q100.125,64.0986,99.791,64.4209Q99.4629,64.7432,99,64.7432Q98.5371,64.7432,98.2031,64.4209Q97.875,64.0986,97.875,63.6182Q97.875,63.1494,98.2031,62.8213Q98.5371,62.4932,99,62.4932ZM117,58.4268Q117,59.2646,116.877,60.0322Q116.76,60.7939,116.49,61.4502Q116.227,62.1064,115.799,62.6455Q115.371,63.1846,114.756,63.5713Q114.141,63.9521,113.32,64.1631Q112.506,64.3682,111.463,64.3682L109.125,64.3682L109.125,52.74316L111.938,52.74316Q114.486,52.74316,115.74,54.14355Q117,55.54395,117,58.4268ZM115.5,58.5615Q115.5,57.36621,115.277,56.54004Q115.061,55.71387,114.615,55.20996Q114.17,54.7002,113.496,54.47168Q112.822,54.24316,111.914,54.24316L110.625,54.24316L110.625,62.8682L111.744,62.8682Q115.5,62.8682,115.5,58.5615ZM126.275,63.7529Q124.893,64.3682,123.381,64.3682Q120.949,64.3682,119.725,62.9326Q118.5,61.4971,118.5,58.6787Q118.5,57.31934,118.822,56.21777Q119.15,55.11621,119.771,54.34863Q120.393,53.5752,121.342,53.15918Q122.291,52.74316,123.469,52.74316Q124.271,52.74316,124.957,52.88965Q125.643,53.03613,126.275,53.34082L126.275,54.94629Q125.648,54.60645,124.98,54.4248Q124.312,54.24316,123.521,54.24316Q122.713,54.24316,122.057,54.53613Q121.406,54.82324,120.949,55.37988Q120.492,55.93066,120.246,56.72754Q120,57.52441,120,58.5498Q120,60.6885,120.902,61.7783Q121.811,62.8682,123.557,62.8682Q124.295,62.8682,124.969,62.6982Q125.648,62.5283,126.275,62.2178L126.275,63.7529ZM131.625,54.24316L128.977,54.24316L128.977,52.74316L135.768,52.74316L135.768,54.24316L133.125,54.24316L133.125,62.8682L135.768,62.8682L135.768,64.3682L128.977,64.3682L128.977,62.8682L131.625,62.8682L131.625,54.24316ZM146.25,58.4268Q146.25,59.2646,146.127,60.0322Q146.01,60.7939,145.74,61.4502Q145.477,62.1064,145.049,62.6455Q144.621,63.1846,144.006,63.5713Q143.391,63.9521,142.57,64.1631Q141.756,64.3682,140.713,64.3682L138.375,64.3682L138.375,52.74316L141.188,52.74316Q143.736,52.74316,144.99,54.14355Q146.25,55.54395,146.25,58.4268ZM144.75,58.5615Q144.75,57.36621,144.527,56.54004Q144.311,55.71387,143.865,55.20996Q143.42,54.7002,142.746,54.47168Q142.072,54.24316,141.164,54.24316L139.875,54.24316L139.875,62.8682L140.994,62.8682Q144.75,62.8682,144.75,58.5615ZM155.73,58.7432L148.172,58.7432L148.172,57.24316L155.73,57.24316L155.73,58.7432ZM155.73,62.1182L148.172,62.1182L148.172,60.6182L155.73,60.6182L155.73,62.1182ZM165.375,61.1514Q165.375,61.9541,165.047,62.5635Q164.719,63.167,164.133,63.5713Q163.547,63.9697,162.721,64.16890000000001Q161.9,64.3682,160.91,64.3682Q160.459,64.3682,160.014,64.333Q159.568,64.292,159.158,64.2334Q158.754,64.1748,158.391,64.0986Q158.027,64.02250000000001,157.734,63.9404L157.734,62.3408Q158.391,62.5869,159.211,62.7275Q160.031,62.8682,161.074,62.8682Q161.83,62.8682,162.357,62.7568Q162.891,62.6455,163.23,62.4287Q163.57,62.2119,163.723,61.9014Q163.875,61.5908,163.875,61.1924Q163.875,60.7588,163.617,60.4541Q163.359,60.1494,162.938,59.9092Q162.516,59.6631,161.977,59.4639Q161.438,59.2646,160.875,59.0361Q160.312,58.8076,159.773,58.5439Q159.234,58.2744,158.812,57.91113Q158.391,57.54785,158.133,57.06152Q157.875,56.56934,157.875,55.89551Q157.875,55.30957,158.115,54.74121Q158.355,54.17285,158.859,53.7334Q159.369,53.28809,160.166,53.01855Q160.963,52.74316,162.064,52.74316Q162.346,52.74316,162.68,52.77246Q163.014,52.80176,163.354,52.85449Q163.693,52.90723,164.021,52.97754Q164.355,53.04785,164.637,53.12402L164.637,54.6416Q163.963,54.44824,163.283,54.34863Q162.609,54.24316,161.982,54.24316Q160.641,54.24316,160.008,54.66504Q159.375,55.08691,159.375,55.7959Q159.375,56.23535,159.633,56.55176Q159.891,56.8623,160.312,57.11426Q160.734,57.36035,161.273,57.56543Q161.812,57.76465,162.375,57.99316Q162.938,58.2158,163.477,58.4854Q164.016,58.749,164.438,59.1182Q164.859,59.4873,165.117,59.9795Q165.375,60.4717,165.375,61.1514ZM175.066,64.3682L168.047,64.3682L168.047,62.8682L171,62.8682L171,54.24316L168.252,56.11816L167.689,54.61816L171.305,52.74316L172.5,52.74316L172.5,62.8682L175.066,62.8682L175.066,64.3682ZM181.682,65.5869L180.627,66.6182Q179.145,64.99510000000001,177.369,63.5244L178.301,62.4932Q180.486,64.32130000000001,181.682,65.5869ZM202.875,61.1514Q202.875,61.9541,202.547,62.5635Q202.219,63.167,201.633,63.5713Q201.047,63.9697,200.221,64.16890000000001Q199.4,64.3682,198.41,64.3682Q197.959,64.3682,197.514,64.333Q197.068,64.292,196.658,64.2334Q196.254,64.1748,195.891,64.0986Q195.527,64.02250000000001,195.234,63.9404L195.234,62.3408Q195.891,62.5869,196.711,62.7275Q197.531,62.8682,198.574,62.8682Q199.33,62.8682,199.857,62.7568Q200.391,62.6455,200.73,62.4287Q201.07,62.2119,201.223,61.9014Q201.375,61.5908,201.375,61.1924Q201.375,60.7588,201.117,60.4541Q200.859,60.1494,200.438,59.9092Q200.016,59.6631,199.477,59.4639Q198.938,59.2646,198.375,59.0361Q197.812,58.8076,197.273,58.5439Q196.734,58.2744,196.312,57.91113Q195.891,57.54785,195.633,57.06152Q195.375,56.56934,195.375,55.89551Q195.375,55.30957,195.615,54.74121Q195.855,54.17285,196.359,53.7334Q196.869,53.28809,197.666,53.01855Q198.463,52.74316,199.564,52.74316Q199.846,52.74316,200.18,52.77246Q200.514,52.80176,200.854,52.85449Q201.193,52.90723,201.521,52.97754Q201.855,53.04785,202.137,53.12402L202.137,54.6416Q201.463,54.44824,200.783,54.34863Q200.109,54.24316,199.482,54.24316Q198.141,54.24316,197.508,54.66504Q196.875,55.08691,196.875,55.7959Q196.875,56.23535,197.133,56.55176Q197.391,56.8623,197.812,57.11426Q198.234,57.36035,198.773,57.56543Q199.312,57.76465,199.875,57.99316Q200.438,58.2158,200.977,58.4854Q201.516,58.749,201.938,59.1182Q202.359,59.4873,202.617,59.9795Q202.875,60.4717,202.875,61.1514ZM212.525,63.7529Q211.143,64.3682,209.631,64.3682Q207.199,64.3682,205.975,62.9326Q204.75,61.4971,204.75,58.6787Q204.75,57.31934,205.072,56.21777Q205.4,55.11621,206.021,54.34863Q206.643,53.5752,207.592,53.15918Q208.541,52.74316,209.719,52.74316Q210.521,52.74316,211.207,52.88965Q211.893,53.03613,212.525,53.34082L212.525,54.94629Q211.898,54.60645,211.23,54.4248Q210.562,54.24316,209.771,54.24316Q208.963,54.24316,208.307,54.53613Q207.656,54.82324,207.199,55.37988Q206.742,55.93066,206.496,56.72754Q206.25,57.52441,206.25,58.5498Q206.25,60.6885,207.152,61.7783Q208.061,62.8682,209.807,62.8682Q210.545,62.8682,211.219,62.6982Q211.898,62.5283,212.525,62.2178L212.525,63.7529ZM217.875,54.24316L215.227,54.24316L215.227,52.74316L222.018,52.74316L222.018,54.24316L219.375,54.24316L219.375,62.8682L222.018,62.8682L222.018,64.3682L215.227,64.3682L215.227,62.8682L217.875,62.8682L217.875,54.24316ZM232.5,58.4268Q232.5,59.2646,232.377,60.0322Q232.26,60.7939,231.99,61.4502Q231.727,62.1064,231.299,62.6455Q230.871,63.1846,230.256,63.5713Q229.641,63.9521,228.82,64.1631Q228.006,64.3682,226.963,64.3682L224.625,64.3682L224.625,52.74316L227.438,52.74316Q229.986,52.74316,231.24,54.14355Q232.5,55.54395,232.5,58.4268ZM231,58.5615Q231,57.36621,230.777,56.54004Q230.561,55.71387,230.115,55.20996Q229.67,54.7002,228.996,54.47168Q228.322,54.24316,227.414,54.24316L226.125,54.24316L226.125,62.8682L227.244,62.8682Q231,62.8682,231,58.5615ZM241.98,58.7432L234.422,58.7432L234.422,57.24316L241.98,57.24316L241.98,58.7432ZM241.98,62.1182L234.422,62.1182L234.422,60.6182L241.98,60.6182L241.98,62.1182ZM251.525,63.7529Q250.143,64.3682,248.631,64.3682Q246.199,64.3682,244.975,62.9326Q243.75,61.4971,243.75,58.6787Q243.75,57.31934,244.072,56.21777Q244.4,55.11621,245.021,54.34863Q245.643,53.5752,246.592,53.15918Q247.541,52.74316,248.719,52.74316Q249.521,52.74316,250.207,52.88965Q250.893,53.03613,251.525,53.34082L251.525,54.94629Q250.898,54.60645,250.23,54.4248Q249.562,54.24316,248.771,54.24316Q247.963,54.24316,247.307,54.53613Q246.656,54.82324,246.199,55.37988Q245.742,55.93066,245.496,56.72754Q245.25,57.52441,245.25,58.5498Q245.25,60.6885,246.152,61.7783Q247.061,62.8682,248.807,62.8682Q249.545,62.8682,250.219,62.6982Q250.898,62.5283,251.525,62.2178L251.525,63.7529ZM261.316,64.3682L254.297,64.3682L254.297,62.8682L257.25,62.8682L257.25,54.24316L254.502,56.11816L253.939,54.61816L257.555,52.74316L258.75,52.74316L258.75,62.8682L261.316,62.8682L261.316,64.3682Z" fill="#DDDDDD" fill-opacity="1"/></g><g style="mix-blend-mode:passthrough"><path d="M8.56641,136.3682L1.54688,136.3682L1.54688,134.8682L4.5,134.8682L4.5,126.24316L1.75195,128.11816L1.18945,126.61816L4.80469,124.74316L6,124.74316L6,134.8682L8.56641,134.8682L8.56641,136.3682ZM17.3262,132.2432L12.0703,132.2432L12.0703,130.7432L17.3262,130.7432L17.3262,132.2432ZM28.623,136.3682L26.8652,136.3682L25.166,132.86430000000001Q24.9785,132.4658,24.7793,132.2021Q24.5801,131.9385,24.3457,131.7861Q24.1172,131.6279,23.8418,131.5635Q23.5664,131.4932,23.2324,131.4932L22.5,131.4932L22.5,136.3682L21,136.3682L21,124.74316L24.0234,124.74316Q25.0078,124.74316,25.7109,124.96582Q26.4199,125.18848,26.8711,125.59277Q27.3281,125.99121,27.5391,126.55371Q27.75,127.11621,27.75,127.80176Q27.75,128.34668,27.5918,128.83301Q27.4395,129.31348,27.1289,129.71191Q26.8184,130.1045,26.3613,130.3975Q25.9102,130.6846,25.3184,130.8252Q25.793,130.9951,26.127,131.417Q26.4609,131.8389,26.8125,132.542L28.623,136.3682ZM26.25,128.05957Q26.25,127.14551,25.6582,126.69434Q25.0723,126.24316,24.0059,126.24316L22.5,126.24316L22.5,129.99316L23.7891,129.99316Q24.3574,129.99316,24.8086,129.87012Q25.2656,129.74121,25.582,129.49512Q25.8984,129.24902,26.0742,128.8916Q26.25,128.52832,26.25,128.05957ZM38.2734,126.24316L34.875,126.24316L34.875,136.3682L33.375,136.3682L33.375,126.24316L29.9707,126.24316L29.9707,124.74316L38.2734,124.74316L38.2734,126.24316ZM48.0234,126.24316L44.625,126.24316L44.625,136.3682L43.125,136.3682L43.125,126.24316L39.7207,126.24316L39.7207,124.74316L48.0234,124.74316L48.0234,126.24316ZM60.4922,121.36816L61.8984,121.5791Q61.5293,123.27246,61.0371,124.74316L66.416,124.74316L66.416,125.86816L65.3086,125.86816Q64.8691,131.1123,63.0586,134.1943Q64.4824,136.2686,66.6797,137.5869Q66.1172,138.3721,65.7305,138.9932Q63.5859,137.499,62.1621,135.4424Q60.5449,137.4873,58.3125,138.9932Q57.9258,138.5186,57.3105,137.9619Q59.7715,136.3096,61.3008,134.2061Q59.877,131.6631,59.4199,128.33496Q59.0508,129.02051,58.6465,129.61816Q58.2949,129.14941,57.7676,128.58691Q59.8066,125.62207,60.4922,121.36816ZM49.1719,131.4932L51.8438,131.4932Q52.2305,130.76069999999999,52.5996,129.99316L53.8652,130.3975Q53.584,130.9541,53.3027,131.4932L57.6094,131.4932L57.6094,132.6006Q56.9414,134.4346,55.5879,135.8174Q56.5547,136.3271,57.5566,136.8369L56.7832,137.8682Q55.6934,137.2354,54.5156,136.6025Q52.5293,138.11430000000001,49.5059,138.9932Q49.2246,138.4775,48.9082,137.8682Q51.4746,137.2002,53.25,135.9463Q51.7383,135.1553,50.0859,134.3291Q50.6484,133.4971,51.1758,132.6182L49.1719,132.6182L49.1719,131.4932ZM49.3652,125.49316L53.4082,125.49316L53.4082,121.36816L54.709,121.36816L54.709,125.49316L58.084,125.49316L58.084,126.61816L54.709,126.61816L54.709,127.50293L55.2363,126.89941Q56.8711,128.06543,57.9785,128.96191L57.1348,129.99316Q56.168,129.0791,54.709,127.93652L54.709,129.99316L53.4082,129.99316L53.4082,127.47949Q51.8086,129.12012,49.6816,130.3682Q49.3477,129.87598,48.9258,129.33691Q51.1406,128.22363,52.9863,126.61816L49.3652,126.61816L49.3652,125.49316ZM63.9023,125.86816L60.6152,125.86816Q60.5273,126.10254,60.4219,126.31934Q60.7383,130.1455,62.1797,132.8701Q63.5859,130.2334,63.9023,125.86816ZM51.8086,133.8838Q53.0566,134.54,54.375,135.2549Q55.5879,134.13569999999999,56.2734,132.6182L52.6172,132.6182Q52.2129,133.2686,51.8086,133.8838ZM57.293,122.11816L58.3828,122.83887Q57.416,123.87012,56.4492,124.74316Q56.0449,124.3916,55.5,124.00488Q56.4141,123.13184,57.293,122.11816ZM49.8223,122.80371L50.8242,122.11816Q51.6152,122.97949,52.459,123.96973L51.3691,124.74316Q50.5957,123.71777,49.8223,122.80371ZM74.9062,132.6182L78.5273,132.6182L78.5273,130.3682L74.4316,130.3682Q74.2383,135.7061,71.9355,138.6182Q71.5137,138.1084,70.9863,137.5869Q73.1836,134.8916,73.1836,129.31348L73.1836,122.49316L83.5547,122.49316L83.5547,127.36816L82.2891,127.36816L82.2891,126.99316L74.4492,126.99316L74.4492,129.24316L78.5273,129.24316L78.5273,127.36816L79.793,127.36816L79.793,129.24316L84.4336,129.24316L84.4336,130.3682L79.793,130.3682L79.793,132.6182L83.4492,132.6182L83.4492,138.6182L82.1836,138.6182L82.1836,137.4932L76.1719,137.4932L76.1719,138.6182L74.9062,138.6182L74.9062,132.6182ZM67.0312,130.7432Q68.2793,130.42680000000001,69.457,130.1045L69.457,125.86816L67.2422,125.86816L67.2422,124.74316L69.457,124.74316L69.457,121.36816L70.7578,121.36816L70.7578,124.74316L72.6738,124.74316L72.6738,125.86816L70.7578,125.86816L70.7578,129.7002Q71.5957,129.47754,72.3926,129.24316Q72.4102,130.1104,72.498,130.7432Q71.5957,130.98930000000001,70.7578,131.2236L70.7578,136.5791Q70.7578,138.583,69.0176,138.6182Q68.4727,138.63569999999999,67.4004,138.6006Q67.3301,137.833,67.1895,137.0127Q68.1562,137.1182,68.666,137.1182Q69.457,137.1182,69.457,136.2334L69.457,131.6514Q68.2559,131.9619,67.207,132.2432L67.0312,130.7432ZM82.2891,123.61816L74.4492,123.61816L74.4492,125.86816L82.2891,125.86816L82.2891,123.61816ZM82.1836,133.7432L76.1719,133.7432L76.1719,136.3682L82.1836,136.3682L82.1836,133.7432ZM89.4258,121.36816L90.8672,121.75488Q90.4805,122.71582,90.0586,123.61816L100.184,123.61816Q100.113,129.91699,99.9023,132.3311Q99.6914,135.26069999999999,97.002,135.2432Q96.2988,135.2432,94.5059,135.2432Q94.4004,134.5576,94.2246,133.7432Q95.6836,133.7432,96.8086,133.7432Q98.4082,133.76069999999999,98.5312,132.0967Q98.7246,129.94043,98.7773,125.11816L89.4082,125.11816Q88.793,126.09668,88.0898,126.99316L95.4023,126.99316L95.4023,131.8682L89.0391,131.8682L89.0391,135.30180000000001Q89.0391,136.7432,90.498,136.7432L98.6895,136.7432Q100.359,136.7432,100.641,135.6416Q100.904,134.6514,101.062,132.9932Q101.818,133.292,102.469,133.5029Q102.258,135.1494,102.012,136.1865Q101.572,138.2432,99.0234,138.2432L90.1992,138.2432Q87.6328,138.2432,87.6328,135.7295L87.6328,127.67871Q86.7715,128.89746,85.8047,129.99316Q85.4004,129.40137,84.9258,128.96191Q87.9844,125.49316,89.4258,121.36816ZM94.0312,128.11816L89.0391,128.11816L89.0391,130.7432L94.0312,130.7432L94.0312,128.11816ZM111.75,125.86816Q112.213,125.86816,112.541,126.19629Q112.875,126.52441,112.875,126.9873Q112.875,127.4502,112.553,127.78418Q112.23,128.11816,111.75,128.11816Q111.27,128.11816,110.947,127.78418Q110.625,127.4502,110.625,126.9873Q110.625,126.52441,110.953,126.19629Q111.287,125.86816,111.75,125.86816ZM111.75,134.4932Q112.213,134.4932,112.541,134.8213Q112.875,135.1494,112.875,135.6182Q112.875,136.0986,112.541,136.4209Q112.213,136.7432,111.75,136.7432Q111.287,136.7432,110.953,136.4209Q110.625,136.0986,110.625,135.6182Q110.625,135.1494,110.953,134.8213Q111.287,134.4932,111.75,134.4932ZM129.75,130.42680000000001Q129.75,131.2646,129.627,132.0322Q129.51,132.7939,129.24,133.4502Q128.977,134.1064,128.549,134.6455Q128.121,135.1846,127.506,135.5713Q126.891,135.9521,126.07,136.1631Q125.256,136.3682,124.213,136.3682L121.875,136.3682L121.875,124.74316L124.688,124.74316Q127.236,124.74316,128.49,126.14355Q129.75,127.54395,129.75,130.42680000000001ZM128.25,130.5615Q128.25,129.36621,128.027,128.54004Q127.811,127.71387,127.365,127.20996Q126.92,126.7002,126.246,126.47168Q125.572,126.24316,124.664,126.24316L123.375,126.24316L123.375,134.8682L124.494,134.8682Q128.25,134.8682,128.25,130.5615ZM139.025,135.7529Q137.643,136.3682,136.131,136.3682Q133.699,136.3682,132.475,134.9326Q131.25,133.4971,131.25,130.6787Q131.25,129.31934,131.572,128.21777Q131.9,127.11621,132.521,126.34863Q133.143,125.5752,134.092,125.15918Q135.041,124.74316,136.219,124.74316Q137.021,124.74316,137.707,124.88965Q138.393,125.03613,139.025,125.34082L139.025,126.94629Q138.398,126.60645,137.73,126.4248Q137.062,126.24316,136.271,126.24316Q135.463,126.24316,134.807,126.53613Q134.156,126.82324,133.699,127.37988Q133.242,127.93066,132.996,128.72754Q132.75,129.52441,132.75,130.5498Q132.75,132.6885,133.652,133.7783Q134.561,134.8682,136.307,134.8682Q137.045,134.8682,137.719,134.69819999999999Q138.398,134.5283,139.025,134.2178L139.025,135.7529ZM144.375,126.24316L141.727,126.24316L141.727,124.74316L148.518,124.74316L148.518,126.24316L145.875,126.24316L145.875,134.8682L148.518,134.8682L148.518,136.3682L141.727,136.3682L141.727,134.8682L144.375,134.8682L144.375,126.24316ZM159,130.42680000000001Q159,131.2646,158.877,132.0322Q158.76,132.7939,158.49,133.4502Q158.227,134.1064,157.799,134.6455Q157.371,135.1846,156.756,135.5713Q156.141,135.9521,155.32,136.1631Q154.506,136.3682,153.463,136.3682L151.125,136.3682L151.125,124.74316L153.938,124.74316Q156.486,124.74316,157.74,126.14355Q159,127.54395,159,130.42680000000001ZM157.5,130.5615Q157.5,129.36621,157.277,128.54004Q157.061,127.71387,156.615,127.20996Q156.17,126.7002,155.496,126.47168Q154.822,126.24316,153.914,126.24316L152.625,126.24316L152.625,134.8682L153.744,134.8682Q157.5,134.8682,157.5,130.5615ZM168.48,130.7432L160.922,130.7432L160.922,129.24316L168.48,129.24316L168.48,130.7432ZM168.48,134.1182L160.922,134.1182L160.922,132.6182L168.48,132.6182L168.48,134.1182ZM178.125,133.1514Q178.125,133.9541,177.797,134.5635Q177.469,135.167,176.883,135.5713Q176.297,135.9697,175.471,136.1689Q174.65,136.3682,173.66,136.3682Q173.209,136.3682,172.764,136.333Q172.318,136.292,171.908,136.2334Q171.504,136.1748,171.141,136.0986Q170.777,136.0225,170.484,135.9404L170.484,134.3408Q171.141,134.5869,171.961,134.7275Q172.781,134.8682,173.824,134.8682Q174.58,134.8682,175.107,134.7568Q175.641,134.6455,175.98,134.4287Q176.32,134.2119,176.473,133.9014Q176.625,133.5908,176.625,133.1924Q176.625,132.7588,176.367,132.4541Q176.109,132.1494,175.688,131.9092Q175.266,131.6631,174.727,131.4639Q174.188,131.2646,173.625,131.0361Q173.062,130.8076,172.523,130.5439Q171.984,130.2744,171.562,129.91113Q171.141,129.54785,170.883,129.06152Q170.625,128.56934,170.625,127.89551Q170.625,127.30957,170.865,126.74121Q171.105,126.17285,171.609,125.7334Q172.119,125.28809,172.916,125.01855Q173.713,124.74316,174.814,124.74316Q175.096,124.74316,175.43,124.77246Q175.764,124.80176,176.104,124.85449Q176.443,124.90723,176.771,124.97754Q177.105,125.04785,177.387,125.12402L177.387,126.6416Q176.713,126.44824,176.033,126.34863Q175.359,126.24316,174.732,126.24316Q173.391,126.24316,172.758,126.66504Q172.125,127.08691,172.125,127.7959Q172.125,128.23535,172.383,128.55176Q172.641,128.8623,173.062,129.11426Q173.484,129.36035,174.023,129.56543Q174.562,129.76465,175.125,129.99316Q175.688,130.2158,176.227,130.4854Q176.766,130.749,177.188,131.1182Q177.609,131.4873,177.867,131.9795Q178.125,132.4717,178.125,133.1514ZM187.875,132.7764Q187.875,133.5205,187.57,134.17680000000001Q187.271,134.8271,186.668,135.3193Q186.064,135.8057,185.15,136.0869Q184.236,136.3682,183.023,136.3682Q182.35,136.3682,181.811,136.3213Q181.277,136.2686,180.814,136.1865L180.814,134.6689Q181.354,134.7627,181.957,134.8154Q182.561,134.8682,183.188,134.8682Q184.043,134.8682,184.646,134.7275Q185.256,134.5869,185.637,134.32319999999999Q186.023,134.0596,186.199,133.6846Q186.375,133.3096,186.375,132.835Q186.375,132.4072,186.094,132.0908Q185.812,131.7686,185.402,131.55180000000001Q184.998,131.335,184.465,131.2295Q183.938,131.1182,183.305,131.1182L181.992,131.1182L181.992,129.61816L183.322,129.61816Q183.838,129.61816,184.266,129.49512Q184.693,129.37207,184.992,129.14941Q185.297,128.9209,185.461,128.58691Q185.625,128.24707,185.625,127.8252Q185.625,126.99902,185.086,126.62402Q184.553,126.24316,183.516,126.24316Q182.965,126.24316,182.379,126.36035Q181.793,126.47168,181.125,126.7002L181.125,125.24707Q181.406,125.12988,181.729,125.03613Q182.051,124.94238,182.367,124.87793Q182.689,124.81348,183.006,124.77832Q183.322,124.74316,183.615,124.74316Q184.477,124.74316,185.133,124.93652Q185.795,125.12988,186.234,125.49902Q186.674,125.8623,186.896,126.38379Q187.125,126.89941,187.125,127.5498Q187.125,128.5166,186.621,129.17871Q186.117,129.83496,185.238,130.2217Q185.684,130.292,186.117,130.5029Q186.557,130.708,186.92,131.0361Q187.289,131.3584,187.582,131.7979Q187.875,132.2373,187.875,132.7764Z" fill="#DDDDDD" fill-opacity="1"/></g><g style="mix-blend-mode:passthrough"><path d="M384.56641,74.86816L394.3398,74.86816Q394.0762,84.1318,393.9355,86.9678Q393.8652,90.2783,391.123,90.2432Q390.2266,90.2432,388.5391,90.1904Q388.416,89.4346,388.2578,88.7432Q389.9453,88.7432,390.9648,88.7432Q392.4062,88.7959,392.4766,86.8857Q392.6523,84.1377,392.8457,76.36816L388.8555,76.36816Q388.75,79.7373,388.5918,81.82324Q388.2051,87.19630000000001,383.82812,90.6182Q383.37109,90.0732,382.70312,89.4932Q386.78125,86.3877,387.1152,81.71777Q387.3203,79.41504,387.373,76.36816L384.56641,76.36816L384.56641,74.86816ZM377.921875,77.86816L377.921875,76.74316L383.74023,76.74316L383.74023,77.90332Q382.76758,79.59668,381.66602,81.0498L381.66602,81.52441Q382.08789,81.84667999999999,382.52148,82.1748Q383.38867,81.00879,384.14453,79.74316L385.30469,80.48145Q384.54883,81.57715,383.52344,82.8955Q384.40234,83.5635,385.28711,84.25489999999999L384.39062,85.3682Q383.04883,84.2256,381.66602,83.10640000000001L381.66602,90.6182L380.33008,90.6182L380.33008,82.6494Q379.29297,83.9209,378.15039,84.9932Q377.957031,84.3135,377.675781,83.4932Q380.20703,81.40723,382.17578,77.86816L377.921875,77.86816ZM379.5918,73.9834L380.82227,73.36816Q381.47266,74.37012,382.19336,75.7002L380.89258,76.36816Q380.24219,75.00293,379.5918,73.9834ZM403.4805,82.7432L411.9531,82.7432L411.9531,90.6182L410.6172,90.6182L410.6172,89.4932L404.8164,89.4932L404.8164,90.6182L403.4805,90.6182L403.4805,82.7432ZM402.918,88.0869L401.8809,89.1182Q400.9258,88.1221,399.9648,87.1846Q398.6641,89.001,396.5723,90.6182Q396.2031,90.126,395.7637,89.5869Q397.7793,88.1045,398.998,86.2705Q397.7441,85.08109999999999,396.4844,83.9736Q397.1113,81.58301,397.6211,78.61816L395.8164,78.61816L395.8164,77.11816L397.8496,77.11816Q398.1309,75.34277,398.3828,73.36816L399.8066,73.5791Q399.5195,75.48926,399.2266,77.11816L402.4961,77.11816L402.4961,78.47754Q402.0859,83.3994,400.7383,86.0361Q401.9336,87.1084,402.918,88.0869ZM410.1953,75.61816Q411.9883,78.55371,413.2891,81.34277L411.9004,81.99316Q411.5312,81.04395,411.1387,80.11816Q408.3613,80.27051,404.5,80.59863Q404.0078,80.64551,403.252,80.86816L402.6016,79.83691Q403.2168,79.46777,403.6562,78.85254Q405.0801,76.71973,406.5391,73.36816L408.0156,73.84277Q406.416,76.88379,404.834,79.3623Q408.3496,79.11035,410.5469,78.99316Q409.8379,77.56348,409.0527,76.18066L410.1953,75.61816ZM410.6172,83.8682L404.8164,83.8682L404.8164,88.3682L410.6172,88.3682L410.6172,83.8682ZM401.1426,78.61816L398.9922,78.61816Q398.4355,81.61816,397.8906,83.6045Q398.8516,84.4014,399.7129,85.1455Q400.9082,82.6143,401.1426,78.61816ZM425.2422,73.36816L426.6484,73.5791Q426.2793,75.27246,425.7871,76.74316L431.166,76.74316L431.166,77.86816L430.0586,77.86816Q429.6191,83.1123,427.8086,86.1943Q429.2324,88.26859999999999,431.4297,89.5869Q430.8672,90.3721,430.4805,90.9932Q428.3359,89.499,426.9121,87.44239999999999Q425.2949,89.4873,423.0625,90.9932Q422.6758,90.51859999999999,422.0605,89.9619Q424.5215,88.3096,426.0508,86.20609999999999Q424.627,83.6631,424.1699,80.33496Q423.8008,81.02051,423.3965,81.61816Q423.0449,81.14941,422.5176,80.58691Q424.5566,77.62207,425.2422,73.36816ZM413.9219,83.4932L416.5938,83.4932Q416.9805,82.7607,417.3496,81.99316L418.6152,82.39750000000001Q418.334,82.9541,418.0527,83.4932L422.3594,83.4932L422.3594,84.6006Q421.6914,86.4346,420.3379,87.81739999999999Q421.3047,88.3271,422.3066,88.8369L421.5332,89.8682Q420.4434,89.2354,419.2656,88.60249999999999Q417.2793,90.1143,414.2559,90.9932Q413.9746,90.47749999999999,413.6582,89.8682Q416.2246,89.2002,418,87.94630000000001Q416.4883,87.1553,414.8359,86.3291Q415.3984,85.4971,415.9258,84.6182L413.9219,84.6182L413.9219,83.4932ZM414.1152,77.49316L418.1582,77.49316L418.1582,73.36816L419.459,73.36816L419.459,77.49316L422.834,77.49316L422.834,78.61816L419.459,78.61816L419.459,79.50293L419.9863,78.89941Q421.6211,80.06542999999999,422.7285,80.96191L421.8848,81.99316Q420.918,81.0791,419.459,79.93652L419.459,81.99316L418.1582,81.99316L418.1582,79.47949Q416.5586,81.12012,414.4316,82.3682Q414.09770000000003,81.87598,413.6758,81.33691Q415.8906,80.22363,417.7363,78.61816L414.1152,78.61816L414.1152,77.49316ZM428.65229999999997,77.86816L425.3652,77.86816Q425.27729999999997,78.10254,425.1719,78.31934Q425.4883,82.1455,426.9297,84.87010000000001Q428.3359,82.2334,428.65229999999997,77.86816ZM416.5586,85.88380000000001Q417.8066,86.53999999999999,419.125,87.25489999999999Q420.3379,86.1357,421.0234,84.6182L417.3672,84.6182Q416.9629,85.26859999999999,416.5586,85.88380000000001ZM422.043,74.11816L423.1328,74.83887Q422.166,75.87012,421.1992,76.74316Q420.7949,76.3916,420.25,76.00488Q421.1641,75.13184,422.043,74.11816ZM414.5723,74.80371L415.5742,74.11816Q416.3652,74.97949,417.209,75.96973L416.1191,76.74316Q415.3457,75.71777,414.5723,74.80371ZM439.6562,84.6182L443.27729999999997,84.6182L443.27729999999997,82.3682L439.1816,82.3682Q438.9883,87.70609999999999,436.6855,90.6182Q436.2637,90.1084,435.7363,89.5869Q437.9336,86.8916,437.9336,81.31348L437.9336,74.49316L448.3047,74.49316L448.3047,79.36816L447.0391,79.36816L447.0391,78.99316L439.1992,78.99316L439.1992,81.24316L443.27729999999997,81.24316L443.27729999999997,79.36816L444.543,79.36816L444.543,81.24316L449.1836,81.24316L449.1836,82.3682L444.543,82.3682L444.543,84.6182L448.1992,84.6182L448.1992,90.6182L446.9336,90.6182L446.9336,89.4932L440.9219,89.4932L440.9219,90.6182L439.6562,90.6182L439.6562,84.6182ZM431.7812,82.7432Q433.0293,82.4268,434.207,82.1045L434.207,77.86816L431.9922,77.86816L431.9922,76.74316L434.207,76.74316L434.207,73.36816L435.5078,73.36816L435.5078,76.74316L437.4238,76.74316L437.4238,77.86816L435.5078,77.86816L435.5078,81.7002Q436.3457,81.47754,437.1426,81.24316Q437.16020000000003,82.1104,437.248,82.7432Q436.3457,82.9893,435.5078,83.2236L435.5078,88.5791Q435.5078,90.583,433.7676,90.6182Q433.22270000000003,90.6357,432.1504,90.6006Q432.0801,89.833,431.9395,89.0127Q432.9062,89.1182,433.416,89.1182Q434.207,89.1182,434.207,88.2334L434.207,83.6514Q433.0059,83.9619,431.957,84.2432L431.7812,82.7432ZM447.0391,75.61816L439.1992,75.61816L439.1992,77.86816L447.0391,77.86816L447.0391,75.61816ZM446.9336,85.7432L440.9219,85.7432L440.9219,88.3682L446.9336,88.3682L446.9336,85.7432ZM454.1758,73.36816L455.6172,73.75488Q455.2305,74.71582,454.8086,75.61816L464.9336,75.61816Q464.8633,81.91699,464.65229999999997,84.33109999999999Q464.4414,87.2607,461.752,87.2432Q461.0488,87.2432,459.2559,87.2432Q459.1504,86.55760000000001,458.9746,85.7432Q460.4336,85.7432,461.5586,85.7432Q463.15819999999997,85.7607,463.2812,84.0967Q463.4746,81.94042999999999,463.52729999999997,77.11816L454.15819999999997,77.11816Q453.543,78.09668,452.83979999999997,78.99316L460.15229999999997,78.99316L460.15229999999997,83.8682L453.7891,83.8682L453.7891,87.3018Q453.7891,88.7432,455.248,88.7432L463.4395,88.7432Q465.1094,88.7432,465.3906,87.6416Q465.65430000000003,86.6514,465.8125,84.9932Q466.5684,85.292,467.2188,85.5029Q467.0078,87.1494,466.7617,88.1865Q466.3223,90.2432,463.7734,90.2432L454.9492,90.2432Q452.3828,90.2432,452.3828,87.7295L452.3828,79.67871Q451.5215,80.89746,450.5547,81.99316Q450.1504,81.40137,449.6758,80.96191Q452.7344,77.49316,454.1758,73.36816ZM458.7812,80.11816L453.7891,80.11816L453.7891,82.7432L458.7812,82.7432L458.7812,80.11816ZM476.5,77.86816Q476.9629,77.86816,477.291,78.19629Q477.625,78.52441,477.625,78.9873Q477.625,79.4502,477.303,79.78418Q476.9805,80.11816,476.5,80.11816Q476.0195,80.11816,475.6973,79.78418Q475.375,79.4502,475.375,78.9873Q475.375,78.52441,475.7031,78.19629Q476.0371,77.86816,476.5,77.86816ZM476.5,86.4932Q476.9629,86.4932,477.291,86.82130000000001Q477.625,87.1494,477.625,87.6182Q477.625,88.0986,477.291,88.4209Q476.9629,88.7432,476.5,88.7432Q476.0371,88.7432,475.7031,88.4209Q475.375,88.0986,475.375,87.6182Q475.375,87.1494,475.7031,86.82130000000001Q476.0371,86.4932,476.5,86.4932ZM494.5,82.4268Q494.5,83.2646,494.377,84.0322Q494.26,84.79390000000001,493.99,85.4502Q493.727,86.10640000000001,493.299,86.6455Q492.871,87.1846,492.256,87.57130000000001Q491.641,87.9521,490.82,88.1631Q490.006,88.3682,488.96299999999997,88.3682L486.625,88.3682L486.625,76.74316L489.438,76.74316Q491.986,76.74316,493.24,78.14355Q494.5,79.54395,494.5,82.4268ZM493,82.5615Q493,81.36621,492.777,80.54004Q492.56100000000004,79.71387,492.115,79.20996Q491.67,78.7002,490.996,78.47168Q490.322,78.24316,489.414,78.24316L488.125,78.24316L488.125,86.8682L489.244,86.8682Q493,86.8682,493,82.5615ZM503.775,87.7529Q502.39300000000003,88.3682,500.881,88.3682Q498.449,88.3682,497.225,86.93260000000001Q496,85.4971,496,82.67869999999999Q496,81.31934,496.322,80.21777Q496.65,79.11621,497.271,78.34863Q497.89300000000003,77.5752,498.842,77.15918Q499.791,76.74316,500.969,76.74316Q501.771,76.74316,502.457,76.88965Q503.14300000000003,77.03613,503.775,77.34082L503.775,78.94629Q503.148,78.60645,502.48,78.4248Q501.812,78.24316,501.021,78.24316Q500.21299999999997,78.24316,499.557,78.53613Q498.906,78.82324,498.449,79.37988Q497.992,79.93066,497.746,80.72754Q497.5,81.52441,497.5,82.5498Q497.5,84.6885,498.402,85.7783Q499.31100000000004,86.8682,501.057,86.8682Q501.795,86.8682,502.469,86.6982Q503.148,86.5283,503.775,86.2178L503.775,87.7529ZM509.125,78.24316L506.477,78.24316L506.477,76.74316L513.268,76.74316L513.268,78.24316L510.625,78.24316L510.625,86.8682L513.268,86.8682L513.268,88.3682L506.477,88.3682L506.477,86.8682L509.125,86.8682L509.125,78.24316ZM523.75,82.4268Q523.75,83.2646,523.627,84.0322Q523.51,84.79390000000001,523.24,85.4502Q522.977,86.10640000000001,522.549,86.6455Q522.121,87.1846,521.506,87.57130000000001Q520.891,87.9521,520.0699999999999,88.1631Q519.256,88.3682,518.213,88.3682L515.875,88.3682L515.875,76.74316L518.688,76.74316Q521.236,76.74316,522.49,78.14355Q523.75,79.54395,523.75,82.4268ZM522.25,82.5615Q522.25,81.36621,522.027,80.54004Q521.811,79.71387,521.365,79.20996Q520.92,78.7002,520.246,78.47168Q519.572,78.24316,518.664,78.24316L517.375,78.24316L517.375,86.8682L518.494,86.8682Q522.25,86.8682,522.25,82.5615ZM533.23,82.7432L525.672,82.7432L525.672,81.24316L533.23,81.24316L533.23,82.7432ZM533.23,86.1182L525.672,86.1182L525.672,84.6182L533.23,84.6182L533.23,86.1182ZM542.775,87.7529Q541.393,88.3682,539.881,88.3682Q537.4490000000001,88.3682,536.225,86.93260000000001Q535,85.4971,535,82.67869999999999Q535,81.31934,535.322,80.21777Q535.65,79.11621,536.271,78.34863Q536.893,77.5752,537.842,77.15918Q538.7909999999999,76.74316,539.969,76.74316Q540.771,76.74316,541.457,76.88965Q542.143,77.03613,542.775,77.34082L542.775,78.94629Q542.148,78.60645,541.48,78.4248Q540.812,78.24316,540.021,78.24316Q539.213,78.24316,538.557,78.53613Q537.906,78.82324,537.4490000000001,79.37988Q536.992,79.93066,536.746,80.72754Q536.5,81.52441,536.5,82.5498Q536.5,84.6885,537.402,85.7783Q538.311,86.8682,540.057,86.8682Q540.795,86.8682,541.469,86.6982Q542.148,86.5283,542.775,86.2178L542.775,87.7529ZM552.566,88.3682L545.547,88.3682L545.547,86.8682L548.5,86.8682L548.5,78.24316L545.752,80.11816L545.189,78.61816L548.8050000000001,76.74316L550,76.74316L550,86.8682L552.566,86.8682L552.566,88.3682ZM559.182,89.5869L558.127,90.6182Q556.645,88.99510000000001,554.869,87.5244L555.8009999999999,86.4932Q557.986,88.32130000000001,559.182,89.5869ZM580.375,85.1514Q580.375,85.9541,580.047,86.5635Q579.719,87.167,579.133,87.57130000000001Q578.547,87.9697,577.721,88.16890000000001Q576.9,88.3682,575.91,88.3682Q575.4590000000001,88.3682,575.014,88.333Q574.568,88.292,574.158,88.2334Q573.754,88.1748,573.391,88.0986Q573.027,88.02250000000001,572.734,87.9404L572.734,86.3408Q573.391,86.5869,574.211,86.72749999999999Q575.031,86.8682,576.0740000000001,86.8682Q576.83,86.8682,577.357,86.7568Q577.891,86.6455,578.23,86.42869999999999Q578.5699999999999,86.2119,578.723,85.9014Q578.875,85.5908,578.875,85.19239999999999Q578.875,84.75880000000001,578.617,84.4541Q578.359,84.1494,577.938,83.9092Q577.516,83.6631,576.977,83.4639Q576.438,83.2646,575.875,83.0361Q575.312,82.80760000000001,574.773,82.54390000000001Q574.234,82.2744,573.812,81.91113Q573.391,81.54785,573.133,81.06152Q572.875,80.56934,572.875,79.89551Q572.875,79.30957,573.115,78.74121Q573.355,78.17285,573.859,77.7334Q574.369,77.28809,575.1659999999999,77.01855Q575.963,76.74316,577.064,76.74316Q577.346,76.74316,577.6800000000001,76.77246Q578.014,76.80176,578.354,76.85449Q578.693,76.90723,579.021,76.97754Q579.355,77.04785,579.637,77.12402L579.637,78.6416Q578.963,78.44824,578.283,78.34863Q577.609,78.24316,576.982,78.24316Q575.641,78.24316,575.008,78.66504Q574.375,79.08691,574.375,79.7959Q574.375,80.23535,574.633,80.55176Q574.891,80.8623,575.312,81.11426Q575.734,81.36035,576.273,81.56542999999999Q576.812,81.76465,577.375,81.99316Q577.938,82.2158,578.477,82.4854Q579.016,82.749,579.438,83.1182Q579.859,83.4873,580.117,83.9795Q580.375,84.4717,580.375,85.1514ZM590.025,87.7529Q588.643,88.3682,587.131,88.3682Q584.6990000000001,88.3682,583.475,86.93260000000001Q582.25,85.4971,582.25,82.67869999999999Q582.25,81.31934,582.572,80.21777Q582.9,79.11621,583.521,78.34863Q584.143,77.5752,585.092,77.15918Q586.0409999999999,76.74316,587.219,76.74316Q588.021,76.74316,588.707,76.88965Q589.393,77.03613,590.025,77.34082L590.025,78.94629Q589.398,78.60645,588.73,78.4248Q588.062,78.24316,587.271,78.24316Q586.463,78.24316,585.807,78.53613Q585.156,78.82324,584.6990000000001,79.37988Q584.242,79.93066,583.996,80.72754Q583.75,81.52441,583.75,82.5498Q583.75,84.6885,584.652,85.7783Q585.561,86.8682,587.307,86.8682Q588.045,86.8682,588.719,86.6982Q589.398,86.5283,590.025,86.2178L590.025,87.7529ZM595.375,78.24316L592.727,78.24316L592.727,76.74316L599.518,76.74316L599.518,78.24316L596.875,78.24316L596.875,86.8682L599.518,86.8682L599.518,88.3682L592.727,88.3682L592.727,86.8682L595.375,86.8682L595.375,78.24316ZM610,82.4268Q610,83.2646,609.877,84.0322Q609.76,84.79390000000001,609.49,85.4502Q609.227,86.10640000000001,608.799,86.6455Q608.371,87.1846,607.756,87.57130000000001Q607.141,87.9521,606.3199999999999,88.1631Q605.506,88.3682,604.463,88.3682L602.125,88.3682L602.125,76.74316L604.938,76.74316Q607.486,76.74316,608.74,78.14355Q610,79.54395,610,82.4268ZM608.5,82.5615Q608.5,81.36621,608.277,80.54004Q608.061,79.71387,607.615,79.20996Q607.17,78.7002,606.496,78.47168Q605.822,78.24316,604.914,78.24316L603.625,78.24316L603.625,86.8682L604.744,86.8682Q608.5,86.8682,608.5,82.5615ZM619.48,82.7432L611.922,82.7432L611.922,81.24316L619.48,81.24316L619.48,82.7432ZM619.48,86.1182L611.922,86.1182L611.922,84.6182L619.48,84.6182L619.48,86.1182ZM629.125,85.1514Q629.125,85.9541,628.797,86.5635Q628.469,87.167,627.883,87.57130000000001Q627.297,87.9697,626.471,88.16890000000001Q625.65,88.3682,624.66,88.3682Q624.2090000000001,88.3682,623.764,88.333Q623.318,88.292,622.908,88.2334Q622.504,88.1748,622.141,88.0986Q621.777,88.02250000000001,621.484,87.9404L621.484,86.3408Q622.141,86.5869,622.961,86.72749999999999Q623.781,86.8682,624.8240000000001,86.8682Q625.58,86.8682,626.107,86.7568Q626.641,86.6455,626.98,86.42869999999999Q627.3199999999999,86.2119,627.473,85.9014Q627.625,85.5908,627.625,85.19239999999999Q627.625,84.75880000000001,627.367,84.4541Q627.109,84.1494,626.688,83.9092Q626.266,83.6631,625.727,83.4639Q625.188,83.2646,624.625,83.0361Q624.062,82.80760000000001,623.523,82.54390000000001Q622.984,82.2744,622.562,81.91113Q622.141,81.54785,621.883,81.06152Q621.625,80.56934,621.625,79.89551Q621.625,79.30957,621.865,78.74121Q622.105,78.17285,622.609,77.7334Q623.119,77.28809,623.9159999999999,77.01855Q624.713,76.74316,625.814,76.74316Q626.096,76.74316,626.4300000000001,76.77246Q626.764,76.80176,627.104,76.85449Q627.443,76.90723,627.771,76.97754Q628.105,77.04785,628.387,77.12402L628.387,78.6416Q627.713,78.44824,627.033,78.34863Q626.359,78.24316,625.732,78.24316Q624.391,78.24316,623.758,78.66504Q623.125,79.08691,623.125,79.7959Q623.125,80.23535,623.383,80.55176Q623.641,80.8623,624.062,81.11426Q624.484,81.36035,625.023,81.56542999999999Q625.562,81.76465,626.125,81.99316Q626.688,82.2158,627.227,82.4854Q627.766,82.749,628.188,83.1182Q628.609,83.4873,628.867,83.9795Q629.125,84.4717,629.125,85.1514ZM638.875,84.7764Q638.875,85.5205,638.5699999999999,86.1768Q638.271,86.8271,637.668,87.3193Q637.0640000000001,87.8057,636.15,88.0869Q635.236,88.3682,634.023,88.3682Q633.35,88.3682,632.811,88.32130000000001Q632.277,88.26859999999999,631.814,88.1865L631.814,86.66890000000001Q632.354,86.7627,632.957,86.8154Q633.5609999999999,86.8682,634.188,86.8682Q635.043,86.8682,635.646,86.72749999999999Q636.256,86.5869,636.637,86.3232Q637.023,86.0596,637.1990000000001,85.6846Q637.375,85.3096,637.375,84.83500000000001Q637.375,84.4072,637.094,84.0908Q636.812,83.76859999999999,636.402,83.5518Q635.998,83.33500000000001,635.4649999999999,83.2295Q634.938,83.1182,634.3050000000001,83.1182L632.992,83.1182L632.992,81.61816L634.322,81.61816Q634.838,81.61816,635.2660000000001,81.49512Q635.693,81.37207000000001,635.992,81.14941Q636.297,80.9209,636.461,80.58691Q636.625,80.24707000000001,636.625,79.8252Q636.625,78.99902,636.086,78.62402Q635.553,78.24316,634.5160000000001,78.24316Q633.9649999999999,78.24316,633.379,78.36035Q632.793,78.47168,632.125,78.7002L632.125,77.24707Q632.406,77.12988,632.729,77.03613Q633.0509999999999,76.94238,633.367,76.87793Q633.6890000000001,76.81348,634.006,76.77832Q634.322,76.74316,634.615,76.74316Q635.477,76.74316,636.133,76.93652Q636.7950000000001,77.12988,637.2339999999999,77.49902Q637.674,77.8623,637.896,78.38379Q638.125,78.89941,638.125,79.5498Q638.125,80.5166,637.621,81.17871Q637.117,81.83496,636.238,82.2217Q636.684,82.292,637.117,82.5029Q637.557,82.708,637.9200000000001,83.0361Q638.289,83.3584,638.582,83.7979Q638.875,84.2373,638.875,84.7764Z" fill="#DDDDDD" fill-opacity="1"/></g><g style="mix-blend-mode:passthrough"><path d="M459.56641,160.3682L452.54688,160.3682L452.54688,158.8682L455.5,158.8682L455.5,150.24316L452.75195,152.11816L452.18945,150.61816L455.80469,148.74316L457,148.74316L457,158.8682L459.56641,158.8682L459.56641,160.3682ZM468.3262,156.2432L463.0703,156.2432L463.0703,154.7432L468.3262,154.7432L468.3262,156.2432ZM479.623,160.3682L477.8652,160.3682L476.166,156.86430000000001Q475.9785,156.4658,475.7793,156.2021Q475.5801,155.9385,475.3457,155.7861Q475.1172,155.6279,474.8418,155.5635Q474.5664,155.4932,474.2324,155.4932L473.5,155.4932L473.5,160.3682L472,160.3682L472,148.74316L475.0234,148.74316Q476.0078,148.74316,476.7109,148.96582Q477.4199,149.18848,477.8711,149.59277Q478.3281,149.99121,478.5391,150.55371Q478.75,151.11621,478.75,151.80176Q478.75,152.34668,478.5918,152.83301Q478.4395,153.31348,478.1289,153.71191Q477.8184,154.1045,477.3613,154.3975Q476.9102,154.6846,476.3184,154.8252Q476.793,154.9951,477.127,155.417Q477.4609,155.8389,477.8125,156.542L479.623,160.3682ZM477.25,152.05957Q477.25,151.14551,476.6582,150.69434Q476.0723,150.24316,475.0059,150.24316L473.5,150.24316L473.5,153.99316L474.7891,153.99316Q475.3574,153.99316,475.8086,153.87012Q476.2656,153.74121,476.582,153.49512Q476.8984,153.24902,477.0742,152.8916Q477.25,152.52832,477.25,152.05957ZM489.2734,150.24316L485.875,150.24316L485.875,160.3682L484.375,160.3682L484.375,150.24316L480.9707,150.24316L480.9707,148.74316L489.2734,148.74316L489.2734,150.24316ZM499.0234,150.24316L495.625,150.24316L495.625,160.3682L494.125,160.3682L494.125,150.24316L490.7207,150.24316L490.7207,148.74316L499.0234,148.74316L499.0234,150.24316ZM511.4922,145.36816L512.8984,145.5791Q512.5293,147.27246,512.0371,148.74316L517.4159999999999,148.74316L517.4159999999999,149.86816L516.3086,149.86816Q515.8691,155.1123,514.0586,158.1943Q515.4824,160.2686,517.6797,161.5869Q517.1172,162.3721,516.7305,162.9932Q514.5859,161.499,513.1621,159.4424Q511.5449,161.4873,509.3125,162.9932Q508.9258,162.5186,508.3105,161.9619Q510.7715,160.3096,512.3008,158.2061Q510.877,155.6631,510.4199,152.33496Q510.0508,153.02051,509.6465,153.61816Q509.2949,153.14941,508.7676,152.58691Q510.8066,149.62207,511.4922,145.36816ZM500.1719,155.4932L502.8438,155.4932Q503.2305,154.76069999999999,503.5996,153.99316L504.8652,154.3975Q504.584,154.9541,504.3027,155.4932L508.6094,155.4932L508.6094,156.6006Q507.9414,158.4346,506.5879,159.8174Q507.5547,160.3271,508.5566,160.8369L507.7832,161.8682Q506.6934,161.2354,505.5156,160.6025Q503.5293,162.11430000000001,500.5059,162.9932Q500.2246,162.4775,499.9082,161.8682Q502.4746,161.2002,504.25,159.9463Q502.7383,159.1553,501.0859,158.3291Q501.6484,157.4971,502.1758,156.6182L500.1719,156.6182L500.1719,155.4932ZM500.3652,149.49316L504.4082,149.49316L504.4082,145.36816L505.709,145.36816L505.709,149.49316L509.084,149.49316L509.084,150.61816L505.709,150.61816L505.709,151.50293L506.2363,150.89941Q507.8711,152.06543,508.9785,152.96191L508.1348,153.99316Q507.168,153.0791,505.709,151.93652L505.709,153.99316L504.4082,153.99316L504.4082,151.47949Q502.8086,153.12012,500.6816,154.3682Q500.34770000000003,153.87598,499.9258,153.33691Q502.1406,152.22363,503.9863,150.61816L500.3652,150.61816L500.3652,149.49316ZM514.9023,149.86816L511.6152,149.86816Q511.52729999999997,150.10254,511.4219,150.31934Q511.7383,154.1455,513.1797,156.8701Q514.5859,154.2334,514.9023,149.86816ZM502.8086,157.8838Q504.0566,158.54,505.375,159.2549Q506.5879,158.13569999999999,507.2734,156.6182L503.6172,156.6182Q503.2129,157.2686,502.8086,157.8838ZM508.293,146.11816L509.3828,146.83887Q508.416,147.87012,507.4492,148.74316Q507.0449,148.3916,506.5,148.00488Q507.4141,147.13184,508.293,146.11816ZM500.8223,146.80371L501.8242,146.11816Q502.6152,146.97949,503.459,147.96973L502.3691,148.74316Q501.5957,147.71777,500.8223,146.80371ZM525.9062,156.6182L529.5273,156.6182L529.5273,154.3682L525.4316,154.3682Q525.2383,159.7061,522.9355,162.6182Q522.5137,162.1084,521.9863,161.5869Q524.1836,158.8916,524.1836,153.31348L524.1836,146.49316L534.5547,146.49316L534.5547,151.36816L533.2891,151.36816L533.2891,150.99316L525.4492,150.99316L525.4492,153.24316L529.5273,153.24316L529.5273,151.36816L530.793,151.36816L530.793,153.24316L535.4336,153.24316L535.4336,154.3682L530.793,154.3682L530.793,156.6182L534.4492,156.6182L534.4492,162.6182L533.1836,162.6182L533.1836,161.4932L527.1719,161.4932L527.1719,162.6182L525.9062,162.6182L525.9062,156.6182ZM518.0312,154.7432Q519.2793,154.42680000000001,520.457,154.1045L520.457,149.86816L518.2422,149.86816L518.2422,148.74316L520.457,148.74316L520.457,145.36816L521.7578,145.36816L521.7578,148.74316L523.6738,148.74316L523.6738,149.86816L521.7578,149.86816L521.7578,153.7002Q522.5957,153.47754,523.3926,153.24316Q523.4102,154.1104,523.498,154.7432Q522.5957,154.98930000000001,521.7578,155.2236L521.7578,160.5791Q521.7578,162.583,520.0176,162.6182Q519.4727,162.63569999999999,518.4004,162.6006Q518.3301,161.833,518.1895,161.0127Q519.1562,161.1182,519.6659999999999,161.1182Q520.457,161.1182,520.457,160.2334L520.457,155.6514Q519.2559,155.9619,518.207,156.2432L518.0312,154.7432ZM533.2891,147.61816L525.4492,147.61816L525.4492,149.86816L533.2891,149.86816L533.2891,147.61816ZM533.1836,157.7432L527.1719,157.7432L527.1719,160.3682L533.1836,160.3682L533.1836,157.7432ZM540.4258,145.36816L541.8672,145.75488Q541.4805,146.71582,541.0586,147.61816L551.184,147.61816Q551.113,153.91699,550.9023,156.3311Q550.6914,159.26069999999999,548.002,159.2432Q547.2988,159.2432,545.5059,159.2432Q545.4004,158.5576,545.2246,157.7432Q546.6836,157.7432,547.8086,157.7432Q549.4082,157.76069999999999,549.5312,156.0967Q549.7246,153.94043,549.7773,149.11816L540.4082,149.11816Q539.793,150.09668,539.0898,150.99316L546.4023,150.99316L546.4023,155.8682L540.0391,155.8682L540.0391,159.30180000000001Q540.0391,160.7432,541.498,160.7432L549.6895,160.7432Q551.359,160.7432,551.641,159.6416Q551.904,158.6514,552.062,156.9932Q552.818,157.292,553.469,157.5029Q553.258,159.1494,553.012,160.1865Q552.572,162.2432,550.0234,162.2432L541.1992,162.2432Q538.6328,162.2432,538.6328,159.7295L538.6328,151.67871Q537.7715000000001,152.89746,536.8047,153.99316Q536.4004,153.40137,535.9258,152.96191Q538.9844,149.49316,540.4258,145.36816ZM545.0312,152.11816L540.0391,152.11816L540.0391,154.7432L545.0312,154.7432L545.0312,152.11816ZM562.75,149.86816Q563.213,149.86816,563.5409999999999,150.19629Q563.875,150.52441,563.875,150.9873Q563.875,151.4502,563.553,151.78418Q563.23,152.11816,562.75,152.11816Q562.27,152.11816,561.947,151.78418Q561.625,151.4502,561.625,150.9873Q561.625,150.52441,561.953,150.19629Q562.287,149.86816,562.75,149.86816ZM562.75,158.4932Q563.213,158.4932,563.5409999999999,158.8213Q563.875,159.1494,563.875,159.6182Q563.875,160.0986,563.5409999999999,160.4209Q563.213,160.7432,562.75,160.7432Q562.287,160.7432,561.953,160.4209Q561.625,160.0986,561.625,159.6182Q561.625,159.1494,561.953,158.8213Q562.287,158.4932,562.75,158.4932ZM580.75,154.42680000000001Q580.75,155.2646,580.627,156.0322Q580.51,156.7939,580.24,157.4502Q579.977,158.1064,579.549,158.6455Q579.121,159.1846,578.506,159.5713Q577.891,159.9521,577.0699999999999,160.1631Q576.256,160.3682,575.213,160.3682L572.875,160.3682L572.875,148.74316L575.688,148.74316Q578.236,148.74316,579.49,150.14355Q580.75,151.54395,580.75,154.42680000000001ZM579.25,154.5615Q579.25,153.36621,579.027,152.54004Q578.811,151.71387,578.365,151.20996Q577.92,150.7002,577.246,150.47168Q576.572,150.24316,575.664,150.24316L574.375,150.24316L574.375,158.8682L575.494,158.8682Q579.25,158.8682,579.25,154.5615ZM590.025,159.7529Q588.643,160.3682,587.131,160.3682Q584.6990000000001,160.3682,583.475,158.9326Q582.25,157.4971,582.25,154.6787Q582.25,153.31934,582.572,152.21777Q582.9,151.11621,583.521,150.34863Q584.143,149.5752,585.092,149.15918Q586.0409999999999,148.74316,587.219,148.74316Q588.021,148.74316,588.707,148.88965Q589.393,149.03613,590.025,149.34082L590.025,150.94629Q589.398,150.60645,588.73,150.4248Q588.062,150.24316,587.271,150.24316Q586.463,150.24316,585.807,150.53613Q585.156,150.82324,584.6990000000001,151.37988Q584.242,151.93066,583.996,152.72754Q583.75,153.52441,583.75,154.5498Q583.75,156.6885,584.652,157.7783Q585.561,158.8682,587.307,158.8682Q588.045,158.8682,588.719,158.69819999999999Q589.398,158.5283,590.025,158.2178L590.025,159.7529ZM595.375,150.24316L592.727,150.24316L592.727,148.74316L599.518,148.74316L599.518,150.24316L596.875,150.24316L596.875,158.8682L599.518,158.8682L599.518,160.3682L592.727,160.3682L592.727,158.8682L595.375,158.8682L595.375,150.24316ZM610,154.42680000000001Q610,155.2646,609.877,156.0322Q609.76,156.7939,609.49,157.4502Q609.227,158.1064,608.799,158.6455Q608.371,159.1846,607.756,159.5713Q607.141,159.9521,606.3199999999999,160.1631Q605.506,160.3682,604.463,160.3682L602.125,160.3682L602.125,148.74316L604.938,148.74316Q607.486,148.74316,608.74,150.14355Q610,151.54395,610,154.42680000000001ZM608.5,154.5615Q608.5,153.36621,608.277,152.54004Q608.061,151.71387,607.615,151.20996Q607.17,150.7002,606.496,150.47168Q605.822,150.24316,604.914,150.24316L603.625,150.24316L603.625,158.8682L604.744,158.8682Q608.5,158.8682,608.5,154.5615ZM619.48,154.7432L611.922,154.7432L611.922,153.24316L619.48,153.24316L619.48,154.7432ZM619.48,158.1182L611.922,158.1182L611.922,156.6182L619.48,156.6182L619.48,158.1182ZM629.025,159.7529Q627.643,160.3682,626.131,160.3682Q623.6990000000001,160.3682,622.475,158.9326Q621.25,157.4971,621.25,154.6787Q621.25,153.31934,621.572,152.21777Q621.9,151.11621,622.521,150.34863Q623.143,149.5752,624.092,149.15918Q625.0409999999999,148.74316,626.219,148.74316Q627.021,148.74316,627.707,148.88965Q628.393,149.03613,629.025,149.34082L629.025,150.94629Q628.398,150.60645,627.73,150.4248Q627.062,150.24316,626.271,150.24316Q625.463,150.24316,624.807,150.53613Q624.156,150.82324,623.6990000000001,151.37988Q623.242,151.93066,622.996,152.72754Q622.75,153.52441,622.75,154.5498Q622.75,156.6885,623.652,157.7783Q624.561,158.8682,626.307,158.8682Q627.045,158.8682,627.719,158.69819999999999Q628.398,158.5283,629.025,158.2178L629.025,159.7529ZM638.816,160.3682L631.797,160.3682L631.797,158.8682L634.75,158.8682L634.75,150.24316L632.002,152.11816L631.439,150.61816L635.0550000000001,148.74316L636.25,148.74316L636.25,158.8682L638.816,158.8682L638.816,160.3682Z" fill="#DDDDDD" fill-opacity="1"/></g><g style="mix-blend-mode:passthrough"><path d="M312.875,111.249Q312.875,111.4717,312.78711,111.6768Q312.70508,111.8818,312.55859,112.03999999999999Q312.41211,112.19239999999999,312.20117,112.2803Q311.99609,112.3682,311.75,112.3682Q311.50391,112.3682,311.29297,112.2803Q311.08789,112.19239999999999,310.941406,112.0459Q310.794922,111.89359999999999,310.707031,111.6885Q310.625,111.4834,310.625,111.249Q310.625,111.0146,310.707031,110.8096Q310.794922,110.6045,310.941406,110.4521Q311.08789,110.29390000000001,311.29297,110.20609999999999Q311.50391,110.1182,311.75,110.1182Q311.99609,110.1182,312.20117,110.20609999999999Q312.41211,110.29390000000001,312.55859,110.44630000000001Q312.70508,110.5928,312.78711,110.80369999999999Q312.875,111.0146,312.875,111.249ZM316.25,111.249Q316.25,111.4717,316.16211,111.6768Q316.08008,111.8818,315.93359,112.03999999999999Q315.78711,112.19239999999999,315.57617,112.2803Q315.37109,112.3682,315.125,112.3682Q314.87891,112.3682,314.66797,112.2803Q314.46289,112.19239999999999,314.31641,112.0459Q314.16992,111.89359999999999,314.08203,111.6885Q314,111.4834,314,111.249Q314,111.0146,314.08203,110.8096Q314.16992,110.6045,314.31641,110.4521Q314.46289,110.29390000000001,314.66797,110.20609999999999Q314.87891,110.1182,315.125,110.1182Q315.37109,110.1182,315.57617,110.20609999999999Q315.78711,110.29390000000001,315.93359,110.44630000000001Q316.08008,110.5928,316.16211,110.80369999999999Q316.25,111.0146,316.25,111.249ZM319.625,111.249Q319.625,111.4717,319.53711,111.6768Q319.45508,111.8818,319.30859,112.03999999999999Q319.16211,112.19239999999999,318.95117,112.2803Q318.74609,112.3682,318.5,112.3682Q318.25391,112.3682,318.04297,112.2803Q317.83789,112.19239999999999,317.69141,112.0459Q317.54492,111.89359999999999,317.45703,111.6885Q317.375,111.4834,317.375,111.249Q317.375,111.0146,317.45703,110.8096Q317.54492,110.6045,317.69141,110.4521Q317.83789,110.29390000000001,318.04297,110.20609999999999Q318.25391,110.1182,318.5,110.1182Q318.74609,110.1182,318.95117,110.20609999999999Q319.16211,110.29390000000001,319.30859,110.44630000000001Q319.45508,110.5928,319.53711,110.80369999999999Q319.625,111.0146,319.625,111.249ZM322.625,111.249Q322.625,111.4717,322.5371,111.6768Q322.4551,111.8818,322.3086,112.03999999999999Q322.1621,112.19239999999999,321.9512,112.2803Q321.7461,112.3682,321.5,112.3682Q321.2539,112.3682,321.043,112.2803Q320.8379,112.19239999999999,320.6914,112.0459Q320.5449,111.89359999999999,320.457,111.6885Q320.375,111.4834,320.375,111.249Q320.375,111.0146,320.457,110.8096Q320.5449,110.6045,320.6914,110.4521Q320.8379,110.29390000000001,321.043,110.20609999999999Q321.2539,110.1182,321.5,110.1182Q321.7461,110.1182,321.9512,110.20609999999999Q322.1621,110.29390000000001,322.3086,110.44630000000001Q322.4551,110.5928,322.5371,110.80369999999999Q322.625,111.0146,322.625,111.249ZM326,111.249Q326,111.4717,325.9121,111.6768Q325.8301,111.8818,325.6836,112.03999999999999Q325.5371,112.19239999999999,325.3262,112.2803Q325.1211,112.3682,324.875,112.3682Q324.6289,112.3682,324.418,112.2803Q324.2129,112.19239999999999,324.0664,112.0459Q323.9199,111.89359999999999,323.832,111.6885Q323.75,111.4834,323.75,111.249Q323.75,111.0146,323.832,110.8096Q323.9199,110.6045,324.0664,110.4521Q324.2129,110.29390000000001,324.418,110.20609999999999Q324.6289,110.1182,324.875,110.1182Q325.1211,110.1182,325.3262,110.20609999999999Q325.5371,110.29390000000001,325.6836,110.44630000000001Q325.8301,110.5928,325.9121,110.80369999999999Q326,111.0146,326,111.249ZM329.375,111.249Q329.375,111.4717,329.2871,111.6768Q329.2051,111.8818,329.0586,112.03999999999999Q328.9121,112.19239999999999,328.7012,112.2803Q328.4961,112.3682,328.25,112.3682Q328.0039,112.3682,327.793,112.2803Q327.5879,112.19239999999999,327.4414,112.0459Q327.2949,111.89359999999999,327.207,111.6885Q327.125,111.4834,327.125,111.249Q327.125,111.0146,327.207,110.8096Q327.2949,110.6045,327.4414,110.4521Q327.5879,110.29390000000001,327.793,110.20609999999999Q328.0039,110.1182,328.25,110.1182Q328.4961,110.1182,328.7012,110.20609999999999Q328.9121,110.29390000000001,329.0586,110.44630000000001Q329.2051,110.5928,329.2871,110.80369999999999Q329.375,111.0146,329.375,111.249Z" fill="#DDDDDD" fill-opacity="1"/></g><g style="mix-blend-mode:passthrough"><path d="M389,83.75L381,83.75L381,82.25L389,82.25M377,83.75L369,83.75L369,82.25L377,82.25M389.5303,83.53033L384.7574,88.30330000000001Q384.7051,88.35553,384.6437,88.39657Q384.5823,88.43761,384.514,88.46588Q384.4458,88.49415,384.3733,88.50856Q384.3009,88.52297,384.227,88.52297Q384.1532,88.52297,384.0807,88.50856Q384.0083,88.49415,383.94,88.46588Q383.8718,88.43761,383.8103,88.39657Q383.7489,88.35553,383.6967,88.30330000000001Q383.6445,88.25107,383.6034,88.18965Q383.5624,88.12823,383.5341,88.05998Q383.5058,87.99174,383.4914,87.91929Q383.477,87.84684,383.477,87.77297Q383.477,87.6991,383.4914,87.62665Q383.5058,87.5542,383.5341,87.48596Q383.5624,87.41771,383.6034,87.35629Q383.6445,87.29487,383.6967,87.24264L388.4697,82.46967Q388.5219,82.417437,388.5833,82.376398Q388.6447,82.335359,388.713,82.30709Q388.7812,82.278822,388.8537,82.264411Q388.9261,82.25,389,82.25Q389.0739,82.25,389.1463,82.264411Q389.2188,82.278822,389.287,82.307091Q389.3553,82.335359,389.4167,82.376398Q389.4781,82.417437,389.5303,82.46967Q389.5826,82.521903,389.6236,82.583323Q389.6646,82.644742,389.6929,82.712988Q389.7212,82.781233,389.7356,82.853682Q389.75,82.9261316,389.75,83.000000174578Q389.75,83.0738687,389.7356,83.146318Q389.7212,83.218767,389.6929,83.287013Q389.6646,83.355258,389.6236,83.416678Q389.5826,83.478097,389.5303,83.53033ZM388.4697,83.53033L383.6967,78.75736Q383.6445,78.70513,383.6034,78.64371Q383.5624,78.58229,383.5341,78.51404Q383.5058,78.4458,383.4914,78.37335Q383.477,78.3009,383.477,78.22703Q383.477,78.15316,383.4914,78.08071Q383.5058,78.00826,383.5341,77.94002Q383.5624,77.87177,383.6034,77.81035Q383.6445,77.74893,383.6967,77.69669999999999Q383.7489,77.64447,383.8103,77.60343Q383.8718,77.56239,383.94,77.53412Q384.0083,77.50585,384.0807,77.49144Q384.1532,77.47703,384.227,77.47703Q384.3009,77.47703,384.3733,77.49144Q384.4458,77.50585,384.514,77.53412Q384.5823,77.56239,384.6437,77.60343Q384.7051,77.64447,384.7574,77.69669999999999L389.5303,82.46967Q389.5826,82.521903,389.6236,82.583322Q389.6646,82.644742,389.6929,82.712987Q389.7212,82.781233,389.7356,82.853682Q389.75,82.9261313,389.75,82.999999825422Q389.75,83.0738684,389.7356,83.146318Q389.7212,83.218767,389.6929,83.287012Q389.6646,83.355258,389.6236,83.416677Q389.5826,83.478097,389.5303,83.53033Q389.4781,83.582563,389.4167,83.623602Q389.3553,83.664641,389.287,83.692909Q389.2188,83.721178,389.1463,83.735589Q389.0739,83.75,389,83.75Q388.9261,83.75,388.8537,83.735589Q388.7812,83.721178,388.713,83.69291Q388.6447,83.664641,388.5833,83.623602Q388.5219,83.582563,388.4697,83.53033Z" transform="matrix(-1,0,0,-1,738,166)" fill="#DDDDDD" fill-opacity="1"/></g><g style="mix-blend-mode:passthrough"><path d="M463,155.75L455,155.75L455,154.25L463,154.25M451,155.75L443,155.75L443,154.25L451,154.25M463.5303,155.53033L458.7574,160.3033Q458.7051,160.35553,458.6437,160.39657Q458.5823,160.43761,458.514,160.46588Q458.4458,160.49415,458.3733,160.50856Q458.3009,160.52297,458.227,160.52297Q458.1532,160.52297,458.0807,160.50856Q458.0083,160.49415,457.94,160.46588Q457.8718,160.43761,457.8103,160.39657Q457.7489,160.35553,457.6967,160.3033Q457.6445,160.25107,457.6034,160.18965Q457.5624,160.12823,457.5341,160.05998Q457.5058,159.99174,457.4914,159.91929Q457.477,159.84684,457.477,159.77297Q457.477,159.6991,457.4914,159.62665Q457.5058,159.5542,457.5341,159.48596Q457.5624,159.41771,457.6034,159.35629Q457.6445,159.29487,457.6967,159.24264L462.4697,154.46967Q462.5219,154.417437,462.5833,154.376398Q462.6447,154.335359,462.713,154.30709Q462.7812,154.278822,462.8537,154.264411Q462.9261,154.25,463,154.25Q463.0739,154.25,463.1463,154.264411Q463.2188,154.278822,463.287,154.307091Q463.3553,154.335359,463.4167,154.376398Q463.4781,154.417437,463.5303,154.46967Q463.5826,154.521903,463.6236,154.583323Q463.6646,154.644742,463.6929,154.712988Q463.7212,154.781233,463.7356,154.853682Q463.75,154.9261316,463.75,155.000000174578Q463.75,155.0738687,463.7356,155.146318Q463.7212,155.218767,463.6929,155.287013Q463.6646,155.355258,463.6236,155.416678Q463.5826,155.478097,463.5303,155.53033ZM462.4697,155.53033L457.6967,150.75736Q457.6445,150.70513,457.6034,150.64371Q457.5624,150.58229,457.5341,150.51404Q457.5058,150.4458,457.4914,150.37335Q457.477,150.3009,457.477,150.22703Q457.477,150.15316,457.4914,150.08071Q457.5058,150.00826,457.5341,149.94002Q457.5624,149.87177,457.6034,149.81035Q457.6445,149.74893,457.6967,149.6967Q457.7489,149.64447,457.8103,149.60343Q457.8718,149.56239,457.94,149.53412Q458.0083,149.50585,458.0807,149.49144Q458.1532,149.47703,458.227,149.47703Q458.3009,149.47703,458.3733,149.49144Q458.4458,149.50585,458.514,149.53412Q458.5823,149.56239,458.6437,149.60343Q458.7051,149.64447,458.7574,149.6967L463.5303,154.46967Q463.5826,154.521903,463.6236,154.583322Q463.6646,154.644742,463.6929,154.712987Q463.7212,154.781233,463.7356,154.853682Q463.75,154.9261313,463.75,154.999999825422Q463.75,155.0738684,463.7356,155.146318Q463.7212,155.218767,463.6929,155.287012Q463.6646,155.355258,463.6236,155.416677Q463.5826,155.478097,463.5303,155.53033Q463.4781,155.582563,463.4167,155.623602Q463.3553,155.664641,463.287,155.692909Q463.2188,155.721178,463.1463,155.735589Q463.0739,155.75,463,155.75Q462.9261,155.75,462.8537,155.735589Q462.7812,155.721178,462.713,155.69291Q462.6447,155.664641,462.5833,155.623602Q462.5219,155.582563,462.4697,155.53033Z" transform="matrix(-1,0,0,-1,886,310)" fill="#DDDDDD" fill-opacity="1"/></g><g style="mix-blend-mode:passthrough"><path d="M291,59.75L283,59.75L283,58.25L291,58.25M279,59.75L271,59.75L271,58.25L279,58.25M291.5303,59.53033L286.7574,64.30330000000001Q286.7051,64.35553,286.6437,64.39657Q286.5823,64.43761,286.514,64.46588Q286.4458,64.49415,286.3733,64.50856Q286.3009,64.52297,286.227,64.52297Q286.1532,64.52297,286.0807,64.50856Q286.0083,64.49415,285.94,64.46588Q285.8718,64.43761,285.8103,64.39657Q285.7489,64.35553,285.6967,64.30330000000001Q285.6445,64.25107,285.6034,64.18965Q285.5624,64.12823,285.5341,64.05998Q285.5058,63.99174,285.4914,63.919290000000004Q285.477,63.84684,285.477,63.77297Q285.477,63.6991,285.4914,63.62665Q285.5058,63.5542,285.5341,63.48596Q285.5624,63.41771,285.6034,63.35629Q285.6445,63.29487,285.6967,63.24264L290.4697,58.46967Q290.5219,58.417437,290.5833,58.376398Q290.6447,58.335359,290.713,58.30709Q290.7812,58.278822,290.8537,58.264411Q290.9261,58.25,291,58.25Q291.0739,58.25,291.1463,58.264411Q291.2188,58.278822,291.287,58.307091Q291.3553,58.335359,291.4167,58.376398Q291.4781,58.417437,291.5303,58.46967Q291.5826,58.521903,291.6236,58.583323Q291.6646,58.644742,291.6929,58.712988Q291.7212,58.781233,291.7356,58.853682Q291.75,58.9261316,291.75,59.000000174578Q291.75,59.0738687,291.7356,59.146318Q291.7212,59.218767,291.6929,59.287013Q291.6646,59.355258,291.6236,59.416678Q291.5826,59.478097,291.5303,59.53033ZM290.4697,59.53033L285.6967,54.75736Q285.6445,54.70513,285.6034,54.64371Q285.5624,54.58229,285.5341,54.51404Q285.5058,54.4458,285.4914,54.37335Q285.477,54.3009,285.477,54.22703Q285.477,54.15316,285.4914,54.080709999999996Q285.5058,54.00826,285.5341,53.94002Q285.5624,53.87177,285.6034,53.81035Q285.6445,53.74893,285.6967,53.6967Q285.7489,53.64447,285.8103,53.60343Q285.8718,53.56239,285.94,53.53412Q286.0083,53.50585,286.0807,53.49144Q286.1532,53.47703,286.227,53.47703Q286.3009,53.47703,286.3733,53.49144Q286.4458,53.50585,286.514,53.53412Q286.5823,53.56239,286.6437,53.60343Q286.7051,53.64447,286.7574,53.6967L291.5303,58.46967Q291.5826,58.521903,291.6236,58.583322Q291.6646,58.644742,291.6929,58.712987Q291.7212,58.781233,291.7356,58.853682Q291.75,58.9261313,291.75,58.999999825422Q291.75,59.0738684,291.7356,59.146318Q291.7212,59.218767,291.6929,59.287012Q291.6646,59.355258,291.6236,59.416677Q291.5826,59.478097,291.5303,59.53033Q291.4781,59.582563,291.4167,59.623602Q291.3553,59.664641,291.287,59.692909Q291.2188,59.721178,291.1463,59.735589Q291.0739,59.75,291,59.75Q290.9261,59.75,290.8537,59.735589Q290.7812,59.721178,290.713,59.69291Q290.6447,59.664641,290.5833,59.623602Q290.5219,59.582563,290.4697,59.53033Z" fill="#DDDDDD" fill-opacity="1"/></g><g style="mix-blend-mode:passthrough"><path d="M217,131.75L209,131.75L209,130.25L217,130.25M205,131.75L197,131.75L197,130.25L205,130.25M217.5303,131.53033L212.7574,136.3033Q212.7051,136.35553,212.6437,136.39657Q212.5823,136.43761,212.514,136.46588Q212.4458,136.49415,212.3733,136.50856Q212.3009,136.52297,212.227,136.52297Q212.1532,136.52297,212.0807,136.50856Q212.0083,136.49415,211.94,136.46588Q211.8718,136.43761,211.8103,136.39657Q211.7489,136.35553,211.6967,136.3033Q211.6445,136.25107,211.6034,136.18965Q211.5624,136.12823,211.5341,136.05998Q211.5058,135.99174,211.4914,135.91929Q211.477,135.84684,211.477,135.77297Q211.477,135.6991,211.4914,135.62665Q211.5058,135.5542,211.5341,135.48596Q211.5624,135.41771,211.6034,135.35629Q211.6445,135.29487,211.6967,135.24264L216.4697,130.46967Q216.5219,130.417437,216.5833,130.376398Q216.6447,130.335359,216.713,130.30709Q216.7812,130.278822,216.8537,130.264411Q216.9261,130.25,217,130.25Q217.0739,130.25,217.1463,130.264411Q217.2188,130.278822,217.287,130.307091Q217.3553,130.335359,217.4167,130.376398Q217.4781,130.417437,217.5303,130.46967Q217.5826,130.521903,217.6236,130.583323Q217.6646,130.644742,217.6929,130.712988Q217.7212,130.781233,217.7356,130.853682Q217.75,130.9261316,217.75,131.000000174578Q217.75,131.0738687,217.7356,131.146318Q217.7212,131.218767,217.6929,131.287013Q217.6646,131.355258,217.6236,131.416678Q217.5826,131.478097,217.5303,131.53033ZM216.4697,131.53033L211.6967,126.75736Q211.6445,126.70513,211.6034,126.64371Q211.5624,126.58229,211.5341,126.51404Q211.5058,126.4458,211.4914,126.37335Q211.477,126.3009,211.477,126.22703Q211.477,126.15316,211.4914,126.08071Q211.5058,126.00826,211.5341,125.94002Q211.5624,125.87177,211.6034,125.81035Q211.6445,125.74893,211.6967,125.69669999999999Q211.7489,125.64447,211.8103,125.60343Q211.8718,125.56239,211.94,125.53412Q212.0083,125.50585,212.0807,125.49144Q212.1532,125.47703,212.227,125.47703Q212.3009,125.47703,212.3733,125.49144Q212.4458,125.50585,212.514,125.53412Q212.5823,125.56239,212.6437,125.60343Q212.7051,125.64447,212.7574,125.69669999999999L217.5303,130.46967Q217.5826,130.521903,217.6236,130.583322Q217.6646,130.644742,217.6929,130.712987Q217.7212,130.781233,217.7356,130.853682Q217.75,130.9261313,217.75,130.999999825422Q217.75,131.0738684,217.7356,131.146318Q217.7212,131.218767,217.6929,131.287012Q217.6646,131.355258,217.6236,131.416677Q217.5826,131.478097,217.5303,131.53033Q217.4781,131.582563,217.4167,131.623602Q217.3553,131.664641,217.287,131.692909Q217.2188,131.721178,217.1463,131.735589Q217.0739,131.75,217,131.75Q216.9261,131.75,216.8537,131.735589Q216.7812,131.721178,216.713,131.69291Q216.6447,131.664641,216.5833,131.623602Q216.5219,131.582563,216.4697,131.53033Z" fill="#DDDDDD" fill-opacity="1"/></g></g></g></svg>