<svg xmlns="http://www.w3.org/2000/svg" xmlns:xlink="http://www.w3.org/1999/xlink" fill="none" version="1.1" width="496" height="292" viewBox="0 0 496 292"><g style="mix-blend-mode:passthrough"><g><g style="mix-blend-mode:passthrough"><path d="M6.01172,4.74316L7.29492,5.28809Q6.89062,5.78027,6.48633,6.24316L14.5898,6.24316L14.5898,7.35059Q13.1309,9.02637,10.7227,10.2393Q13.6406,11.1006,17.8418,11.1182Q17.3672,11.8389,16.9629,12.6182Q12.2637,12.249,9.1582,10.9424Q5.74805,12.3545,0.808594,12.9932Q0.509766,12.4658,0.0703125,11.9619Q4.51172,11.4287,7.61133,10.1982Q5.92383,9.24902,4.88086,7.93066Q3.5625,9.29004,2.14453,10.3682Q1.75781,9.87012,1.23047,9.33691Q4.3418,7.1748,6.01172,4.74316ZM3.30469,12.9932L14.7656,12.9932L14.7656,18.6182L13.4648,18.6182L13.4648,17.8682L4.60547,17.8682L4.60547,18.6182L3.30469,18.6182L3.30469,12.9932ZM1.19531,3.61816L8.7832,3.61816Q8.30859,2.91504,7.62891,2.12402L8.82422,1.36816Q9.52734,2.15918,10.2832,3.12012L9.47461,3.61816L16.9102,3.61816L16.9102,6.61816L15.6094,6.61816L15.6094,4.74316L2.49609,4.74316L2.49609,6.99316L1.19531,6.99316L1.19531,3.61816ZM13.4648,14.1182L4.60547,14.1182L4.60547,16.7432L13.4648,16.7432L13.4648,14.1182ZM12.7266,7.36816L6.00586,7.36816Q7.18945,8.75098,9.12305,9.62402Q11.3672,8.68066,12.7266,7.36816ZM25.6641,2.12402L26.9297,1.36816Q27.7734,2.33496,28.5996,3.46582L27.7383,3.99316L34.2949,3.99316L34.2949,11.4932L32.8887,11.4932L32.8887,10.7432L21.791,10.7432Q21.5508,15.9111,19.1777,18.9932Q18.7031,18.4775,18.1582,17.9619Q20.4082,15.1846,20.4082,9.63574L20.4082,3.99316L27.1172,3.99316Q26.4727,3.06152,25.6641,2.12402ZM21.8145,5.11816L21.8145,9.61816L32.8887,9.61816L32.8887,5.11816L21.8145,5.11816ZM42.3633,7.74316L53.7363,7.74316L53.7363,8.86816L48.4629,8.86816L47.9824,11.1182L52.9102,11.1182L52.9102,16.7783Q52.9102,18.2432,51.5742,18.2432Q51.1172,18.2432,50.291,18.2256Q50.168,17.5811,49.9395,17.0654Q50.5371,17.1182,51.1523,17.1182Q51.6797,17.1182,51.6797,16.585L51.6797,12.2432L49.8691,12.2432L49.8691,17.4932L48.6914,17.4932L48.6914,12.2432L46.9512,12.2432L46.9512,17.1182L45.7734,17.1182L45.7734,12.2432L44.0156,12.2432L44.0156,18.2432L42.7852,18.2432L42.7852,11.1182L46.7051,11.1182L47.1094,8.86816L42.3633,8.86816L42.3633,7.74316ZM51.2051,6.61816L51.2051,6.24316L43.2598,6.24316L43.2598,2.11816L44.4902,2.11816L44.4902,5.11816L47.2148,5.11816L47.2148,0.993164L48.4805,0.993164L48.4805,5.11816L51.2051,5.11816L51.2051,2.11816L52.4355,2.11816L52.4355,6.61816L51.2051,6.61816ZM41.8711,7.22168Q41.5371,9.95801,40.623,14.9209Q41.5312,14.751,42.293,14.5869Q42.2754,15.2021,42.3105,15.7119Q40.3242,16.1104,36.5098,16.7432L36.2461,15.6182Q38.0156,15.3662,39.4629,15.126Q40.3242,9.58887,40.623,6.99316L41.8711,7.22168ZM36.668,7.63184L37.8633,7.36816Q38.4434,9.9873,39.0234,13.8018L37.8105,14.1182Q37.3359,10.4561,36.668,7.63184ZM36.4395,4.74316L42.4688,4.74316L42.4688,5.86816L36.4395,5.86816L36.4395,4.74316ZM37.8809,1.62598L38.9531,0.993164Q39.9902,2.47559,40.7285,4.04004L39.5684,4.74316Q38.9355,3.3252,37.8809,1.62598Z" fill="#DDDDDD" fill-opacity="1"/></g><g style="mix-blend-mode:passthrough"><path d="M449.92773,2.49316L458.6113,2.49316Q458.5234,3.90527,458.4707,4.71973Q458.3301,7.4209,455.6934,7.36816Q454.9727,7.36816,453.4258,7.36816Q453.3203,6.62988,453.1973,5.86816Q454.498,6.17285,455.5352,6.24316Q457.0469,6.2959,457.1699,4.69629Q457.2227,4.2041,457.2578,3.61816L451.26367,3.61816L451.26367,8.86816L458.6816,8.86816L458.6816,9.8877Q457.9785,13.0107,456.1094,15.3193Q457.627,16.7783,459.877,17.5869Q459.2793,18.1611,458.8574,18.6182Q456.6953,17.6338,455.1953,16.1631Q453.8477,17.5576,452.0371,18.6182Q451.70312,18.1025,451.31641,17.5869Q453.0742,16.585,454.3516,15.1963Q452.6348,13.0342,452.0898,9.99316L451.26367,9.99316L451.26367,18.6182L449.92773,18.6182L449.92773,2.49316ZM443.51172,2.49316L448.46875,2.49316L448.46875,16.5146Q448.46875,18.2432,446.83398,18.2432Q445.9375,18.2432,445.16406,18.1904Q445.09375,17.6807,444.95312,16.9775Q445.84961,17.1182,446.5,17.1182Q447.2207,17.1182,447.2207,16.4385L447.2207,12.6182L444.75977,12.6182Q444.8125,16.5498,443.30078,18.6182Q442.914062,18.085,442.333984,17.5869Q443.51172,15.7998,443.51172,12.5127L443.51172,2.49316ZM457.293,9.99316L453.2969,9.99316Q453.8418,12.5596,455.2363,14.3584Q456.6895,12.4951,457.293,9.99316ZM444.75977,11.4932L447.2207,11.4932L447.2207,8.11816L444.75977,8.11816L444.75977,11.4932ZM447.2207,3.61816L444.75977,3.61816L444.75977,6.99316L447.2207,6.99316L447.2207,3.61816ZM465.3438,0.993164L466.6621,1.55566Q466.2695,2.22949,465.8359,2.86816L475.3457,2.86816L475.3457,4.01074Q473.7109,6.03809,470.875,7.55566Q473.8281,8.61621,477.9121,8.86816Q477.3496,9.6709,476.9277,10.3682Q472.3516,9.75879,469.2461,8.31152Q465.7598,9.85254,460.8086,10.7432Q460.5098,10.2861,460.0879,9.71191Q464.4941,8.93262,467.7344,7.50879Q465.7305,6.26074,464.5293,4.5498Q463.1641,6.27246,461.5117,7.74316Q460.9844,7.18066,460.5449,6.79395Q463.7793,4.12793,465.3438,0.993164ZM461.6523,11.4932L466.7676,11.4932Q466.8906,10.6494,466.9785,9.61816L468.4023,9.61816Q468.291,10.6494,468.168,11.4932L475.2578,11.4932Q475.082,14.5986,474.9238,15.8467Q474.6426,18.2959,471.9707,18.3135Q470.9336,18.6182,468.8594,18.2432Q468.7539,17.5752,468.5957,16.7432Q470.6172,17.083,471.9355,17.1182Q473.4297,17.083,473.5879,15.5479Q473.7461,14.1709,473.8164,12.6182L467.957,12.6182Q467.0254,17.0127,461.4062,18.9932Q461.002,18.4834,460.5449,17.9619Q465.5898,16.1982,466.5215,12.6182L461.6523,12.6182L461.6523,11.4932ZM473.4648,3.99316L465.6191,3.99316Q467.0312,5.7334,469.2578,6.8584Q471.7949,5.63965,473.4648,3.99316ZM478.8438,8.86816L485.9453,8.86816Q486.2207,8.22363,486.2969,7.36816L487.5625,7.53809Q487.457,8.26465,487.2578,8.86816L491.08979999999997,8.86816Q490.3867,8.24707,489.6016,7.64941L490.3223,6.99316Q491.4824,7.70801,492.4141,8.42871L492.0215,8.86816L495.2969,8.86816L495.2969,9.99316L488.5117,9.99316Q490.5449,11.9736,495.7188,11.8682Q495.2969,12.665,494.998,13.3682Q494.53520000000003,13.333,494.1016,13.292L494.1016,18.6182L492.8711,18.6182L492.8711,17.4932L489.1094,17.4932L489.1094,18.6182L487.8789,18.6182L487.8789,12.9932L493.4805,12.9932Q488.4531,12.3311,487.0527,9.99316L486.7363,9.99316Q485.752,12.0322,480.3555,12.9932L485.9805,12.9932L485.9805,18.6182L484.75,18.6182L484.75,17.4932L481.041,17.4932L481.041,18.6182L479.8105,18.6182L479.8105,13.0986Q479.34770000000003,13.2334,478.8438,13.3682Q478.5801,12.9346,478.1582,12.3369Q484.0293,11.499,485.207,9.99316L478.8438,9.99316L478.8438,8.86816ZM487.8613,2.49316L494.084,2.49316L494.084,7.74316L492.8535,7.74316L492.8535,6.99316L489.0918,6.99316L489.0918,7.74316L487.8613,7.74316L487.8613,2.49316ZM479.793,2.49316L485.9629,2.49316L485.9629,7.74316L484.7324,7.74316L484.7324,6.99316L481.0234,6.99316L481.0234,7.74316L479.793,7.74316L479.793,2.49316ZM492.8535,3.61816L489.0918,3.61816L489.0918,5.86816L492.8535,5.86816L492.8535,3.61816ZM484.7324,3.61816L481.0234,3.61816L481.0234,5.86816L484.7324,5.86816L484.7324,3.61816ZM492.8711,14.1182L489.1094,14.1182L489.1094,16.3682L492.8711,16.3682L492.8711,14.1182ZM484.75,14.1182L481.041,14.1182L481.041,16.3682L484.75,16.3682L484.75,14.1182Z" fill="#DDDDDD" fill-opacity="1"/></g><g style="mix-blend-mode:passthrough"><path d="M7.06641,50.86816L16.8398,50.86816Q16.5762,60.1318,16.4355,62.9678Q16.3652,66.2783,13.623,66.2432Q12.7266,66.2432,11.0391,66.1904Q10.916,65.4346,10.7578,64.7432Q12.4453,64.7432,13.4648,64.7432Q14.9062,64.7959,14.9766,62.8857Q15.1523,60.1377,15.3457,52.36816L11.3555,52.36816Q11.25,55.7373,11.0918,57.82324Q10.7051,63.1963,6.32812,66.6182Q5.87109,66.0732,5.20312,65.4932Q9.28125,62.3877,9.61523,57.71777Q9.82031,55.41504,9.87305,52.36816L7.06641,52.36816L7.06641,50.86816ZM0.421875,53.86816L0.421875,52.74316L6.24023,52.74316L6.24023,53.90332Q5.26758,55.59668,4.16602,57.0498L4.16602,57.52441Q4.58789,57.84668,5.02148,58.1748Q5.88867,57.00879,6.64453,55.74316L7.80469,56.48145Q7.04883,57.57715,6.02344,58.8955Q6.90234,59.5635,7.78711,60.2549L6.89062,61.3682Q5.54883,60.2256,4.16602,59.1064L4.16602,66.6182L2.83008,66.6182L2.83008,58.6494Q1.79297,59.9209,0.650391,60.9932Q0.457031,60.3135,0.175781,59.4932Q2.70703,57.40723,4.67578,53.86816L0.421875,53.86816ZM2.0918,49.9834L3.32227,49.36816Q3.97266,50.37012,4.69336,51.7002L3.39258,52.36816Q2.74219,51.00293,2.0918,49.9834ZM25.9805,58.7432L34.4531,58.7432L34.4531,66.6182L33.1172,66.6182L33.1172,65.4932L27.3164,65.4932L27.3164,66.6182L25.9805,66.6182L25.9805,58.7432ZM25.418,64.0869L24.3809,65.1182Q23.4258,64.1221,22.4648,63.1846Q21.1641,65.001,19.0723,66.6182Q18.7031,66.126,18.2637,65.5869Q20.2793,64.1045,21.498,62.2705Q20.2441,61.0811,18.9844,59.9736Q19.6113,57.58301,20.1211,54.61816L18.3164,54.61816L18.3164,53.11816L20.3496,53.11816Q20.6309,51.34277,20.8828,49.36816L22.3066,49.5791Q22.0195,51.48926,21.7266,53.11816L24.9961,53.11816L24.9961,54.47754Q24.5859,59.3994,23.2383,62.0361Q24.4336,63.1084,25.418,64.0869ZM32.6953,51.61816Q34.4883,54.55371,35.7891,57.34277L34.4004,57.99316Q34.0312,57.04395,33.6387,56.11816Q30.8613,56.27051,27,56.59863Q26.5078,56.64551,25.752,56.86816L25.1016,55.83691Q25.7168,55.46777,26.1562,54.85254Q27.5801,52.71973,29.0391,49.36816L30.5156,49.84277Q28.916,52.88379,27.334,55.3623Q30.8496,55.11035,33.0469,54.99316Q32.3379,53.56348,31.5527,52.18066L32.6953,51.61816ZM33.1172,59.8682L27.3164,59.8682L27.3164,64.3682L33.1172,64.3682L33.1172,59.8682ZM23.6426,54.61816L21.4922,54.61816Q20.9355,57.61816,20.3906,59.6045Q21.3516,60.4014,22.2129,61.1455Q23.4082,58.6143,23.6426,54.61816ZM47.7422,49.36816L49.1484,49.5791Q48.7793,51.27246,48.2871,52.74316L53.666,52.74316L53.666,53.86816L52.5586,53.86816Q52.1191,59.1123,50.3086,62.1943Q51.7324,64.26859999999999,53.9297,65.5869Q53.3672,66.3721,52.9805,66.9932Q50.8359,65.499,49.4121,63.4424Q47.7949,65.4873,45.5625,66.9932Q45.1758,66.51859999999999,44.5605,65.9619Q47.0215,64.3096,48.5508,62.2061Q47.127,59.6631,46.6699,56.33496Q46.3008,57.02051,45.8965,57.61816Q45.5449,57.14941,45.0176,56.58691Q47.0566,53.62207,47.7422,49.36816ZM36.4219,59.4932L39.0938,59.4932Q39.4805,58.7607,39.8496,57.99316L41.1152,58.3975Q40.834,58.9541,40.5527,59.4932L44.8594,59.4932L44.8594,60.6006Q44.1914,62.4346,42.8379,63.8174Q43.8047,64.3271,44.8066,64.8369L44.0332,65.8682Q42.9434,65.2354,41.7656,64.60249999999999Q39.7793,66.1143,36.7559,66.9932Q36.4746,66.47749999999999,36.1582,65.8682Q38.7246,65.2002,40.5,63.9463Q38.9883,63.1553,37.3359,62.3291Q37.8984,61.4971,38.4258,60.6182L36.4219,60.6182L36.4219,59.4932ZM36.6152,53.49316L40.6582,53.49316L40.6582,49.36816L41.959,49.36816L41.959,53.49316L45.334,53.49316L45.334,54.61816L41.959,54.61816L41.959,55.50293L42.4863,54.89941Q44.1211,56.06543,45.2285,56.96191L44.3848,57.99316Q43.418,57.0791,41.959,55.93652L41.959,57.99316L40.6582,57.99316L40.6582,55.47949Q39.0586,57.12012,36.9316,58.3682Q36.5977,57.87598,36.1758,57.33691Q38.3906,56.22363,40.2363,54.61816L36.6152,54.61816L36.6152,53.49316ZM51.1523,53.86816L47.8652,53.86816Q47.7773,54.10254,47.6719,54.31934Q47.9883,58.1455,49.4297,60.8701Q50.8359,58.2334,51.1523,53.86816ZM39.0586,61.8838Q40.3066,62.54,41.625,63.2549Q42.8379,62.1357,43.5234,60.6182L39.8672,60.6182Q39.4629,61.2686,39.0586,61.8838ZM44.543,50.11816L45.6328,50.83887Q44.666,51.87012,43.6992,52.74316Q43.2949,52.3916,42.75,52.00488Q43.6641,51.13184,44.543,50.11816ZM37.0723,50.80371L38.0742,50.11816Q38.8652,50.97949,39.709,51.96973L38.6191,52.74316Q37.8457,51.71777,37.0723,50.80371ZM62.1562,60.6182L65.7773,60.6182L65.7773,58.3682L61.6816,58.3682Q61.4883,63.7061,59.1855,66.6182Q58.7637,66.1084,58.2363,65.5869Q60.4336,62.8916,60.4336,57.31348L60.4336,50.49316L70.8047,50.49316L70.8047,55.36816L69.5391,55.36816L69.5391,54.99316L61.6992,54.99316L61.6992,57.24316L65.7773,57.24316L65.7773,55.36816L67.043,55.36816L67.043,57.24316L71.6836,57.24316L71.6836,58.3682L67.043,58.3682L67.043,60.6182L70.6992,60.6182L70.6992,66.6182L69.4336,66.6182L69.4336,65.4932L63.4219,65.4932L63.4219,66.6182L62.1562,66.6182L62.1562,60.6182ZM54.2812,58.7432Q55.5293,58.4268,56.707,58.1045L56.707,53.86816L54.4922,53.86816L54.4922,52.74316L56.707,52.74316L56.707,49.36816L58.0078,49.36816L58.0078,52.74316L59.9238,52.74316L59.9238,53.86816L58.0078,53.86816L58.0078,57.7002Q58.8457,57.47754,59.6426,57.24316Q59.6602,58.1104,59.748,58.7432Q58.8457,58.9893,58.0078,59.2236L58.0078,64.5791Q58.0078,66.583,56.2676,66.6182Q55.7227,66.6357,54.6504,66.6006Q54.5801,65.833,54.4395,65.0127Q55.4062,65.1182,55.916,65.1182Q56.707,65.1182,56.707,64.2334L56.707,59.6514Q55.5059,59.9619,54.457,60.2432L54.2812,58.7432ZM69.5391,51.61816L61.6992,51.61816L61.6992,53.86816L69.5391,53.86816L69.5391,51.61816ZM69.4336,61.7432L63.4219,61.7432L63.4219,64.3682L69.4336,64.3682L69.4336,61.7432ZM76.6758,49.36816L78.1172,49.75488Q77.7305,50.71582,77.3086,51.61816L87.4336,51.61816Q87.3633,57.91699,87.1523,60.3311Q86.9414,63.2607,84.252,63.2432Q83.5488,63.2432,81.7559,63.2432Q81.6504,62.5576,81.4746,61.7432Q82.9336,61.7432,84.0586,61.7432Q85.6582,61.7607,85.7812,60.0967Q85.9746,57.94043,86.0273,53.11816L76.6582,53.11816Q76.043,54.09668,75.3398,54.99316L82.6523,54.99316L82.6523,59.8682L76.2891,59.8682L76.2891,63.3018Q76.2891,64.7432,77.748,64.7432L85.9395,64.7432Q87.6094,64.7432,87.8906,63.6416Q88.1543,62.6514,88.3125,60.9932Q89.0684,61.292,89.7188,61.5029Q89.5078,63.1494,89.2617,64.1865Q88.8223,66.2432,86.2734,66.2432L77.4492,66.2432Q74.8828,66.2432,74.8828,63.7295L74.8828,55.67871Q74.0215,56.89746,73.0547,57.99316Q72.6504,57.40137,72.1758,56.96191Q75.2344,53.49316,76.6758,49.36816ZM81.2812,56.11816L76.2891,56.11816L76.2891,58.7432L81.2812,58.7432L81.2812,56.11816ZM100.225,67.3682Q97.125,63.9053,97.125,58.9834Q97.125,54.00293,100.207,50.49316L101.719,50.49316Q98.625,54.09082,98.625,58.9658Q98.625,63.7705,101.719,67.3682L100.225,67.3682ZM118.301,51.61816L124.98,51.61816L124.98,66.2432L123.592,66.2432L123.592,64.3682L119.689,64.3682L119.689,66.2432L118.301,66.2432L118.301,51.61816ZM108.65,52.36816L111.105,52.36816Q111.123,51.02051,111.111,49.36816L112.5,49.36816Q112.5,51.03809,112.482,52.36816L116.578,52.36816Q116.49,59.2354,116.35,63.1494Q116.279,66.36619999999999,113.959,66.2432Q113.273,66.2432,111.938,66.1904Q111.814,65.4932,111.656,64.7432Q112.887,64.7432,113.66,64.7432Q114.838,64.7783,114.943,63.0732Q115.137,58.9131,115.172,53.86816L112.465,53.86816Q112.447,55.23926,112.412,56.2002Q112.342,63.208,109.107,66.9932Q108.668,66.51859999999999,108.07,65.9619Q110.988,62.6514,111.041,56.08887Q111.076,55.13379,111.094,53.86816L108.65,53.86816L108.65,52.36816ZM123.592,53.11816L119.689,53.11816L119.689,63.2432L123.592,63.2432L123.592,53.11816ZM126.176,59.9619Q128.666,59.1123,131.062,57.89941L131.062,53.86816L132.311,53.86816L132.311,57.56543Q136.107,55.88379,139.641,53.49316L140.467,54.52441Q136.787,56.93848,132.727,58.749Q133.096,59.1182,133.805,59.1182L137.18,59.1182Q138.234,59.1182,138.445,58.4854Q138.674,57.87012,138.797,56.49316Q139.377,56.73926,140.133,57.00293Q139.869,58.3799,139.746,58.7725Q139.377,60.2432,137.514,60.2432L133.506,60.2432Q131.988,60.2432,131.414,59.0244Q129.182,60.1143,126.844,60.9932Q126.557,60.4482,126.176,59.9619ZM140.238,66.6182L140.238,65.8682L128.391,65.8682L128.391,61.3682L129.727,61.3682L129.727,64.7432L134.279,64.7432L134.279,60.6182L135.686,60.6182L135.686,64.7432L140.238,64.7432L140.238,61.3682L141.574,61.3682L141.574,66.6182L140.238,66.6182ZM126.932,51.24316L134.467,51.24316Q134.139,50.63965,133.734,49.9834L135.035,49.36816Q135.58,50.23535,136.037,51.24316L143.086,51.24316L143.086,54.24316L141.662,54.24316L141.662,52.36816L128.355,52.36816L128.355,54.24316L126.932,54.24316L126.932,51.24316ZM128.988,54.24316L130.219,54.71777Q129.393,56.70996,128.426,58.3682Q127.863,58.0869,127.143,57.80566Q128.109,56.36426,128.988,54.24316ZM140.273,55.74902L141.293,54.99316Q142.664,56.52832,143.648,57.88184L142.488,58.7432Q141.557,57.33691,140.273,55.74902ZM133.277,53.53418L134.191,52.74316Q135.369,53.59863,136.283,54.41895L135.264,55.36816Q134.262,54.36035,133.277,53.53418ZM145.055,53.11816L147.41,53.11816L147.41,49.74316L148.641,49.74316L148.641,53.11816L151.031,53.11816L151.031,61.5557Q151.031,62.9385,149.062,62.833Q148.939,62.2236,148.693,61.3682Q149.818,61.5791,149.836,60.9639L149.836,54.24316L148.641,54.24316L148.641,66.9932L147.41,66.9932L147.41,54.24316L146.25,54.24316L146.25,62.8682L145.055,62.8682L145.055,53.11816ZM152.35,54.99316L155.637,54.99316L155.637,49.74316L156.973,49.74316L156.973,51.61816L161.719,51.61816L161.719,52.74316L156.973,52.74316L156.973,54.99316L160.646,54.99316L160.646,63.2432L159.363,63.2432L159.363,56.11816L153.633,56.11816L153.633,63.2432L152.35,63.2432L152.35,54.99316ZM155.848,56.86816L157.131,56.86816Q157.148,60.3662,156.867,61.7197Q156.779,62.1533,156.621,62.5693Q159.17,64.1279,161.648,65.9619L160.734,66.9932Q158.379,65.0479,156.129,63.6416Q154.775,65.7861,151.277,66.9932Q150.908,66.5361,150.363,65.9619Q154.969,64.7607,155.637,61.4854Q155.865,60.3896,155.848,56.86816ZM169.764,67.3682L168.252,67.3682Q171.375,63.7822,171.375,58.8779Q171.375,54.06152,168.381,50.49316L169.875,50.49316Q172.875,53.93262,172.875,58.8779Q172.875,63.876,169.764,67.3682Z" fill="#DDDDDD" fill-opacity="1"/></g><g style="mix-blend-mode:passthrough"><g><g style="mix-blend-mode:passthrough"><path d="M9,82.5615Q9,83.85640000000001,8.73633,84.92869999999999Q8.47852,85.99510000000001,7.94531,86.7627Q7.41797,87.5303,6.63281,87.9521Q5.84766,88.3682,4.78711,88.3682Q3.87891,88.3682,3.12891,88.0283Q2.38477,87.68260000000001,1.85156,86.9736Q1.32422,86.2646,1.03711,85.16890000000001Q0.75,84.06739999999999,0.75,82.5615Q0.75,81.26074,1.01367,80.18848Q1.27734,79.11621,1.80469,78.34863Q2.33203,77.58105,3.11719,77.16504Q3.9082,76.74316,4.96289,76.74316Q5.87109,76.74316,6.61523,77.08887Q7.36523,77.42871,7.89258,78.14355Q8.42578,78.85254,8.71289,79.9541Q9,81.05566,9,82.5615ZM7.5,82.69630000000001Q7.5,82.4209,7.47656,82.1514Q7.45898,81.87598,7.42969,81.61816L2.57227,85.2334Q2.70117,85.5908,2.90039,85.8955Q3.10547,86.1943,3.39258,86.4111Q3.67969,86.6279,4.04297,86.751Q4.40625,86.8682,4.875,86.8682Q5.47266,86.8682,5.95898,86.6045Q6.44531,86.33500000000001,6.78516,85.80760000000001Q7.13086,85.2803,7.3125,84.501Q7.5,83.7217,7.5,82.69630000000001ZM2.25,82.6729Q2.25,82.9365,2.25586,83.20609999999999Q2.26172,83.4697,2.28516,83.7158L7.14844,80.11816Q7.01367,79.70215,6.80859,79.3623Q6.60938,79.0166,6.32812,78.77051Q6.04688,78.51855,5.68359,78.38379Q5.32617,78.24316,4.88086,78.24316Q4.2832,78.24316,3.79102,78.52441Q3.30469,78.80566,2.95898,79.36816Q2.61914,79.93066,2.43164,80.75684Q2.25,81.58301,2.25,82.6729ZM17.3262,84.2432L12.0703,84.2432L12.0703,82.7432L17.3262,82.7432L17.3262,84.2432ZM28.623,88.3682L26.8652,88.3682L25.166,84.8643Q24.9785,84.4658,24.7793,84.2021Q24.5801,83.9385,24.3457,83.7861Q24.1172,83.6279,23.8418,83.5635Q23.5664,83.4932,23.2324,83.4932L22.5,83.4932L22.5,88.3682L21,88.3682L21,76.74316L24.0234,76.74316Q25.0078,76.74316,25.7109,76.96582Q26.4199,77.18848,26.8711,77.59277Q27.3281,77.99121,27.5391,78.55371Q27.75,79.11621,27.75,79.80176Q27.75,80.34667999999999,27.5918,80.83301Q27.4395,81.31348,27.1289,81.71191Q26.8184,82.1045,26.3613,82.39750000000001Q25.9102,82.6846,25.3184,82.8252Q25.793,82.99510000000001,26.127,83.417Q26.4609,83.8389,26.8125,84.542L28.623,88.3682ZM26.25,80.05957000000001Q26.25,79.14551,25.6582,78.69434Q25.0723,78.24316,24.0059,78.24316L22.5,78.24316L22.5,81.99316L23.7891,81.99316Q24.3574,81.99316,24.8086,81.87012Q25.2656,81.74121,25.582,81.49512Q25.8984,81.24902,26.0742,80.8916Q26.25,80.52832000000001,26.25,80.05957000000001ZM38.2734,78.24316L34.875,78.24316L34.875,88.3682L33.375,88.3682L33.375,78.24316L29.9707,78.24316L29.9707,76.74316L38.2734,76.74316L38.2734,78.24316ZM48.0234,78.24316L44.625,78.24316L44.625,88.3682L43.125,88.3682L43.125,78.24316L39.7207,78.24316L39.7207,76.74316L48.0234,76.74316L48.0234,78.24316ZM58.9746,91.3682Q55.875,87.9053,55.875,82.9834Q55.875,78.00293,58.957,74.49316L60.4688,74.49316Q57.375,78.09082,57.375,82.9658Q57.375,87.7705,60.4688,91.3682L58.9746,91.3682ZM75.1992,81.06152L74.6016,82.11619999999999L72.1289,80.46973L72.334,83.4932L71.0742,83.4932L71.2676,80.46973L68.748,82.11619999999999L68.1914,81.0791L70.8926,79.74316L68.1914,78.38379L68.8008,77.34668L71.2852,79.0166L71.0742,75.99316L72.334,75.99316L72.1113,79.0166L74.6016,77.3291L75.2168,78.41895L72.5098,79.76074L75.1992,81.06152ZM84.2637,91.3682L82.752,91.3682Q85.875,87.7822,85.875,82.8779Q85.875,78.06152,82.8809,74.49316L84.375,74.49316Q87.375,77.93262,87.375,82.8779Q87.375,87.876,84.2637,91.3682Z" fill="#DDDDDD" fill-opacity="1"/></g></g></g><g style="mix-blend-mode:passthrough"><path d="M308,83.75L300,83.75L300,82.25L308,82.25M296,83.75L288,83.75L288,82.25L296,82.25M284.0001,83.75L276.0001,83.75L276.0001,82.25L284.0001,82.25M272.0001,83.75L264.0001,83.75L264.0001,82.25L272.0001,82.25M260.0001,83.75L252.0001,83.75L252.0001,82.25L260.0001,82.25M248.0001,83.75L240.0001,83.75L240.0001,82.25L248.0001,82.25M236.0001,83.75L228.0001,83.75L228.0001,82.25L236.0001,82.25M224.0001,83.75L216.0001,83.75L216.0001,82.25L224.0001,82.25M212.0001,83.75L204.0001,83.75L204.0001,82.25L212.0001,82.25M200.0001,83.75L192.00006,83.75L192.00006,82.25L200.0001,82.25M188.0000610352,83.75L188,83.75L188,82.25L188.0000610352,82.25M308.53,83.53033L303.757,88.30330000000001Q303.705,88.35553,303.644,88.39657Q303.582,88.43761,303.514,88.46588Q303.446,88.49415,303.373,88.50856Q303.301,88.52297,303.227,88.52297Q303.153,88.52297,303.081,88.50856Q303.008,88.49415,302.94,88.46588Q302.872,88.43761,302.81,88.39657Q302.749,88.35553,302.697,88.30330000000001Q302.645,88.25107,302.603,88.18965Q302.562,88.12823,302.534,88.05998Q302.506,87.99174,302.491,87.91929Q302.477,87.84684,302.477,87.77297Q302.477,87.6991,302.492,87.62665Q302.506,87.5542,302.534,87.48596Q302.562,87.41771,302.603,87.35629Q302.645,87.29487,302.697,87.24264L307.47,82.46967Q307.522,82.417437,307.58299999999997,82.376398Q307.645,82.335359,307.71299999999997,82.30709Q307.781,82.278822,307.854,82.264411Q307.926,82.25,308,82.25Q308.074,82.25,308.146,82.264411Q308.219,82.278822,308.28700000000003,82.307091Q308.355,82.335359,308.41700000000003,82.376398Q308.478,82.417437,308.53,82.46967Q308.58299999999997,82.521903,308.624,82.583323Q308.665,82.644742,308.693,82.712988Q308.721,82.781233,308.736,82.853682Q308.75,82.9261316,308.75,83.000000174578Q308.75,83.0738687,308.736,83.146318Q308.721,83.218767,308.693,83.287013Q308.665,83.355258,308.624,83.416678Q308.58299999999997,83.478097,308.53,83.53033ZM307.47,83.53033L302.697,78.75736Q302.645,78.70513,302.603,78.64371Q302.562,78.58229,302.534,78.51404Q302.506,78.4458,302.491,78.37335Q302.477,78.3009,302.477,78.22703Q302.477,78.15316,302.492,78.08071Q302.506,78.00826,302.534,77.94002Q302.562,77.87177,302.603,77.81035Q302.645,77.74893,302.697,77.69669999999999Q302.749,77.64447,302.81,77.60343Q302.872,77.56239,302.94,77.53412Q303.008,77.50585,303.081,77.49144Q303.153,77.47703,303.227,77.47703Q303.301,77.47703,303.373,77.49144Q303.446,77.50585,303.514,77.53412Q303.582,77.56239,303.644,77.60343Q303.705,77.64447,303.757,77.69669999999999L308.53,82.46967Q308.58299999999997,82.521903,308.624,82.583322Q308.665,82.644742,308.693,82.712987Q308.721,82.781233,308.736,82.853682Q308.75,82.9261313,308.75,82.999999825422Q308.75,83.0738684,308.736,83.146318Q308.721,83.218767,308.693,83.287012Q308.665,83.355258,308.624,83.416677Q308.58299999999997,83.478097,308.53,83.53033Q308.478,83.582563,308.41700000000003,83.623602Q308.355,83.664641,308.28700000000003,83.692909Q308.219,83.721178,308.146,83.735589Q308.074,83.75,308,83.75Q307.926,83.75,307.854,83.735589Q307.781,83.721178,307.71299999999997,83.69291Q307.645,83.664641,307.58299999999997,83.623602Q307.522,83.582563,307.47,83.53033Z" fill="#DDDDDD" fill-opacity="1"/></g><g style="mix-blend-mode:passthrough"><path d="M323.06641,102.86816L332.8398,102.86816Q332.5762,112.1318,332.4355,114.9678Q332.3652,118.2783,329.623,118.2432Q328.7266,118.2432,327.0391,118.1904Q326.916,117.4346,326.7578,116.7432Q328.4453,116.7432,329.4648,116.7432Q330.9062,116.7959,330.9766,114.8857Q331.1523,112.1377,331.3457,104.36816L327.3555,104.36816Q327.25,107.7373,327.0918,109.82324Q326.7051,115.19630000000001,322.32812,118.6182Q321.87109,118.0732,321.20312,117.4932Q325.28125,114.3877,325.61523,109.71777Q325.82031,107.41504,325.87305,104.36816L323.06641,104.36816L323.06641,102.86816ZM316.421875,105.86816L316.421875,104.74316L322.24023,104.74316L322.24023,105.90332Q321.26758,107.59668,320.16602,109.0498L320.16602,109.52441Q320.58789,109.84667999999999,321.02148,110.1748Q321.88867,109.00879,322.64453,107.74316L323.80469,108.48145Q323.04883,109.57715,322.02344,110.8955Q322.90234,111.5635,323.78711,112.25489999999999L322.89062,113.3682Q321.54883,112.2256,320.16602,111.10640000000001L320.16602,118.6182L318.83008,118.6182L318.83008,110.6494Q317.79297,111.9209,316.650391,112.9932Q316.457031,112.3135,316.175781,111.4932Q318.70703,109.40723,320.67578,105.86816L316.421875,105.86816ZM318.0918,101.9834L319.32227,101.36816Q319.97266,102.37012,320.69336,103.7002L319.39258,104.36816Q318.74219,103.00293,318.0918,101.9834ZM341.9805,110.7432L350.4531,110.7432L350.4531,118.6182L349.1172,118.6182L349.1172,117.4932L343.3164,117.4932L343.3164,118.6182L341.9805,118.6182L341.9805,110.7432ZM341.418,116.0869L340.3809,117.1182Q339.4258,116.1221,338.4648,115.1846Q337.1641,117.001,335.0723,118.6182Q334.7031,118.126,334.2637,117.5869Q336.2793,116.1045,337.498,114.2705Q336.2441,113.08109999999999,334.9844,111.9736Q335.6113,109.58301,336.1211,106.61816L334.3164,106.61816L334.3164,105.11816L336.3496,105.11816Q336.6309,103.34277,336.8828,101.36816L338.3066,101.5791Q338.0195,103.48926,337.7266,105.11816L340.9961,105.11816L340.9961,106.47754Q340.5859,111.3994,339.2383,114.0361Q340.4336,115.1084,341.418,116.0869ZM348.6953,103.61816Q350.4883,106.55371,351.7891,109.34277L350.4004,109.99316Q350.0312,109.04395,349.6387,108.11816Q346.8613,108.27051,343,108.59863Q342.5078,108.64551,341.752,108.86816L341.1016,107.83691Q341.7168,107.46777,342.1562,106.85254Q343.5801,104.71973,345.0391,101.36816L346.5156,101.84277Q344.916,104.88379,343.334,107.3623Q346.8496,107.11035,349.0469,106.99316Q348.3379,105.56348,347.5527,104.18066L348.6953,103.61816ZM349.1172,111.8682L343.3164,111.8682L343.3164,116.3682L349.1172,116.3682L349.1172,111.8682ZM339.6426,106.61816L337.4922,106.61816Q336.9355,109.61816,336.3906,111.6045Q337.3516,112.4014,338.2129,113.1455Q339.4082,110.6143,339.6426,106.61816ZM363.7422,101.36816L365.1484,101.5791Q364.7793,103.27246,364.2871,104.74316L369.666,104.74316L369.666,105.86816L368.5586,105.86816Q368.1191,111.1123,366.3086,114.1943Q367.7324,116.26859999999999,369.9297,117.5869Q369.3672,118.3721,368.9805,118.9932Q366.8359,117.499,365.4121,115.44239999999999Q363.7949,117.4873,361.5625,118.9932Q361.1758,118.51859999999999,360.5605,117.9619Q363.0215,116.3096,364.5508,114.20609999999999Q363.127,111.6631,362.6699,108.33496Q362.3008,109.02051,361.8965,109.61816Q361.5449,109.14941,361.0176,108.58691Q363.0566,105.62207,363.7422,101.36816ZM352.4219,111.4932L355.0938,111.4932Q355.4805,110.7607,355.8496,109.99316L357.1152,110.39750000000001Q356.834,110.9541,356.5527,111.4932L360.8594,111.4932L360.8594,112.6006Q360.1914,114.4346,358.8379,115.81739999999999Q359.8047,116.3271,360.8066,116.8369L360.0332,117.8682Q358.9434,117.2354,357.7656,116.60249999999999Q355.7793,118.1143,352.7559,118.9932Q352.4746,118.47749999999999,352.1582,117.8682Q354.7246,117.2002,356.5,115.94630000000001Q354.9883,115.1553,353.3359,114.3291Q353.8984,113.4971,354.4258,112.6182L352.4219,112.6182L352.4219,111.4932ZM352.6152,105.49316L356.6582,105.49316L356.6582,101.36816L357.959,101.36816L357.959,105.49316L361.334,105.49316L361.334,106.61816L357.959,106.61816L357.959,107.50293L358.4863,106.89941Q360.1211,108.06542999999999,361.2285,108.96191L360.3848,109.99316Q359.418,109.0791,357.959,107.93652L357.959,109.99316L356.6582,109.99316L356.6582,107.47949Q355.0586,109.12012,352.9316,110.3682Q352.59770000000003,109.87598,352.1758,109.33691Q354.3906,108.22363,356.2363,106.61816L352.6152,106.61816L352.6152,105.49316ZM367.15229999999997,105.86816L363.8652,105.86816Q363.77729999999997,106.10254,363.6719,106.31934Q363.9883,110.1455,365.4297,112.87010000000001Q366.8359,110.2334,367.15229999999997,105.86816ZM355.0586,113.88380000000001Q356.3066,114.53999999999999,357.625,115.25489999999999Q358.8379,114.1357,359.5234,112.6182L355.8672,112.6182Q355.4629,113.26859999999999,355.0586,113.88380000000001ZM360.543,102.11816L361.6328,102.83887Q360.666,103.87012,359.6992,104.74316Q359.2949,104.3916,358.75,104.00488Q359.6641,103.13184,360.543,102.11816ZM353.0723,102.80371L354.0742,102.11816Q354.8652,102.97949,355.709,103.96973L354.6191,104.74316Q353.8457,103.71777,353.0723,102.80371ZM378.1562,112.6182L381.77729999999997,112.6182L381.77729999999997,110.3682L377.6816,110.3682Q377.4883,115.70609999999999,375.1855,118.6182Q374.7637,118.1084,374.2363,117.5869Q376.4336,114.8916,376.4336,109.31348L376.4336,102.49316L386.8047,102.49316L386.8047,107.36816L385.5391,107.36816L385.5391,106.99316L377.6992,106.99316L377.6992,109.24316L381.77729999999997,109.24316L381.77729999999997,107.36816L383.043,107.36816L383.043,109.24316L387.6836,109.24316L387.6836,110.3682L383.043,110.3682L383.043,112.6182L386.6992,112.6182L386.6992,118.6182L385.4336,118.6182L385.4336,117.4932L379.4219,117.4932L379.4219,118.6182L378.1562,118.6182L378.1562,112.6182ZM370.2812,110.7432Q371.5293,110.4268,372.707,110.1045L372.707,105.86816L370.4922,105.86816L370.4922,104.74316L372.707,104.74316L372.707,101.36816L374.0078,101.36816L374.0078,104.74316L375.9238,104.74316L375.9238,105.86816L374.0078,105.86816L374.0078,109.7002Q374.8457,109.47754,375.6426,109.24316Q375.66020000000003,110.1104,375.748,110.7432Q374.8457,110.9893,374.0078,111.2236L374.0078,116.5791Q374.0078,118.583,372.2676,118.6182Q371.72270000000003,118.6357,370.6504,118.6006Q370.5801,117.833,370.4395,117.0127Q371.4062,117.1182,371.916,117.1182Q372.707,117.1182,372.707,116.2334L372.707,111.6514Q371.5059,111.9619,370.457,112.2432L370.2812,110.7432ZM385.5391,103.61816L377.6992,103.61816L377.6992,105.86816L385.5391,105.86816L385.5391,103.61816ZM385.4336,113.7432L379.4219,113.7432L379.4219,116.3682L385.4336,116.3682L385.4336,113.7432ZM392.6758,101.36816L394.1172,101.75488Q393.7305,102.71582,393.3086,103.61816L403.4336,103.61816Q403.3633,109.91699,403.15229999999997,112.33109999999999Q402.9414,115.2607,400.252,115.2432Q399.5488,115.2432,397.7559,115.2432Q397.6504,114.55760000000001,397.4746,113.7432Q398.9336,113.7432,400.0586,113.7432Q401.65819999999997,113.7607,401.7812,112.0967Q401.9746,109.94042999999999,402.02729999999997,105.11816L392.65819999999997,105.11816Q392.043,106.09668,391.33979999999997,106.99316L398.65229999999997,106.99316L398.65229999999997,111.8682L392.2891,111.8682L392.2891,115.3018Q392.2891,116.7432,393.748,116.7432L401.9395,116.7432Q403.6094,116.7432,403.8906,115.6416Q404.15430000000003,114.6514,404.3125,112.9932Q405.0684,113.292,405.7188,113.5029Q405.5078,115.1494,405.2617,116.1865Q404.8223,118.2432,402.2734,118.2432L393.4492,118.2432Q390.8828,118.2432,390.8828,115.7295L390.8828,107.67871Q390.0215,108.89746,389.0547,109.99316Q388.6504,109.40137,388.1758,108.96191Q391.2344,105.49316,392.6758,101.36816ZM397.2812,108.11816L392.2891,108.11816L392.2891,110.7432L397.2812,110.7432L397.2812,108.11816ZM416.225,119.3682Q413.125,115.9053,413.125,110.9834Q413.125,106.00293,416.207,102.49316L417.719,102.49316Q414.625,106.09082,414.625,110.9658Q414.625,115.7705,417.719,119.3682L416.225,119.3682ZM434.301,103.61816L440.98,103.61816L440.98,118.2432L439.592,118.2432L439.592,116.3682L435.68899999999996,116.3682L435.68899999999996,118.2432L434.301,118.2432L434.301,103.61816ZM424.65,104.36816L427.105,104.36816Q427.123,103.02051,427.111,101.36816L428.5,101.36816Q428.5,103.03809,428.48199999999997,104.36816L432.578,104.36816Q432.49,111.2354,432.35,115.1494Q432.279,118.36619999999999,429.959,118.2432Q429.273,118.2432,427.938,118.1904Q427.81399999999996,117.4932,427.656,116.7432Q428.887,116.7432,429.65999999999997,116.7432Q430.83799999999997,116.7783,430.943,115.0732Q431.137,110.9131,431.172,105.86816L428.46500000000003,105.86816Q428.447,107.23926,428.41200000000003,108.2002Q428.342,115.208,425.10699999999997,118.9932Q424.668,118.51859999999999,424.07,117.9619Q426.988,114.6514,427.041,108.08887Q427.076,107.13379,427.094,105.86816L424.65,105.86816L424.65,104.36816ZM439.592,105.11816L435.68899999999996,105.11816L435.68899999999996,115.2432L439.592,115.2432L439.592,105.11816ZM442.176,111.9619Q444.666,111.1123,447.062,109.89941L447.062,105.86816L448.31100000000004,105.86816L448.31100000000004,109.56542999999999Q452.10699999999997,107.88379,455.64099999999996,105.49316L456.467,106.52441Q452.78700000000003,108.93848,448.727,110.749Q449.096,111.1182,449.805,111.1182L453.18,111.1182Q454.23400000000004,111.1182,454.445,110.4854Q454.674,109.87012,454.797,108.49316Q455.377,108.73926,456.13300000000004,109.00292999999999Q455.869,110.37989999999999,455.746,110.77250000000001Q455.377,112.2432,453.514,112.2432L449.506,112.2432Q447.988,112.2432,447.414,111.0244Q445.182,112.1143,442.844,112.9932Q442.557,112.4482,442.176,111.9619ZM456.238,118.6182L456.238,117.8682L444.39099999999996,117.8682L444.39099999999996,113.3682L445.727,113.3682L445.727,116.7432L450.279,116.7432L450.279,112.6182L451.68600000000004,112.6182L451.68600000000004,116.7432L456.238,116.7432L456.238,113.3682L457.574,113.3682L457.574,118.6182L456.238,118.6182ZM442.932,103.24316L450.467,103.24316Q450.139,102.63965,449.73400000000004,101.9834L451.03499999999997,101.36816Q451.58000000000004,102.23535,452.03700000000003,103.24316L459.086,103.24316L459.086,106.24316L457.66200000000003,106.24316L457.66200000000003,104.36816L444.355,104.36816L444.355,106.24316L442.932,106.24316L442.932,103.24316ZM444.988,106.24316L446.219,106.71777Q445.39300000000003,108.70996,444.426,110.3682Q443.863,110.0869,443.14300000000003,109.80566Q444.10900000000004,108.36426,444.988,106.24316ZM456.273,107.74902L457.293,106.99316Q458.664,108.52832000000001,459.648,109.88184L458.488,110.7432Q457.557,109.33691,456.273,107.74902ZM449.277,105.53418L450.19100000000003,104.74316Q451.369,105.59863,452.283,106.41895L451.264,107.36816Q450.262,106.36035,449.277,105.53418ZM461.055,105.11816L463.40999999999997,105.11816L463.40999999999997,101.74316L464.64099999999996,101.74316L464.64099999999996,105.11816L467.031,105.11816L467.031,113.5557Q467.031,114.9385,465.062,114.833Q464.93899999999996,114.2236,464.693,113.3682Q465.818,113.5791,465.836,112.9639L465.836,106.24316L464.64099999999996,106.24316L464.64099999999996,118.9932L463.40999999999997,118.9932L463.40999999999997,106.24316L462.25,106.24316L462.25,114.8682L461.055,114.8682L461.055,105.11816ZM468.35,106.99316L471.637,106.99316L471.637,101.74316L472.973,101.74316L472.973,103.61816L477.719,103.61816L477.719,104.74316L472.973,104.74316L472.973,106.99316L476.64599999999996,106.99316L476.64599999999996,115.2432L475.363,115.2432L475.363,108.11816L469.63300000000004,108.11816L469.63300000000004,115.2432L468.35,115.2432L468.35,106.99316ZM471.848,108.86816L473.131,108.86816Q473.148,112.36619999999999,472.86699999999996,113.7197Q472.779,114.1533,472.621,114.5693Q475.16999999999996,116.1279,477.648,117.9619L476.73400000000004,118.9932Q474.379,117.0479,472.129,115.6416Q470.775,117.7861,467.277,118.9932Q466.908,118.5361,466.363,117.9619Q470.969,116.7607,471.637,113.4854Q471.865,112.3896,471.848,108.86816ZM485.764,119.3682L484.252,119.3682Q487.375,115.7822,487.375,110.8779Q487.375,106.06152,484.381,102.49316L485.875,102.49316Q488.875,105.93262,488.875,110.8779Q488.875,115.876,485.764,119.3682Z" fill="#DDDDDD" fill-opacity="1"/></g><g style="mix-blend-mode:passthrough"><path d="M323.27734,132.80371Q323.27734,139.583,320.93945,142.6182Q320.51758,142.0967,319.9375,141.5869Q322.01172,138.8213,322.01172,132.9502L322.01172,126.49316L332.9102,126.49316L332.9102,130.99316L331.6445,130.99316L331.6445,130.61816L323.27734,130.61816L323.27734,132.80371ZM316.210938,134.7432Q317.2832,134.3096,318.46094,133.79395L318.46094,129.86816L316.369141,129.86816L316.369141,128.74316L318.46094,128.74316L318.46094,125.74316L319.72656,125.74316L319.72656,128.74316L321.41406,128.74316L321.41406,129.86816L319.72656,129.86816L319.72656,133.20215Q320.46484,132.8623,321.23828,132.49316Q321.29102,133.33691,321.37891,133.99316Q320.58789,134.3389,319.72656,134.7314L319.72656,140.333Q319.72656,142.085,318.33789,142.208Q317.63477,142.26069999999999,316.650391,142.2432Q316.580078,141.4639,316.439453,140.7432Q317.30078,140.8135,317.86328,140.8135Q318.46094,140.7783,318.46094,140.1455L318.46094,135.3467Q317.5293,135.7686,316.527344,136.2432L316.210938,134.7432ZM325.70312,135.083Q327.8242,135.0537,330.5898,134.9424Q330.0391,134.4736,329.4648,134.0166L330.3613,133.24316Q331.7676,134.3271,333.2617,135.6865L332.2598,136.6182Q331.9023,136.2549,331.5215,135.8916Q326.0195,136.0557,324.17383,136.2432L323.92773,135.1182Q325.22266,134.3682,326.7051,132.86816L323.66406,132.86816L323.66406,131.74316L333.2266,131.74316L333.2266,132.86816L328.334,132.86816Q326.8281,134.2158,325.70312,135.083ZM322.60938,140.7432L327.5312,140.7432L327.5312,138.8682L323.75195,138.8682L323.75195,137.7432L327.5312,137.7432L327.5312,136.2432L328.7969,136.2432L328.7969,137.7432L332.6641,137.7432L332.6641,138.8682L328.7969,138.8682L328.7969,140.7432L333.6484,140.7432L333.6484,141.8682L322.60938,141.8682L322.60938,140.7432ZM331.6445,127.61816L323.27734,127.61816L323.27734,129.49316L331.6445,129.49316L331.6445,127.61816ZM334.3867,135.4932L342.3145,135.4932L342.3145,132.49316L335.6172,132.49316L335.6172,130.99316L342.3145,130.99316L342.3145,127.73535Q338.9863,127.8877,335.5469,127.99316Q335.4414,127.22559,335.2832,126.49316Q344.2656,126.3291,349.8555,125.74316L350.084,127.24316Q346.9902,127.47168,343.791,127.64746L343.791,130.99316L350.1719,130.99316L350.1719,132.49316L343.791,132.49316L343.791,135.4932L351.6836,135.4932L351.6836,136.9932L343.791,136.9932L343.791,140.1396Q343.791,142.2197,341.6113,142.2432Q340.5039,142.2432,338.5352,142.2432Q338.4473,141.4873,338.2539,140.7432Q340.2227,140.7432,341.2246,140.7432Q342.3145,140.7432,342.3145,139.6182L342.3145,136.9932L334.3867,136.9932L334.3867,135.4932ZM363.7422,125.36816L365.1484,125.5791Q364.7793,127.27246,364.2871,128.74316L369.666,128.74316L369.666,129.86816L368.5586,129.86816Q368.1191,135.1123,366.3086,138.1943Q367.7324,140.2686,369.9297,141.5869Q369.3672,142.3721,368.9805,142.9932Q366.8359,141.499,365.4121,139.4424Q363.7949,141.4873,361.5625,142.9932Q361.1758,142.5186,360.5605,141.9619Q363.0215,140.3096,364.5508,138.2061Q363.127,135.6631,362.6699,132.33496Q362.3008,133.02051,361.8965,133.61816Q361.5449,133.14941,361.0176,132.58691Q363.0566,129.62207,363.7422,125.36816ZM352.4219,135.4932L355.0938,135.4932Q355.4805,134.76069999999999,355.8496,133.99316L357.1152,134.3975Q356.834,134.9541,356.5527,135.4932L360.8594,135.4932L360.8594,136.6006Q360.1914,138.4346,358.8379,139.8174Q359.8047,140.3271,360.8066,140.8369L360.0332,141.8682Q358.9434,141.2354,357.7656,140.6025Q355.7793,142.11430000000001,352.7559,142.9932Q352.4746,142.4775,352.1582,141.8682Q354.7246,141.2002,356.5,139.9463Q354.9883,139.1553,353.3359,138.3291Q353.8984,137.4971,354.4258,136.6182L352.4219,136.6182L352.4219,135.4932ZM352.6152,129.49316L356.6582,129.49316L356.6582,125.36816L357.959,125.36816L357.959,129.49316L361.334,129.49316L361.334,130.61816L357.959,130.61816L357.959,131.50293L358.4863,130.89941Q360.1211,132.06543,361.2285,132.96191L360.3848,133.99316Q359.418,133.0791,357.959,131.93652L357.959,133.99316L356.6582,133.99316L356.6582,131.47949Q355.0586,133.12012,352.9316,134.3682Q352.59770000000003,133.87598,352.1758,133.33691Q354.3906,132.22363,356.2363,130.61816L352.6152,130.61816L352.6152,129.49316ZM367.15229999999997,129.86816L363.8652,129.86816Q363.77729999999997,130.10254,363.6719,130.31934Q363.9883,134.1455,365.4297,136.8701Q366.8359,134.2334,367.15229999999997,129.86816ZM355.0586,137.8838Q356.3066,138.54,357.625,139.2549Q358.8379,138.13569999999999,359.5234,136.6182L355.8672,136.6182Q355.4629,137.2686,355.0586,137.8838ZM360.543,126.11816L361.6328,126.83887Q360.666,127.87012,359.6992,128.74316Q359.2949,128.3916,358.75,128.00488Q359.6641,127.13184,360.543,126.11816ZM353.0723,126.80371L354.0742,126.11816Q354.8652,126.97949,355.709,127.96973L354.6191,128.74316Q353.8457,127.71777,353.0723,126.80371ZM378.1562,136.6182L381.77729999999997,136.6182L381.77729999999997,134.3682L377.6816,134.3682Q377.4883,139.7061,375.1855,142.6182Q374.7637,142.1084,374.2363,141.5869Q376.4336,138.8916,376.4336,133.31348L376.4336,126.49316L386.8047,126.49316L386.8047,131.36816L385.5391,131.36816L385.5391,130.99316L377.6992,130.99316L377.6992,133.24316L381.77729999999997,133.24316L381.77729999999997,131.36816L383.043,131.36816L383.043,133.24316L387.6836,133.24316L387.6836,134.3682L383.043,134.3682L383.043,136.6182L386.6992,136.6182L386.6992,142.6182L385.4336,142.6182L385.4336,141.4932L379.4219,141.4932L379.4219,142.6182L378.1562,142.6182L378.1562,136.6182ZM370.2812,134.7432Q371.5293,134.42680000000001,372.707,134.1045L372.707,129.86816L370.4922,129.86816L370.4922,128.74316L372.707,128.74316L372.707,125.36816L374.0078,125.36816L374.0078,128.74316L375.9238,128.74316L375.9238,129.86816L374.0078,129.86816L374.0078,133.7002Q374.8457,133.47754,375.6426,133.24316Q375.66020000000003,134.1104,375.748,134.7432Q374.8457,134.98930000000001,374.0078,135.2236L374.0078,140.5791Q374.0078,142.583,372.2676,142.6182Q371.72270000000003,142.63569999999999,370.6504,142.6006Q370.5801,141.833,370.4395,141.0127Q371.4062,141.1182,371.916,141.1182Q372.707,141.1182,372.707,140.2334L372.707,135.6514Q371.5059,135.9619,370.457,136.2432L370.2812,134.7432ZM385.5391,127.61816L377.6992,127.61816L377.6992,129.86816L385.5391,129.86816L385.5391,127.61816ZM385.4336,137.7432L379.4219,137.7432L379.4219,140.3682L385.4336,140.3682L385.4336,137.7432ZM392.6758,125.36816L394.1172,125.75488Q393.7305,126.71582,393.3086,127.61816L403.4336,127.61816Q403.3633,133.91699,403.15229999999997,136.3311Q402.9414,139.26069999999999,400.252,139.2432Q399.5488,139.2432,397.7559,139.2432Q397.6504,138.5576,397.4746,137.7432Q398.9336,137.7432,400.0586,137.7432Q401.65819999999997,137.76069999999999,401.7812,136.0967Q401.9746,133.94043,402.02729999999997,129.11816L392.65819999999997,129.11816Q392.043,130.09668,391.33979999999997,130.99316L398.65229999999997,130.99316L398.65229999999997,135.8682L392.2891,135.8682L392.2891,139.30180000000001Q392.2891,140.7432,393.748,140.7432L401.9395,140.7432Q403.6094,140.7432,403.8906,139.6416Q404.15430000000003,138.6514,404.3125,136.9932Q405.0684,137.292,405.7188,137.5029Q405.5078,139.1494,405.2617,140.1865Q404.8223,142.2432,402.2734,142.2432L393.4492,142.2432Q390.8828,142.2432,390.8828,139.7295L390.8828,131.67871Q390.0215,132.89746,389.0547,133.99316Q388.6504,133.40137,388.1758,132.96191Q391.2344,129.49316,392.6758,125.36816ZM397.2812,132.11816L392.2891,132.11816L392.2891,134.7432L397.2812,134.7432L397.2812,132.11816ZM416.225,143.3682Q413.125,139.9053,413.125,134.9834Q413.125,130.00293,416.207,126.49316L417.719,126.49316Q414.625,130.09082,414.625,134.9658Q414.625,139.7705,417.719,143.3682L416.225,143.3682ZM434.301,127.61816L440.98,127.61816L440.98,142.2432L439.592,142.2432L439.592,140.3682L435.68899999999996,140.3682L435.68899999999996,142.2432L434.301,142.2432L434.301,127.61816ZM424.65,128.36816L427.105,128.36816Q427.123,127.02051,427.111,125.36816L428.5,125.36816Q428.5,127.03809,428.48199999999997,128.36816L432.578,128.36816Q432.49,135.2354,432.35,139.1494Q432.279,142.3662,429.959,142.2432Q429.273,142.2432,427.938,142.1904Q427.81399999999996,141.4932,427.656,140.7432Q428.887,140.7432,429.65999999999997,140.7432Q430.83799999999997,140.7783,430.943,139.07319999999999Q431.137,134.9131,431.172,129.86816L428.46500000000003,129.86816Q428.447,131.23926,428.41200000000003,132.2002Q428.342,139.208,425.10699999999997,142.9932Q424.668,142.5186,424.07,141.9619Q426.988,138.6514,427.041,132.08887Q427.076,131.13379,427.094,129.86816L424.65,129.86816L424.65,128.36816ZM439.592,129.11816L435.68899999999996,129.11816L435.68899999999996,139.2432L439.592,139.2432L439.592,129.11816ZM442.176,135.9619Q444.666,135.1123,447.062,133.89941L447.062,129.86816L448.31100000000004,129.86816L448.31100000000004,133.56543Q452.10699999999997,131.88379,455.64099999999996,129.49316L456.467,130.52441Q452.78700000000003,132.93848,448.727,134.749Q449.096,135.1182,449.805,135.1182L453.18,135.1182Q454.23400000000004,135.1182,454.445,134.4854Q454.674,133.87012,454.797,132.49316Q455.377,132.73926,456.13300000000004,133.00293Q455.869,134.3799,455.746,134.7725Q455.377,136.2432,453.514,136.2432L449.506,136.2432Q447.988,136.2432,447.414,135.0244Q445.182,136.11430000000001,442.844,136.9932Q442.557,136.44819999999999,442.176,135.9619ZM456.238,142.6182L456.238,141.8682L444.39099999999996,141.8682L444.39099999999996,137.3682L445.727,137.3682L445.727,140.7432L450.279,140.7432L450.279,136.6182L451.68600000000004,136.6182L451.68600000000004,140.7432L456.238,140.7432L456.238,137.3682L457.574,137.3682L457.574,142.6182L456.238,142.6182ZM442.932,127.24316L450.467,127.24316Q450.139,126.63965,449.73400000000004,125.9834L451.03499999999997,125.36816Q451.58000000000004,126.23535,452.03700000000003,127.24316L459.086,127.24316L459.086,130.24316L457.66200000000003,130.24316L457.66200000000003,128.36816L444.355,128.36816L444.355,130.24316L442.932,130.24316L442.932,127.24316ZM444.988,130.24316L446.219,130.71777Q445.39300000000003,132.70996,444.426,134.3682Q443.863,134.0869,443.14300000000003,133.80566Q444.10900000000004,132.36426,444.988,130.24316ZM456.273,131.74902L457.293,130.99316Q458.664,132.52832,459.648,133.88184L458.488,134.7432Q457.557,133.33691,456.273,131.74902ZM449.277,129.53418L450.19100000000003,128.74316Q451.369,129.59863,452.283,130.41895L451.264,131.36816Q450.262,130.36035,449.277,129.53418ZM461.055,129.11816L463.40999999999997,129.11816L463.40999999999997,125.74316L464.64099999999996,125.74316L464.64099999999996,129.11816L467.031,129.11816L467.031,137.5557Q467.031,138.9385,465.062,138.833Q464.93899999999996,138.2236,464.693,137.3682Q465.818,137.5791,465.836,136.9639L465.836,130.24316L464.64099999999996,130.24316L464.64099999999996,142.9932L463.40999999999997,142.9932L463.40999999999997,130.24316L462.25,130.24316L462.25,138.8682L461.055,138.8682L461.055,129.11816ZM468.35,130.99316L471.637,130.99316L471.637,125.74316L472.973,125.74316L472.973,127.61816L477.719,127.61816L477.719,128.74316L472.973,128.74316L472.973,130.99316L476.64599999999996,130.99316L476.64599999999996,139.2432L475.363,139.2432L475.363,132.11816L469.63300000000004,132.11816L469.63300000000004,139.2432L468.35,139.2432L468.35,130.99316ZM471.848,132.86816L473.131,132.86816Q473.148,136.3662,472.86699999999996,137.7197Q472.779,138.1533,472.621,138.5693Q475.16999999999996,140.1279,477.648,141.9619L476.73400000000004,142.9932Q474.379,141.0479,472.129,139.6416Q470.775,141.7861,467.277,142.9932Q466.908,142.5361,466.363,141.9619Q470.969,140.76069999999999,471.637,137.4854Q471.865,136.3896,471.848,132.86816ZM485.764,143.3682L484.252,143.3682Q487.375,139.7822,487.375,134.8779Q487.375,130.06152,484.381,126.49316L485.875,126.49316Q488.875,129.93262,488.875,134.8779Q488.875,139.876,485.764,143.3682Z" fill="#DDDDDD" fill-opacity="1"/></g><g style="mix-blend-mode:passthrough"><path d="M410.0664,164.3682L403.0469,164.3682L403.0469,162.8682L406,162.8682L406,154.24316L403.252,156.11816L402.6895,154.61816L406.3047,152.74316L407.5,152.74316L407.5,162.8682L410.0664,162.8682L410.0664,164.3682ZM418.826,160.2432L413.5703,160.2432L413.5703,158.7432L418.826,158.7432L418.826,160.2432ZM430.123,164.3682L428.365,164.3682L426.666,160.86430000000001Q426.479,160.4658,426.279,160.2021Q426.08,159.9385,425.846,159.7861Q425.617,159.6279,425.342,159.5635Q425.06600000000003,159.4932,424.73199999999997,159.4932L424,159.4932L424,164.3682L422.5,164.3682L422.5,152.74316L425.523,152.74316Q426.508,152.74316,427.211,152.96582Q427.92,153.18848,428.371,153.59277Q428.828,153.99121,429.039,154.55371Q429.25,155.11621,429.25,155.80176Q429.25,156.34668,429.092,156.83301Q428.93899999999996,157.31348,428.629,157.71191Q428.318,158.1045,427.861,158.3975Q427.40999999999997,158.6846,426.818,158.8252Q427.293,158.9951,427.627,159.417Q427.961,159.8389,428.312,160.542L430.123,164.3682ZM427.75,156.05957Q427.75,155.14551,427.158,154.69434Q426.572,154.24316,425.506,154.24316L424,154.24316L424,157.99316L425.289,157.99316Q425.85699999999997,157.99316,426.30899999999997,157.87012Q426.766,157.74121,427.082,157.49512Q427.398,157.24902,427.574,156.8916Q427.75,156.52832,427.75,156.05957ZM439.773,154.24316L436.375,154.24316L436.375,164.3682L434.875,164.3682L434.875,154.24316L431.471,154.24316L431.471,152.74316L439.773,152.74316L439.773,154.24316ZM449.523,154.24316L446.125,154.24316L446.125,164.3682L444.625,164.3682L444.625,154.24316L441.221,154.24316L441.221,152.74316L449.523,152.74316L449.523,154.24316ZM460.475,167.3682Q457.375,163.9053,457.375,158.9834Q457.375,154.00293,460.457,150.49316L461.969,150.49316Q458.875,154.09082,458.875,158.9658Q458.875,163.7705,461.969,167.3682L460.475,167.3682ZM476.699,157.06152L476.102,158.1162L473.629,156.46973L473.834,159.4932L472.574,159.4932L472.76800000000003,156.46973L470.248,158.1162L469.69100000000003,157.0791L472.39300000000003,155.74316L469.69100000000003,154.38379L470.301,153.34668L472.78499999999997,155.0166L472.574,151.99316L473.834,151.99316L473.611,155.0166L476.102,153.3291L476.717,154.41895L474.01,155.76074L476.699,157.06152ZM485.764,167.3682L484.252,167.3682Q487.375,163.7822,487.375,158.8779Q487.375,154.06152,484.381,150.49316L485.875,150.49316Q488.875,153.93262,488.875,158.8779Q488.875,163.876,485.764,167.3682Z" fill="#DDDDDD" fill-opacity="1"/></g><g style="mix-blend-mode:passthrough"><path d="M329.8164,236.3682L322.79688,236.3682L322.79688,234.8682L325.75,234.8682L325.75,226.24316L323.00195,228.11816L322.43945,226.61816L326.0547,224.74316L327.25,224.74316L327.25,234.8682L329.8164,234.8682L329.8164,236.3682ZM338.5762,232.2432L333.3203,232.2432L333.3203,230.7432L338.5762,230.7432L338.5762,232.2432ZM349.873,236.3682L348.1152,236.3682L346.416,232.86430000000001Q346.2285,232.4658,346.0293,232.2021Q345.8301,231.9385,345.5957,231.7861Q345.3672,231.6279,345.0918,231.5635Q344.8164,231.4932,344.4824,231.4932L343.75,231.4932L343.75,236.3682L342.25,236.3682L342.25,224.74316L345.2734,224.74316Q346.2578,224.74316,346.9609,224.96582Q347.6699,225.18848,348.1211,225.59277Q348.5781,225.99121,348.7891,226.55371Q349,227.11621,349,227.80176Q349,228.34668,348.8418,228.83301Q348.6895,229.31348,348.3789,229.71191Q348.0684,230.1045,347.6113,230.3975Q347.1602,230.6846,346.5684,230.8252Q347.043,230.9951,347.377,231.417Q347.7109,231.8389,348.0625,232.542L349.873,236.3682ZM347.5,228.05957Q347.5,227.14551,346.9082,226.69434Q346.3223,226.24316,345.2559,226.24316L343.75,226.24316L343.75,229.99316L345.0391,229.99316Q345.6074,229.99316,346.0586,229.87012Q346.5156,229.74121,346.832,229.49512Q347.1484,229.24902,347.3242,228.8916Q347.5,228.52832,347.5,228.05957ZM359.5234,226.24316L356.125,226.24316L356.125,236.3682L354.625,236.3682L354.625,226.24316L351.2207,226.24316L351.2207,224.74316L359.5234,224.74316L359.5234,226.24316ZM369.2734,226.24316L365.875,226.24316L365.875,236.3682L364.375,236.3682L364.375,226.24316L360.9707,226.24316L360.9707,224.74316L369.2734,224.74316L369.2734,226.24316ZM380.2246,239.3682Q377.125,235.9053,377.125,230.9834Q377.125,226.00293,380.207,222.49316L381.7188,222.49316Q378.625,226.09082,378.625,230.9658Q378.625,235.7705,381.7188,239.3682L380.2246,239.3682ZM395.27729999999997,228.80371Q395.27729999999997,235.583,392.9395,238.6182Q392.5176,238.0967,391.9375,237.5869Q394.0117,234.8213,394.0117,228.9502L394.0117,222.49316L404.91020000000003,222.49316L404.91020000000003,226.99316L403.6445,226.99316L403.6445,226.61816L395.27729999999997,226.61816L395.27729999999997,228.80371ZM388.2109,230.7432Q389.28319999999997,230.3096,390.4609,229.79395L390.4609,225.86816L388.3691,225.86816L388.3691,224.74316L390.4609,224.74316L390.4609,221.74316L391.7266,221.74316L391.7266,224.74316L393.4141,224.74316L393.4141,225.86816L391.7266,225.86816L391.7266,229.20215Q392.46479999999997,228.8623,393.2383,228.49316Q393.291,229.33691,393.3789,229.99316Q392.5879,230.3389,391.7266,230.7314L391.7266,236.333Q391.7266,238.085,390.3379,238.208Q389.6348,238.26069999999999,388.6504,238.2432Q388.5801,237.4639,388.4395,236.7432Q389.3008,236.8135,389.8633,236.8135Q390.4609,236.7783,390.4609,236.1455L390.4609,231.3467Q389.52930000000003,231.7686,388.52729999999997,232.2432L388.2109,230.7432ZM397.7031,231.083Q399.8242,231.0537,402.58979999999997,230.9424Q402.0391,230.4736,401.46479999999997,230.0166L402.3613,229.24316Q403.7676,230.3271,405.2617,231.6865L404.2598,232.6182Q403.90229999999997,232.2549,403.5215,231.8916Q398.0195,232.0557,396.1738,232.2432L395.9277,231.1182Q397.22270000000003,230.3682,398.7051,228.86816L395.6641,228.86816L395.6641,227.74316L405.2266,227.74316L405.2266,228.86816L400.334,228.86816Q398.8281,230.2158,397.7031,231.083ZM394.6094,236.7432L399.5312,236.7432L399.5312,234.8682L395.752,234.8682L395.752,233.7432L399.5312,233.7432L399.5312,232.2432L400.7969,232.2432L400.7969,233.7432L404.6641,233.7432L404.6641,234.8682L400.7969,234.8682L400.7969,236.7432L405.6484,236.7432L405.6484,237.8682L394.6094,237.8682L394.6094,236.7432ZM403.6445,223.61816L395.27729999999997,223.61816L395.27729999999997,225.49316L403.6445,225.49316L403.6445,223.61816ZM406.3867,231.4932L414.3145,231.4932L414.3145,228.49316L407.6172,228.49316L407.6172,226.99316L414.3145,226.99316L414.3145,223.73535Q410.9863,223.8877,407.5469,223.99316Q407.4414,223.22559,407.28319999999997,222.49316Q416.266,222.3291,421.855,221.74316L422.084,223.24316Q418.99,223.47168,415.791,223.64746L415.791,226.99316L422.172,226.99316L422.172,228.49316L415.791,228.49316L415.791,231.4932L423.68399999999997,231.4932L423.68399999999997,232.9932L415.791,232.9932L415.791,236.1396Q415.791,238.2197,413.6113,238.2432Q412.5039,238.2432,410.53520000000003,238.2432Q410.4473,237.4873,410.2539,236.7432Q412.22270000000003,236.7432,413.2246,236.7432Q414.3145,236.7432,414.3145,235.6182L414.3145,232.9932L406.3867,232.9932L406.3867,231.4932ZM424.773,230.7432L441.297,230.7432L441.297,231.8682L435.619,231.8682L435.619,235.8701Q435.619,237.1182,436.762,237.1182L438.625,237.1182Q439.82,237.1182,439.961,236.2451Q440.102,235.3662,440.154,233.7432Q440.78700000000003,233.9951,441.701,234.2822Q441.578,235.7588,441.385,236.6963Q441.139,238.2432,439.258,238.2432L436.39300000000003,238.2432Q434.195,238.2432,434.195,235.917L434.195,231.8682L431.043,231.8682Q430.996,236.9307,425.23,238.6182Q424.879,237.9912,424.352,237.2119Q429.555,235.9404,429.64300000000003,231.8682L424.773,231.8682L424.773,230.7432ZM424.914,223.61816L432.438,223.61816Q432.098,222.92676,431.55899999999997,222.00098L432.93,221.36816Q433.627,222.6748,434.055,223.61816L441.086,223.61816L441.086,226.99316L439.645,226.99316L439.645,224.74316L426.355,224.74316L426.355,226.99316L424.914,226.99316L424.914,223.61816ZM426.953,227.36816L439.328,227.36816L439.328,228.49316L426.953,228.49316L426.953,227.36816ZM449.73400000000004,237.2119Q451.76800000000003,235.8877,453.355,234.124Q452.336,231.5693,452.154,225.86816L445.51599999999996,225.86816L445.51599999999996,228.49316L450.578,228.49316Q450.473,231.7686,450.297,234.001Q450.086,236.3682,447.94100000000003,236.3682Q447.221,236.3682,446.025,236.3682Q445.91999999999996,235.7002,445.744,234.8682Q446.975,234.8682,447.801,234.8682Q448.82,234.8682,448.943,233.6025Q449.084,232.1436,449.154,229.99316L445.51,229.99316Q445.369,235.82319999999999,443.03700000000003,238.6182Q442.598,238.1084,442.123,237.5869Q444.10900000000004,234.92680000000001,444.10900000000004,229.17871L444.10900000000004,224.36816L452.102,224.36816Q452.03700000000003,222.97949,451.98400000000004,221.36816L453.443,221.36816Q453.438,222.60449,453.49,224.36816L459.543,224.36816L459.543,225.86816L453.531,225.86816Q453.707,230.5146,454.404,232.8115Q456.10900000000004,230.57319999999999,457.20500000000004,227.74316L458.594,228.32324Q457.082,231.8037,454.967,234.376Q456.256,236.7432,457.486,236.7432Q457.938,236.7432,458.172,235.9463Q458.418,234.6924,458.55899999999997,233.3682Q459.31399999999996,233.667,459.895,233.8604Q459.631,235.7061,459.31399999999996,236.8779Q458.98,238.1377,457.83799999999997,238.2432Q456.76599999999996,238.3135,455.781,237.5869Q454.721,236.8428,453.971,235.5361Q452.488,237.0771,450.736,238.2432Q450.279,237.7275,449.73400000000004,237.2119ZM454.779,222.39941L455.51800000000003,221.36816Q456.994,222.31152,458.277,223.33691L457.43399999999997,224.36816Q456.168,223.33105,454.779,222.39941ZM461.055,225.11816L463.40999999999997,225.11816L463.40999999999997,221.74316L464.64099999999996,221.74316L464.64099999999996,225.11816L467.031,225.11816L467.031,233.5557Q467.031,234.9385,465.062,234.833Q464.93899999999996,234.2236,464.693,233.3682Q465.818,233.5791,465.836,232.9639L465.836,226.24316L464.64099999999996,226.24316L464.64099999999996,238.9932L463.40999999999997,238.9932L463.40999999999997,226.24316L462.25,226.24316L462.25,234.8682L461.055,234.8682L461.055,225.11816ZM468.35,226.99316L471.637,226.99316L471.637,221.74316L472.973,221.74316L472.973,223.61816L477.719,223.61816L477.719,224.74316L472.973,224.74316L472.973,226.99316L476.64599999999996,226.99316L476.64599999999996,235.2432L475.363,235.2432L475.363,228.11816L469.63300000000004,228.11816L469.63300000000004,235.2432L468.35,235.2432L468.35,226.99316ZM471.848,228.86816L473.131,228.86816Q473.148,232.3662,472.86699999999996,233.7197Q472.779,234.1533,472.621,234.5693Q475.16999999999996,236.1279,477.648,237.9619L476.73400000000004,238.9932Q474.379,237.0479,472.129,235.6416Q470.775,237.7861,467.277,238.9932Q466.908,238.5361,466.363,237.9619Q470.969,236.76069999999999,471.637,233.4854Q471.865,232.3896,471.848,228.86816ZM485.764,239.3682L484.252,239.3682Q487.375,235.7822,487.375,230.8779Q487.375,226.06152,484.381,222.49316L485.875,222.49316Q488.875,225.93262,488.875,230.8779Q488.875,235.876,485.764,239.3682Z" fill="#DDDDDD" fill-opacity="1"/></g><g style="mix-blend-mode:passthrough"><path d="M308,159.75L300,159.75L300,158.25L308,158.25M296,159.75L288,159.75L288,158.25L296,158.25M284,159.75L276,159.75L276,158.25L284,158.25M272,159.75L264,159.75L264,158.25L272,158.25M260,159.75L252,159.75L252,158.25L260,158.25M248,159.75L240,159.75L240,158.25L248,158.25M236,159.75L228,159.75L228,158.25L236,158.25M224,159.75L216,159.75L216,158.25L224,158.25M212,159.75L204,159.75L204,158.25L212,158.25M200,159.75L192,159.75L192,158.25L200,158.25M187.46967,158.46967L192.24264,153.6967Q192.29487,153.64447,192.35629,153.60343Q192.41771,153.56239,192.48596,153.53412Q192.5542,153.50585,192.62665,153.49144Q192.6991,153.47703,192.77297,153.47703Q192.84684,153.47703,192.91929,153.49144Q192.99174,153.50585,193.05998,153.53412Q193.12823,153.56239,193.18965,153.60343Q193.25107,153.64447,193.3033,153.6967Q193.35553,153.74893,193.39657,153.81035Q193.43761,153.87177,193.46588,153.94002Q193.49415,154.00826,193.50856,154.08071Q193.52297,154.15316,193.52297,154.22703Q193.52297,154.3009,193.50856,154.37335Q193.49415,154.4458,193.46588,154.51404Q193.43761,154.58229,193.39657,154.64371Q193.35553,154.70513,193.3033,154.75736L188.53033,159.53033Q188.478097,159.582563,188.416678,159.623602Q188.355258,159.664641,188.287012,159.69291Q188.218767,159.721178,188.146318,159.735589Q188.0738684,159.75,187.999999877795,159.75Q187.9261313,159.75,187.853682,159.735589Q187.781233,159.721178,187.712987,159.692909Q187.644742,159.664641,187.583322,159.623602Q187.521903,159.582563,187.46967,159.53033Q187.417437,159.478097,187.376398,159.416678Q187.335359,159.355258,187.30709,159.287012Q187.278822,159.218767,187.264411,159.146318Q187.25,159.0738684,187.25,158.999999877795Q187.25,158.9261313,187.264411,158.853682Q187.278822,158.781233,187.307091,158.712987Q187.335359,158.644742,187.376398,158.583322Q187.417437,158.521903,187.46967,158.46967ZM188.53033,158.46967L193.3033,163.24264Q193.35553,163.29487,193.39657,163.35629Q193.43761,163.41771,193.46588,163.48596Q193.49415,163.5542,193.50856,163.62665Q193.52297,163.6991,193.52297,163.77297Q193.52297,163.84684,193.50856,163.91929Q193.49415,163.99174,193.46588,164.05998Q193.43761,164.12823,193.39657,164.18965Q193.35553,164.25107,193.3033,164.3033Q193.25107,164.35553,193.18965,164.39657Q193.12823,164.43761,193.05998,164.46588Q192.99174,164.49415,192.91929,164.50856Q192.84684,164.52297,192.77297,164.52297Q192.6991,164.52297,192.62665,164.50856Q192.5542,164.49415,192.48596,164.46588Q192.41771,164.43761,192.35629,164.39657Q192.29487,164.35553,192.24264,164.3033L187.46967,159.53033Q187.417437,159.478097,187.376398,159.416678Q187.335359,159.355258,187.30709,159.287013Q187.278822,159.218767,187.264411,159.146318Q187.25,159.0738687,187.25,159.000000122205Q187.25,158.9261316,187.264411,158.853682Q187.278822,158.781233,187.30709,158.712988Q187.335359,158.644742,187.376398,158.583322Q187.417437,158.521903,187.46967,158.46967Q187.521903,158.417437,187.583322,158.376398Q187.644742,158.335359,187.712987,158.30709Q187.781233,158.278822,187.853682,158.264411Q187.9261313,158.25,187.999999877795,158.25Q188.0738684,158.25,188.146318,158.264411Q188.218767,158.278822,188.287012,158.30709Q188.355258,158.335359,188.416678,158.376398Q188.478097,158.417437,188.53033,158.46967Z" fill="#DDDDDD" fill-opacity="1"/></g><g style="mix-blend-mode:passthrough"><path d="M308,231.75L300,231.75L300,230.25L308,230.25M296,231.75L288,231.75L288,230.25L296,230.25M284,231.75L276,231.75L276,230.25L284,230.25M272,231.75L264,231.75L264,230.25L272,230.25M260,231.75L252,231.75L252,230.25L260,230.25M248,231.75L240,231.75L240,230.25L248,230.25M236,231.75L228,231.75L228,230.25L236,230.25M224,231.75L216,231.75L216,230.25L224,230.25M212,231.75L204,231.75L204,230.25L212,230.25M200,231.75L192,231.75L192,230.25L200,230.25M187.46967,230.46967L192.24264,225.6967Q192.29487,225.64447,192.35629,225.60343Q192.41771,225.56239,192.48596,225.53412Q192.5542,225.50585,192.62665,225.49144Q192.6991,225.47703,192.77297,225.47703Q192.84684,225.47703,192.91929,225.49144Q192.99174,225.50585,193.05998,225.53412Q193.12823,225.56239,193.18965,225.60343Q193.25107,225.64447,193.3033,225.6967Q193.35553,225.74893,193.39657,225.81035Q193.43761,225.87177,193.46588,225.94002Q193.49415,226.00826,193.50856,226.08071Q193.52297,226.15316,193.52297,226.22703Q193.52297,226.3009,193.50856,226.37335Q193.49415,226.4458,193.46588,226.51404Q193.43761,226.58229,193.39657,226.64371Q193.35553,226.70513,193.3033,226.75736L188.53033,231.53033Q188.478097,231.582563,188.416678,231.623602Q188.355258,231.664641,188.287012,231.69291Q188.218767,231.721178,188.146318,231.735589Q188.0738684,231.75,187.999999877795,231.75Q187.9261313,231.75,187.853682,231.735589Q187.781233,231.721178,187.712987,231.692909Q187.644742,231.664641,187.583322,231.623602Q187.521903,231.582563,187.46967,231.53033Q187.417437,231.478097,187.376398,231.416678Q187.335359,231.355258,187.30709,231.287012Q187.278822,231.218767,187.264411,231.146318Q187.25,231.0738684,187.25,230.999999877795Q187.25,230.9261313,187.264411,230.853682Q187.278822,230.781233,187.307091,230.712987Q187.335359,230.644742,187.376398,230.583322Q187.417437,230.521903,187.46967,230.46967ZM188.53033,230.46967L193.3033,235.24264Q193.35553,235.29487,193.39657,235.35629Q193.43761,235.41771,193.46588,235.48596Q193.49415,235.5542,193.50856,235.62665Q193.52297,235.6991,193.52297,235.77297Q193.52297,235.84684,193.50856,235.91929Q193.49415,235.99174,193.46588,236.05998Q193.43761,236.12823,193.39657,236.18965Q193.35553,236.25107,193.3033,236.3033Q193.25107,236.35553,193.18965,236.39657Q193.12823,236.43761,193.05998,236.46588Q192.99174,236.49415,192.91929,236.50856Q192.84684,236.52297,192.77297,236.52297Q192.6991,236.52297,192.62665,236.50856Q192.5542,236.49415,192.48596,236.46588Q192.41771,236.43761,192.35629,236.39657Q192.29487,236.35553,192.24264,236.3033L187.46967,231.53033Q187.417437,231.478097,187.376398,231.416678Q187.335359,231.355258,187.30709,231.287013Q187.278822,231.218767,187.264411,231.146318Q187.25,231.0738687,187.25,231.000000122205Q187.25,230.9261316,187.264411,230.853682Q187.278822,230.781233,187.30709,230.712988Q187.335359,230.644742,187.376398,230.583322Q187.417437,230.521903,187.46967,230.46967Q187.521903,230.417437,187.583322,230.376398Q187.644742,230.335359,187.712987,230.30709Q187.781233,230.278822,187.853682,230.264411Q187.9261313,230.25,187.999999877795,230.25Q188.0738684,230.25,188.146318,230.264411Q188.218767,230.278822,188.287012,230.30709Q188.355258,230.335359,188.416678,230.376398Q188.478097,230.417437,188.53033,230.46967Z" fill="#DDDDDD" fill-opacity="1"/></g><g style="mix-blend-mode:passthrough"><path d="M8.56641,212.3682L1.54688,212.3682L1.54688,210.8682L4.5,210.8682L4.5,202.24316L1.75195,204.11816L1.18945,202.61816L4.80469,200.74316L6,200.74316L6,210.8682L8.56641,210.8682L8.56641,212.3682ZM17.3262,208.2432L12.0703,208.2432L12.0703,206.7432L17.3262,206.7432L17.3262,208.2432ZM28.623,212.3682L26.8652,212.3682L25.166,208.86430000000001Q24.9785,208.4658,24.7793,208.2021Q24.5801,207.9385,24.3457,207.7861Q24.1172,207.6279,23.8418,207.5635Q23.5664,207.4932,23.2324,207.4932L22.5,207.4932L22.5,212.3682L21,212.3682L21,200.74316L24.0234,200.74316Q25.0078,200.74316,25.7109,200.96582Q26.4199,201.18848,26.8711,201.59277Q27.3281,201.99121,27.5391,202.55371Q27.75,203.11621,27.75,203.80176Q27.75,204.34668,27.5918,204.83301Q27.4395,205.31348,27.1289,205.71191Q26.8184,206.1045,26.3613,206.3975Q25.9102,206.6846,25.3184,206.8252Q25.793,206.9951,26.127,207.417Q26.4609,207.8389,26.8125,208.542L28.623,212.3682ZM26.25,204.05957Q26.25,203.14551,25.6582,202.69434Q25.0723,202.24316,24.0059,202.24316L22.5,202.24316L22.5,205.99316L23.7891,205.99316Q24.3574,205.99316,24.8086,205.87012Q25.2656,205.74121,25.582,205.49512Q25.8984,205.24902,26.0742,204.8916Q26.25,204.52832,26.25,204.05957ZM38.2734,202.24316L34.875,202.24316L34.875,212.3682L33.375,212.3682L33.375,202.24316L29.9707,202.24316L29.9707,200.74316L38.2734,200.74316L38.2734,202.24316ZM48.0234,202.24316L44.625,202.24316L44.625,212.3682L43.125,212.3682L43.125,202.24316L39.7207,202.24316L39.7207,200.74316L48.0234,200.74316L48.0234,202.24316ZM58.9746,215.3682Q55.875,211.9053,55.875,206.9834Q55.875,202.00293,58.957,198.49316L60.4688,198.49316Q57.375,202.09082,57.375,206.9658Q57.375,211.7705,60.4688,215.3682L58.9746,215.3682ZM75.1992,205.06152L74.6016,206.1162L72.1289,204.46973L72.334,207.4932L71.0742,207.4932L71.2676,204.46973L68.748,206.1162L68.1914,205.0791L70.8926,203.74316L68.1914,202.38379L68.8008,201.34668L71.2852,203.0166L71.0742,199.99316L72.334,199.99316L72.1113,203.0166L74.6016,201.3291L75.2168,202.41895L72.5098,203.76074L75.1992,205.06152ZM84.2637,215.3682L82.752,215.3682Q85.875,211.7822,85.875,206.8779Q85.875,202.06152,82.8809,198.49316L84.375,198.49316Q87.375,201.93262,87.375,206.8779Q87.375,211.876,84.2637,215.3682Z" fill="#DDDDDD" fill-opacity="1"/></g><g style="mix-blend-mode:passthrough"><path d="M7.27734,180.80371Q7.27734,187.583,4.93945,190.6182Q4.51758,190.0967,3.9375,189.5869Q6.01172,186.8213,6.01172,180.9502L6.01172,174.49316L16.9102,174.49316L16.9102,178.99316L15.6445,178.99316L15.6445,178.61816L7.27734,178.61816L7.27734,180.80371ZM0.210938,182.7432Q1.2832,182.3096,2.46094,181.79395L2.46094,177.86816L0.369141,177.86816L0.369141,176.74316L2.46094,176.74316L2.46094,173.74316L3.72656,173.74316L3.72656,176.74316L5.41406,176.74316L5.41406,177.86816L3.72656,177.86816L3.72656,181.20215Q4.46484,180.8623,5.23828,180.49316Q5.29102,181.33691,5.37891,181.99316Q4.58789,182.3389,3.72656,182.7314L3.72656,188.333Q3.72656,190.085,2.33789,190.208Q1.63477,190.26069999999999,0.650391,190.2432Q0.580078,189.4639,0.439453,188.7432Q1.30078,188.8135,1.86328,188.8135Q2.46094,188.7783,2.46094,188.1455L2.46094,183.3467Q1.5293,183.7686,0.527344,184.2432L0.210938,182.7432ZM9.70312,183.083Q11.8242,183.0537,14.5898,182.9424Q14.0391,182.4736,13.4648,182.0166L14.3613,181.24316Q15.7676,182.3271,17.2617,183.6865L16.2598,184.6182Q15.9023,184.2549,15.5215,183.8916Q10.0195,184.0557,8.17383,184.2432L7.92773,183.1182Q9.22266,182.3682,10.7051,180.86816L7.66406,180.86816L7.66406,179.74316L17.2266,179.74316L17.2266,180.86816L12.334,180.86816Q10.8281,182.2158,9.70312,183.083ZM6.60938,188.7432L11.5312,188.7432L11.5312,186.8682L7.75195,186.8682L7.75195,185.7432L11.5312,185.7432L11.5312,184.2432L12.7969,184.2432L12.7969,185.7432L16.6641,185.7432L16.6641,186.8682L12.7969,186.8682L12.7969,188.7432L17.6484,188.7432L17.6484,189.8682L6.60938,189.8682L6.60938,188.7432ZM15.6445,175.61816L7.27734,175.61816L7.27734,177.49316L15.6445,177.49316L15.6445,175.61816ZM18.3867,183.4932L26.3145,183.4932L26.3145,180.49316L19.6172,180.49316L19.6172,178.99316L26.3145,178.99316L26.3145,175.73535Q22.9863,175.8877,19.5469,175.99316Q19.4414,175.22559,19.2832,174.49316Q28.2656,174.3291,33.8555,173.74316L34.084,175.24316Q30.9902,175.47168,27.791,175.64746L27.791,178.99316L34.1719,178.99316L34.1719,180.49316L27.791,180.49316L27.791,183.4932L35.6836,183.4932L35.6836,184.9932L27.791,184.9932L27.791,188.1396Q27.791,190.2197,25.6113,190.2432Q24.5039,190.2432,22.5352,190.2432Q22.4473,189.4873,22.2539,188.7432Q24.2227,188.7432,25.2246,188.7432Q26.3145,188.7432,26.3145,187.6182L26.3145,184.9932L18.3867,184.9932L18.3867,183.4932ZM47.7422,173.36816L49.1484,173.5791Q48.7793,175.27246,48.2871,176.74316L53.666,176.74316L53.666,177.86816L52.5586,177.86816Q52.1191,183.1123,50.3086,186.1943Q51.7324,188.2686,53.9297,189.5869Q53.3672,190.3721,52.9805,190.9932Q50.8359,189.499,49.4121,187.4424Q47.7949,189.4873,45.5625,190.9932Q45.1758,190.5186,44.5605,189.9619Q47.0215,188.3096,48.5508,186.2061Q47.127,183.6631,46.6699,180.33496Q46.3008,181.02051,45.8965,181.61816Q45.5449,181.14941,45.0176,180.58691Q47.0566,177.62207,47.7422,173.36816ZM36.4219,183.4932L39.0938,183.4932Q39.4805,182.76069999999999,39.8496,181.99316L41.1152,182.3975Q40.834,182.9541,40.5527,183.4932L44.8594,183.4932L44.8594,184.6006Q44.1914,186.4346,42.8379,187.8174Q43.8047,188.3271,44.8066,188.8369L44.0332,189.8682Q42.9434,189.2354,41.7656,188.6025Q39.7793,190.11430000000001,36.7559,190.9932Q36.4746,190.4775,36.1582,189.8682Q38.7246,189.2002,40.5,187.9463Q38.9883,187.1553,37.3359,186.3291Q37.8984,185.4971,38.4258,184.6182L36.4219,184.6182L36.4219,183.4932ZM36.6152,177.49316L40.6582,177.49316L40.6582,173.36816L41.959,173.36816L41.959,177.49316L45.334,177.49316L45.334,178.61816L41.959,178.61816L41.959,179.50293L42.4863,178.89941Q44.1211,180.06543,45.2285,180.96191L44.3848,181.99316Q43.418,181.0791,41.959,179.93652L41.959,181.99316L40.6582,181.99316L40.6582,179.47949Q39.0586,181.12012,36.9316,182.3682Q36.5977,181.87598,36.1758,181.33691Q38.3906,180.22363,40.2363,178.61816L36.6152,178.61816L36.6152,177.49316ZM51.1523,177.86816L47.8652,177.86816Q47.7773,178.10254,47.6719,178.31934Q47.9883,182.1455,49.4297,184.8701Q50.8359,182.2334,51.1523,177.86816ZM39.0586,185.8838Q40.3066,186.54,41.625,187.2549Q42.8379,186.13569999999999,43.5234,184.6182L39.8672,184.6182Q39.4629,185.2686,39.0586,185.8838ZM44.543,174.11816L45.6328,174.83887Q44.666,175.87012,43.6992,176.74316Q43.2949,176.3916,42.75,176.00488Q43.6641,175.13184,44.543,174.11816ZM37.0723,174.80371L38.0742,174.11816Q38.8652,174.97949,39.709,175.96973L38.6191,176.74316Q37.8457,175.71777,37.0723,174.80371ZM62.1562,184.6182L65.7773,184.6182L65.7773,182.3682L61.6816,182.3682Q61.4883,187.7061,59.1855,190.6182Q58.7637,190.1084,58.2363,189.5869Q60.4336,186.8916,60.4336,181.31348L60.4336,174.49316L70.8047,174.49316L70.8047,179.36816L69.5391,179.36816L69.5391,178.99316L61.6992,178.99316L61.6992,181.24316L65.7773,181.24316L65.7773,179.36816L67.043,179.36816L67.043,181.24316L71.6836,181.24316L71.6836,182.3682L67.043,182.3682L67.043,184.6182L70.6992,184.6182L70.6992,190.6182L69.4336,190.6182L69.4336,189.4932L63.4219,189.4932L63.4219,190.6182L62.1562,190.6182L62.1562,184.6182ZM54.2812,182.7432Q55.5293,182.42680000000001,56.707,182.1045L56.707,177.86816L54.4922,177.86816L54.4922,176.74316L56.707,176.74316L56.707,173.36816L58.0078,173.36816L58.0078,176.74316L59.9238,176.74316L59.9238,177.86816L58.0078,177.86816L58.0078,181.7002Q58.8457,181.47754,59.6426,181.24316Q59.6602,182.1104,59.748,182.7432Q58.8457,182.98930000000001,58.0078,183.2236L58.0078,188.5791Q58.0078,190.583,56.2676,190.6182Q55.7227,190.63569999999999,54.6504,190.6006Q54.5801,189.833,54.4395,189.0127Q55.4062,189.1182,55.916,189.1182Q56.707,189.1182,56.707,188.2334L56.707,183.6514Q55.5059,183.9619,54.457,184.2432L54.2812,182.7432ZM69.5391,175.61816L61.6992,175.61816L61.6992,177.86816L69.5391,177.86816L69.5391,175.61816ZM69.4336,185.7432L63.4219,185.7432L63.4219,188.3682L69.4336,188.3682L69.4336,185.7432ZM76.6758,173.36816L78.1172,173.75488Q77.7305,174.71582,77.3086,175.61816L87.4336,175.61816Q87.3633,181.91699,87.1523,184.3311Q86.9414,187.26069999999999,84.252,187.2432Q83.5488,187.2432,81.7559,187.2432Q81.6504,186.5576,81.4746,185.7432Q82.9336,185.7432,84.0586,185.7432Q85.6582,185.76069999999999,85.7812,184.0967Q85.9746,181.94043,86.0273,177.11816L76.6582,177.11816Q76.043,178.09668,75.3398,178.99316L82.6523,178.99316L82.6523,183.8682L76.2891,183.8682L76.2891,187.30180000000001Q76.2891,188.7432,77.748,188.7432L85.9395,188.7432Q87.6094,188.7432,87.8906,187.6416Q88.1543,186.6514,88.3125,184.9932Q89.0684,185.292,89.7188,185.5029Q89.5078,187.1494,89.2617,188.1865Q88.8223,190.2432,86.2734,190.2432L77.4492,190.2432Q74.8828,190.2432,74.8828,187.7295L74.8828,179.67871Q74.0215,180.89746,73.0547,181.99316Q72.6504,181.40137,72.1758,180.96191Q75.2344,177.49316,76.6758,173.36816ZM81.2812,180.11816L76.2891,180.11816L76.2891,182.7432L81.2812,182.7432L81.2812,180.11816ZM100.225,191.3682Q97.125,187.9053,97.125,182.9834Q97.125,178.00293,100.207,174.49316L101.719,174.49316Q98.625,178.09082,98.625,182.9658Q98.625,187.7705,101.719,191.3682L100.225,191.3682ZM118.301,175.61816L124.98,175.61816L124.98,190.2432L123.592,190.2432L123.592,188.3682L119.689,188.3682L119.689,190.2432L118.301,190.2432L118.301,175.61816ZM108.65,176.36816L111.105,176.36816Q111.123,175.02051,111.111,173.36816L112.5,173.36816Q112.5,175.03809,112.482,176.36816L116.578,176.36816Q116.49,183.2354,116.35,187.1494Q116.279,190.3662,113.959,190.2432Q113.273,190.2432,111.938,190.1904Q111.814,189.4932,111.656,188.7432Q112.887,188.7432,113.66,188.7432Q114.838,188.7783,114.943,187.07319999999999Q115.137,182.9131,115.172,177.86816L112.465,177.86816Q112.447,179.23926,112.412,180.2002Q112.342,187.208,109.107,190.9932Q108.668,190.5186,108.07,189.9619Q110.988,186.6514,111.041,180.08887Q111.076,179.13379,111.094,177.86816L108.65,177.86816L108.65,176.36816ZM123.592,177.11816L119.689,177.11816L119.689,187.2432L123.592,187.2432L123.592,177.11816ZM126.176,183.9619Q128.666,183.1123,131.062,181.89941L131.062,177.86816L132.311,177.86816L132.311,181.56543Q136.107,179.88379,139.641,177.49316L140.467,178.52441Q136.787,180.93848,132.727,182.749Q133.096,183.1182,133.805,183.1182L137.18,183.1182Q138.234,183.1182,138.445,182.4854Q138.674,181.87012,138.797,180.49316Q139.377,180.73926,140.133,181.00293Q139.869,182.3799,139.746,182.7725Q139.377,184.2432,137.514,184.2432L133.506,184.2432Q131.988,184.2432,131.414,183.0244Q129.182,184.11430000000001,126.844,184.9932Q126.557,184.44819999999999,126.176,183.9619ZM140.238,190.6182L140.238,189.8682L128.391,189.8682L128.391,185.3682L129.727,185.3682L129.727,188.7432L134.279,188.7432L134.279,184.6182L135.686,184.6182L135.686,188.7432L140.238,188.7432L140.238,185.3682L141.574,185.3682L141.574,190.6182L140.238,190.6182ZM126.932,175.24316L134.467,175.24316Q134.139,174.63965,133.734,173.9834L135.035,173.36816Q135.58,174.23535,136.037,175.24316L143.086,175.24316L143.086,178.24316L141.662,178.24316L141.662,176.36816L128.355,176.36816L128.355,178.24316L126.932,178.24316L126.932,175.24316ZM128.988,178.24316L130.219,178.71777Q129.393,180.70996,128.426,182.3682Q127.863,182.0869,127.143,181.80566Q128.109,180.36426,128.988,178.24316ZM140.273,179.74902L141.293,178.99316Q142.664,180.52832,143.648,181.88184L142.488,182.7432Q141.557,181.33691,140.273,179.74902ZM133.277,177.53418L134.191,176.74316Q135.369,177.59863,136.283,178.41895L135.264,179.36816Q134.262,178.36035,133.277,177.53418ZM145.055,177.11816L147.41,177.11816L147.41,173.74316L148.641,173.74316L148.641,177.11816L151.031,177.11816L151.031,185.5557Q151.031,186.9385,149.062,186.833Q148.939,186.2236,148.693,185.3682Q149.818,185.5791,149.836,184.9639L149.836,178.24316L148.641,178.24316L148.641,190.9932L147.41,190.9932L147.41,178.24316L146.25,178.24316L146.25,186.8682L145.055,186.8682L145.055,177.11816ZM152.35,178.99316L155.637,178.99316L155.637,173.74316L156.973,173.74316L156.973,175.61816L161.719,175.61816L161.719,176.74316L156.973,176.74316L156.973,178.99316L160.646,178.99316L160.646,187.2432L159.363,187.2432L159.363,180.11816L153.633,180.11816L153.633,187.2432L152.35,187.2432L152.35,178.99316ZM155.848,180.86816L157.131,180.86816Q157.148,184.3662,156.867,185.7197Q156.779,186.1533,156.621,186.5693Q159.17,188.1279,161.648,189.9619L160.734,190.9932Q158.379,189.0479,156.129,187.6416Q154.775,189.7861,151.277,190.9932Q150.908,190.5361,150.363,189.9619Q154.969,188.76069999999999,155.637,185.4854Q155.865,184.3896,155.848,180.86816ZM169.764,191.3682L168.252,191.3682Q171.375,187.7822,171.375,182.8779Q171.375,178.06152,168.381,174.49316L169.875,174.49316Q172.875,177.93262,172.875,182.8779Q172.875,187.876,169.764,191.3682Z" fill="#DDDDDD" fill-opacity="1"/></g><g style="mix-blend-mode:passthrough"><path d="M308,207.75L300,207.75L300,206.25L308,206.25M296,207.75L288,207.75L288,206.25L296,206.25M284.0001,207.75L276.0001,207.75L276.0001,206.25L284.0001,206.25M272.0001,207.75L264.0001,207.75L264.0001,206.25L272.0001,206.25M260.0001,207.75L252.0001,207.75L252.0001,206.25L260.0001,206.25M248.0001,207.75L240.0001,207.75L240.0001,206.25L248.0001,206.25M236.0001,207.75L228.0001,207.75L228.0001,206.25L236.0001,206.25M224.0001,207.75L216.0001,207.75L216.0001,206.25L224.0001,206.25M212.0001,207.75L204.0001,207.75L204.0001,206.25L212.0001,206.25M200.0001,207.75L192.00006,207.75L192.00006,206.25L200.0001,206.25M188.0000610352,207.75L188,207.75L188,206.25L188.0000610352,206.25M308.53,207.53033L303.757,212.3033Q303.705,212.35553,303.644,212.39657Q303.582,212.43761,303.514,212.46588Q303.446,212.49415,303.373,212.50856Q303.301,212.52297,303.227,212.52297Q303.153,212.52297,303.081,212.50856Q303.008,212.49415,302.94,212.46588Q302.872,212.43761,302.81,212.39657Q302.749,212.35553,302.697,212.3033Q302.645,212.25107,302.603,212.18965Q302.562,212.12823,302.534,212.05998Q302.506,211.99174,302.491,211.91929Q302.477,211.84684,302.477,211.77297Q302.477,211.6991,302.492,211.62665Q302.506,211.5542,302.534,211.48596Q302.562,211.41771,302.603,211.35629Q302.645,211.29487,302.697,211.24264L307.47,206.46967Q307.522,206.417437,307.58299999999997,206.376398Q307.645,206.335359,307.71299999999997,206.30709Q307.781,206.278822,307.854,206.264411Q307.926,206.25,308,206.25Q308.074,206.25,308.146,206.264411Q308.219,206.278822,308.28700000000003,206.307091Q308.355,206.335359,308.41700000000003,206.376398Q308.478,206.417437,308.53,206.46967Q308.58299999999997,206.521903,308.624,206.583323Q308.665,206.644742,308.693,206.712988Q308.721,206.781233,308.736,206.853682Q308.75,206.9261316,308.75,207.000000174578Q308.75,207.0738687,308.736,207.146318Q308.721,207.218767,308.693,207.287013Q308.665,207.355258,308.624,207.416678Q308.58299999999997,207.478097,308.53,207.53033ZM307.47,207.53033L302.697,202.75736Q302.645,202.70513,302.603,202.64371Q302.562,202.58229,302.534,202.51404Q302.506,202.4458,302.491,202.37335Q302.477,202.3009,302.477,202.22703Q302.477,202.15316,302.492,202.08071Q302.506,202.00826,302.534,201.94002Q302.562,201.87177,302.603,201.81035Q302.645,201.74893,302.697,201.6967Q302.749,201.64447,302.81,201.60343Q302.872,201.56239,302.94,201.53412Q303.008,201.50585,303.081,201.49144Q303.153,201.47703,303.227,201.47703Q303.301,201.47703,303.373,201.49144Q303.446,201.50585,303.514,201.53412Q303.582,201.56239,303.644,201.60343Q303.705,201.64447,303.757,201.6967L308.53,206.46967Q308.58299999999997,206.521903,308.624,206.583322Q308.665,206.644742,308.693,206.712987Q308.721,206.781233,308.736,206.853682Q308.75,206.9261313,308.75,206.999999825422Q308.75,207.0738684,308.736,207.146318Q308.721,207.218767,308.693,207.287012Q308.665,207.355258,308.624,207.416677Q308.58299999999997,207.478097,308.53,207.53033Q308.478,207.582563,308.41700000000003,207.623602Q308.355,207.664641,308.28700000000003,207.692909Q308.219,207.721178,308.146,207.735589Q308.074,207.75,308,207.75Q307.926,207.75,307.854,207.735589Q307.781,207.721178,307.71299999999997,207.69291Q307.645,207.664641,307.58299999999997,207.623602Q307.522,207.582563,307.47,207.53033Z" fill="#DDDDDD" fill-opacity="1"/></g><g style="mix-blend-mode:passthrough"><path d="M8.56641,284.3682L1.54688,284.3682L1.54688,282.8682L4.5,282.8682L4.5,274.24316L1.75195,276.11816L1.18945,274.61816L4.80469,272.74316L6,272.74316L6,282.8682L8.56641,282.8682L8.56641,284.3682ZM17.3262,280.2432L12.0703,280.2432L12.0703,278.7432L17.3262,278.7432L17.3262,280.2432ZM28.623,284.3682L26.8652,284.3682L25.166,280.8643Q24.9785,280.4658,24.7793,280.2021Q24.5801,279.9385,24.3457,279.7861Q24.1172,279.6279,23.8418,279.5635Q23.5664,279.4932,23.2324,279.4932L22.5,279.4932L22.5,284.3682L21,284.3682L21,272.74316L24.0234,272.74316Q25.0078,272.74316,25.7109,272.96582Q26.4199,273.18848,26.8711,273.59277Q27.3281,273.99121,27.5391,274.55371Q27.75,275.11621,27.75,275.80176Q27.75,276.34668,27.5918,276.83301Q27.4395,277.31348,27.1289,277.71191Q26.8184,278.1045,26.3613,278.3975Q25.9102,278.6846,25.3184,278.8252Q25.793,278.9951,26.127,279.417Q26.4609,279.8389,26.8125,280.542L28.623,284.3682ZM26.25,276.05957Q26.25,275.14551,25.6582,274.69434Q25.0723,274.24316,24.0059,274.24316L22.5,274.24316L22.5,277.99316L23.7891,277.99316Q24.3574,277.99316,24.8086,277.87012Q25.2656,277.74121,25.582,277.49512Q25.8984,277.24902,26.0742,276.8916Q26.25,276.52832,26.25,276.05957ZM38.2734,274.24316L34.875,274.24316L34.875,284.3682L33.375,284.3682L33.375,274.24316L29.9707,274.24316L29.9707,272.74316L38.2734,272.74316L38.2734,274.24316ZM48.0234,274.24316L44.625,274.24316L44.625,284.3682L43.125,284.3682L43.125,274.24316L39.7207,274.24316L39.7207,272.74316L48.0234,272.74316L48.0234,274.24316Z" fill="#DDDDDD" fill-opacity="1"/></g><g style="mix-blend-mode:passthrough"><path d="M455.81641,284.3682L448.79688,284.3682L448.79688,282.8682L451.75,282.8682L451.75,274.24316L449.00195,276.11816L448.43945,274.61816L452.05469,272.74316L453.25,272.74316L453.25,282.8682L455.81641,282.8682L455.81641,284.3682ZM464.5762,280.2432L459.3203,280.2432L459.3203,278.7432L464.5762,278.7432L464.5762,280.2432ZM475.873,284.3682L474.1152,284.3682L472.416,280.8643Q472.2285,280.4658,472.0293,280.2021Q471.8301,279.9385,471.5957,279.7861Q471.3672,279.6279,471.0918,279.5635Q470.8164,279.4932,470.4824,279.4932L469.75,279.4932L469.75,284.3682L468.25,284.3682L468.25,272.74316L471.2734,272.74316Q472.2578,272.74316,472.9609,272.96582Q473.6699,273.18848,474.1211,273.59277Q474.5781,273.99121,474.7891,274.55371Q475,275.11621,475,275.80176Q475,276.34668,474.8418,276.83301Q474.6895,277.31348,474.3789,277.71191Q474.0684,278.1045,473.6113,278.3975Q473.1602,278.6846,472.5684,278.8252Q473.043,278.9951,473.377,279.417Q473.7109,279.8389,474.0625,280.542L475.873,284.3682ZM473.5,276.05957Q473.5,275.14551,472.9082,274.69434Q472.3223,274.24316,471.2559,274.24316L469.75,274.24316L469.75,277.99316L471.0391,277.99316Q471.6074,277.99316,472.0586,277.87012Q472.5156,277.74121,472.832,277.49512Q473.1484,277.24902,473.3242,276.8916Q473.5,276.52832,473.5,276.05957ZM485.5234,274.24316L482.125,274.24316L482.125,284.3682L480.625,284.3682L480.625,274.24316L477.2207,274.24316L477.2207,272.74316L485.5234,272.74316L485.5234,274.24316ZM495.2734,274.24316L491.875,274.24316L491.875,284.3682L490.375,284.3682L490.375,274.24316L486.9707,274.24316L486.9707,272.74316L495.2734,272.74316L495.2734,274.24316Z" fill="#DDDDDD" fill-opacity="1"/></g><g style="mix-blend-mode:passthrough"><path d="M308,279.75L188,279.75L188,278.25L308,278.25L308,279.75ZM308.53,279.53033L303.757,284.3033Q303.705,284.35553,303.644,284.39657Q303.582,284.43761,303.514,284.46588Q303.446,284.49415,303.373,284.50856Q303.301,284.52297,303.227,284.52297Q303.153,284.52297,303.081,284.50856Q303.008,284.49415,302.94,284.46588Q302.872,284.43761,302.81,284.39657Q302.749,284.35553,302.697,284.3033Q302.644,284.25107,302.603,284.18965000000003Q302.562,284.12823,302.534,284.05998Q302.506,283.99174,302.491,283.91929Q302.477,283.84684,302.477,283.77297Q302.477,283.6991,302.491,283.62665Q302.506,283.5542,302.534,283.48596Q302.562,283.41771,302.603,283.35629Q302.644,283.29487,302.697,283.24264L307.47,278.46967Q307.522,278.417437,307.58299999999997,278.376398Q307.645,278.335359,307.71299999999997,278.30709Q307.781,278.278822,307.854,278.264411Q307.926,278.25,308,278.25Q308.074,278.25,308.146,278.264411Q308.219,278.278822,308.28700000000003,278.307091Q308.355,278.335359,308.41700000000003,278.376398Q308.478,278.417437,308.53,278.46967Q308.58299999999997,278.521903,308.624,278.583323Q308.665,278.644742,308.693,278.712988Q308.721,278.781233,308.736,278.853682Q308.75,278.9261316,308.75,279.000000174578Q308.75,279.0738687,308.736,279.146318Q308.721,279.218767,308.693,279.287013Q308.665,279.355258,308.624,279.416678Q308.58299999999997,279.478097,308.53,279.53033ZM307.47,279.53033L302.697,274.75736Q302.644,274.70513,302.603,274.64371Q302.562,274.58229,302.534,274.51404Q302.506,274.4458,302.491,274.37335Q302.477,274.3009,302.477,274.22703Q302.477,274.15316,302.491,274.08071Q302.506,274.00826,302.534,273.94002Q302.562,273.87177,302.603,273.81034999999997Q302.644,273.74893,302.697,273.6967Q302.749,273.64447,302.81,273.60343Q302.872,273.56239,302.94,273.53412Q303.008,273.50585,303.081,273.49144Q303.153,273.47703,303.227,273.47703Q303.301,273.47703,303.373,273.49144Q303.446,273.50585,303.514,273.53412Q303.582,273.56239,303.644,273.60343Q303.705,273.64447,303.757,273.6967L308.53,278.46967Q308.58299999999997,278.521903,308.624,278.583322Q308.665,278.644742,308.693,278.712987Q308.721,278.781233,308.736,278.853682Q308.75,278.9261313,308.75,278.999999825422Q308.75,279.0738684,308.736,279.146318Q308.721,279.218767,308.693,279.287012Q308.665,279.355258,308.624,279.416677Q308.58299999999997,279.478097,308.53,279.53033Q308.478,279.582563,308.41700000000003,279.623602Q308.355,279.664641,308.28700000000003,279.692909Q308.219,279.721178,308.146,279.735589Q308.074,279.75,308,279.75Q307.926,279.75,307.854,279.735589Q307.781,279.721178,307.71299999999997,279.69291Q307.645,279.664641,307.58299999999997,279.623602Q307.522,279.582563,307.47,279.53033ZM187.46967,278.46967L192.24264,273.6967Q192.29487,273.64447,192.35629,273.60343Q192.41771,273.56239,192.48596,273.53412Q192.5542,273.50585,192.62665,273.49144Q192.6991,273.47703,192.77297,273.47703Q192.84684,273.47703,192.91929,273.49144Q192.99174,273.50585,193.05998,273.53412Q193.12823,273.56239,193.18965,273.60343Q193.25107,273.64447,193.3033,273.6967Q193.35553,273.74893,193.39657,273.81034999999997Q193.43761,273.87177,193.46588,273.94002Q193.49415,274.00826,193.50856,274.08071Q193.52297,274.15316,193.52297,274.22703Q193.52297,274.3009,193.50856,274.37335Q193.49415,274.4458,193.46588,274.51404Q193.43761,274.58229,193.39657,274.64371Q193.35553,274.70513,193.3033,274.75736L188.53033,279.53033Q188.478097,279.582563,188.416678,279.623602Q188.355258,279.664641,188.287012,279.69291Q188.218767,279.721178,188.146318,279.735589Q188.0738684,279.75,187.999999877795,279.75Q187.9261313,279.75,187.853682,279.735589Q187.781233,279.721178,187.712987,279.692909Q187.644742,279.664641,187.583322,279.623602Q187.521903,279.582563,187.46967,279.53033Q187.417437,279.478097,187.376398,279.416678Q187.335359,279.355258,187.30709,279.287012Q187.278822,279.218767,187.264411,279.146318Q187.25,279.0738684,187.25,278.999999877795Q187.25,278.9261313,187.264411,278.853682Q187.278822,278.781233,187.307091,278.712987Q187.335359,278.644742,187.376398,278.583322Q187.417437,278.521903,187.46967,278.46967ZM188.53033,278.46967L193.3033,283.24264Q193.35553,283.29487,193.39657,283.35629Q193.43761,283.41771,193.46588,283.48596Q193.49415,283.5542,193.50856,283.62665Q193.52297,283.6991,193.52297,283.77297Q193.52297,283.84684,193.50856,283.91929Q193.49415,283.99174,193.46588,284.05998Q193.43761,284.12823,193.39657,284.18965000000003Q193.35553,284.25107,193.3033,284.3033Q193.25107,284.35553,193.18965,284.39657Q193.12823,284.43761,193.05998,284.46588Q192.99174,284.49415,192.91929,284.50856Q192.84684,284.52297,192.77297,284.52297Q192.6991,284.52297,192.62665,284.50856Q192.5542,284.49415,192.48596,284.46588Q192.41771,284.43761,192.35629,284.39657Q192.29487,284.35553,192.24264,284.3033L187.46967,279.53033Q187.417437,279.478097,187.376398,279.416678Q187.335359,279.355258,187.30709,279.287013Q187.278822,279.218767,187.264411,279.146318Q187.25,279.0738687,187.25,279.000000122205Q187.25,278.9261316,187.264411,278.853682Q187.278822,278.781233,187.30709,278.712988Q187.335359,278.644742,187.376398,278.583322Q187.417437,278.521903,187.46967,278.46967Q187.521903,278.417437,187.583322,278.376398Q187.644742,278.335359,187.712987,278.30709Q187.781233,278.278822,187.853682,278.264411Q187.9261313,278.25,187.999999877795,278.25Q188.0738684,278.25,188.146318,278.264411Q188.218767,278.278822,188.287012,278.30709Q188.355258,278.335359,188.416678,278.376398Q188.478097,278.417437,188.53033,278.46967Z" fill="#DDDDDD" fill-opacity="1"/></g></g></g></svg>